<svg id="Layer_1" data-name="Layer 1" xmlns="http://www.w3.org/2000/svg" viewBox="0 0 78.6 33.1"><defs><style>.cls-1{fill:none;}.cls-2{fill:#f90;}.cls-3{fill:#221f1f;}</style></defs><title>amazon</title><rect class="cls-1" width="78.6" height="33.06"/><g id="g1967"><path id="path8" class="cls-2" d="M48.6,26.4c-4.5,3.3-11,5.1-16.5,5.1a29.9,29.9,0,0,1-20.2-7.7c-.4-.4,0-.9.5-.6a40.7,40.7,0,0,0,20.2,5.4,40.2,40.2,0,0,0,15.4-3.2c.8-.3,1.4.5.7,1" transform="translate(-0.2 -0.2)"/><path id="path10" class="cls-2" d="M50.5,24.3c-.6-.7-3.8-.3-5.2-.2s-.5-.3-.1-.6c2.6-1.8,6.8-1.3,7.2-.7s-.1,4.8-2.5,6.8c-.4.3-.7.1-.6-.3S51,25,50.5,24.3" transform="translate(-0.2 -0.2)"/><path id="path12" class="cls-3" d="M45.3,10.8V9a.4.4,0,0,1,.4-.4h7.8a.4.4,0,0,1,.5.4v1.5a2.5,2.5,0,0,1-.6,1.1l-4.1,5.8a8.6,8.6,0,0,1,4.5,1,.8.8,0,0,1,.4.7v1.9c0,.3-.3.6-.6.4a9,9,0,0,0-8.3,0c-.3.1-.6-.1-.6-.4V19.2a2.1,2.1,0,0,1,.3-1.2l4.7-6.7H45.8a.4.4,0,0,1-.5-.4" transform="translate(-0.2 -0.2)"/><path id="path14" class="cls-3" d="M16.8,21.7H14.4a.4.4,0,0,1-.4-.4V9.1a.4.4,0,0,1,.5-.4h2.2a.4.4,0,0,1,.4.4v1.6h0a3.3,3.3,0,0,1,6.2,0,3.5,3.5,0,0,1,6-.9c.8,1,.6,2.5.6,3.8v7.7a.4.4,0,0,1-.5.4H27.2a.5.5,0,0,1-.4-.4V14.8a15.3,15.3,0,0,0-.1-2.3,1.2,1.2,0,0,0-1.4-1.1,1.6,1.6,0,0,0-1.4,1,7.4,7.4,0,0,0-.2,2.3v6.5a.4.4,0,0,1-.5.4H20.8a.5.5,0,0,1-.4-.4V14.8c0-1.4.2-3.4-1.5-3.4s-1.6,2-1.6,3.4v6.5a.4.4,0,0,1-.5.4" transform="translate(-0.2 -0.2)"/><path id="path16" class="cls-3" d="M60.8,8.4c3.5,0,5.4,3,5.4,6.9S64.1,22,60.8,22s-5.4-3-5.4-6.8,1.9-6.8,5.4-6.8m0,2.5c-1.8,0-1.9,2.4-1.9,3.9s0,4.7,1.8,4.7,1.9-2.6,1.9-4.1a11.3,11.3,0,0,0-.4-3.2,1.5,1.5,0,0,0-1.6-1.2" transform="translate(-0.2 -0.2)"/><path id="path18" class="cls-3" d="M70.8,21.7H68.5a.5.5,0,0,1-.4-.4V9a.5.5,0,0,1,.5-.4h2.2a.5.5,0,0,1,.4.3v1.9h0c.7-1.7,1.6-2.5,3.2-2.5a3.1,3.1,0,0,1,2.8,1.4,7.8,7.8,0,0,1,.6,3.8v7.7a.5.5,0,0,1-.5.4H75a.5.5,0,0,1-.4-.4V14.7c0-1.3.2-3.3-1.5-3.3a1.6,1.6,0,0,0-1.4,1,5.4,5.4,0,0,0-.4,2.3v6.6a.5.5,0,0,1-.5.4" transform="translate(-0.2 -0.2)"/><path id="path28" class="cls-3" d="M43.3,19.5a3.3,3.3,0,0,1-.9-2.2V13.5c0-1.6.1-3-1-4.1a5.4,5.4,0,0,0-3.6-1.2c-2.3,0-4.8.8-5.3,3.6a.4.4,0,0,0,.4.5l2.3.2a.5.5,0,0,0,.4-.4,1.8,1.8,0,0,1,1.9-1.4,1.6,1.6,0,0,1,1.3.6,3,3,0,0,1,.3,1.7v.3a16.5,16.5,0,0,0-4.5.8,4,4,0,0,0-2.5,3.9,3.4,3.4,0,0,0,3.6,3.7,4.7,4.7,0,0,0,3.9-1.7,5.8,5.8,0,0,0,1.4,1.6.5.5,0,0,0,.6-.1h0l1.8-1.6A.4.4,0,0,0,43.3,19.5Zm-4.7-1.1A1.9,1.9,0,0,1,37,19.5c-.9,0-1.5-.7-1.5-1.7s1.8-2.4,3.5-2.4v.5A4.7,4.7,0,0,1,38.6,18.4Z" transform="translate(-0.2 -0.2)"/><path id="path30" class="cls-3" d="M12.1,19.5a3.3,3.3,0,0,1-.9-2.2V13.5c0-1.6.1-3-1-4.1A5.4,5.4,0,0,0,6.6,8.3c-2.3,0-4.8.8-5.3,3.6a.4.4,0,0,0,.4.5l2.3.2a.5.5,0,0,0,.4-.4,1.8,1.8,0,0,1,1.9-1.4,1.6,1.6,0,0,1,1.3.6,3.1,3.1,0,0,1,.3,1.7v.3a16.5,16.5,0,0,0-4.5.8A4,4,0,0,0,.8,18.2a3.4,3.4,0,0,0,3.6,3.7,4.7,4.7,0,0,0,3.9-1.7,5.9,5.9,0,0,0,1.4,1.6.5.5,0,0,0,.6-.1h0l1.8-1.6A.4.4,0,0,0,12.1,19.5ZM7.4,18.4a1.9,1.9,0,0,1-1.6,1.1c-.9,0-1.4-.7-1.4-1.7s1.8-2.4,3.5-2.4v.5A4.7,4.7,0,0,1,7.4,18.4Z" transform="translate(-0.2 -0.2)"/></g></svg>