<?xml version="1.0" encoding="utf-8"?>
<!-- Generator: Adobe Illustrator 21.1.0, SVG Export Plug-In . SVG Version: 6.00 Build 0)  -->
<svg version="1.1"
	 id="Layer_1" xmlns:cc="http://creativecommons.org/ns#" xmlns:dc="http://purl.org/dc/elements/1.1/" xmlns:rdf="http://www.w3.org/1999/02/22-rdf-syntax-ns#"
	 xmlns="http://www.w3.org/2000/svg" xmlns:xlink="http://www.w3.org/1999/xlink" x="0px" y="0px" viewBox="0 0 117.9 171.1"
	 style="enable-background:new 0 0 117.9 171.1;" xml:space="preserve">
<style type="text/css">
	.st0{fill:#FAFAFA;}
	.st1{fill:#FCCC0F;}
	.st2{fill:none;stroke:#000000;stroke-width:0.3628;}
	.st3{fill:#162C77;}
	.st4{fill:#FFFFFF;}
	.st5{fill:none;stroke:#4C4C4C;stroke-width:0.3611;}
	.st6{fill:#E50F07;}
	.st7{fill:none;stroke:#000000;stroke-width:0.3611;}
	.st8{fill:none;stroke:#7F7F7F;stroke-width:0.3611;}
	.st9{fill:none;stroke:#8C8C8C;stroke-width:0.3611;stroke-linecap:round;}
	.st10{fill:#727272;}
	.st11{fill:none;stroke:#595959;stroke-width:0.3611;}
	.st12{fill:#4C4C4C;}
	.st13{fill:#F9DB11;}
	.st14{fill:none;stroke:#3F3F3F;stroke-width:0.3611;stroke-linecap:round;}
	.st15{fill:none;stroke:#727272;stroke-width:0.3611;stroke-linecap:round;}
	.st16{fill:#6B0000;}
</style>
<rect x="0.1" y="0.2" class="st0" width="118" height="171"/>
<g>
	<g transform="matrix(.99536 0 0 .99536 -11.636 328.83)">
		<path class="st1" d="M71.7-183.6c32.1-0.3,57.9-26.5,57.6-58.6c-0.3-32.1-26.5-57.9-58.6-57.6c-32.1,0.3-57.9,26.5-57.6,58.6
			C13.3-209.1,39.6-183.3,71.7-183.6L71.7-183.6z"/>
		<path class="st2" d="M71.7-183.6c32.1-0.3,57.9-26.5,57.6-58.6c-0.3-32.1-26.5-57.9-58.6-57.6c-32.1,0.3-57.9,26.5-57.6,58.6
			C13.3-209.1,39.6-183.3,71.7-183.6L71.7-183.6z"/>
		<path class="st3" d="M71.7-185.6c31-0.3,55.9-25.6,55.6-56.6c-0.3-31-25.6-55.9-56.6-55.6c-31,0.3-55.9,25.6-55.6,56.6
			C15.3-210.2,40.7-185.3,71.7-185.6L71.7-185.6z"/>
	</g>
	<path class="st4" d="M59.1,36.5l0,8.4l1.1,0l0-8.4L59.1,36.5L59.1,36.5z M65.1,36.6c-2.4,0-3.7,2-4,3.9c-0.1,0.9-0.2,2.3,0.9,3.7
		c0.4,0.5,1,1.1,2.4,1.2c1.1,0.1,2.2-0.3,2.9-1l0.1,1.1l0.7,0.1l0.5-4.5l-3.7-0.4l-0.1,1l2.6,0.3c-0.1,0.9-0.4,1.6-1.2,2.1
		c-0.7,0.4-1.3,0.4-1.8,0.3c-2.2-0.3-2.6-2.1-2.4-3.8c0.3-2.2,1.6-3.2,3.1-3c0.9,0.1,2.1,0.6,2.3,2l1.1,0.1c0-1.9-1.6-3-3.2-3.2
		C65.5,36.6,65.3,36.6,65.1,36.6L65.1,36.6z M53.9,36.7l-1.1,0.1l0.7,8.1l-0.2-0.8L49.1,45l-1.5-7.2L46.5,38l1.7,8.2l5.2-1.1l0,0
		l5.4-0.4l-0.1-1l-4.2,0.3C54.5,44.1,53.9,36.7,53.9,36.7z M71.4,37.8l-2.4,8l5.9,1.7l0.3-1l-4.8-1.4l0.8-2.7l4.4,1.3l0.3-1
		l-4.4-1.3l0.7-2.5l4.8,1.4l0.3-1L71.4,37.8L71.4,37.8z M45,38.4l-5.8,2l2.8,7.9l5.8-2.1l-0.3-0.9L42.8,47l-0.9-2.6l4.3-1.5
		l-0.3-0.9l-4.3,1.5L40.6,41l4.7-1.7L45,38.4L45,38.4z M79,40.1l-3.6,7.5l1,0.5l2.9-6.1l0,0l0.9,7.9l1.1,0.6L85,43l-1-0.5L81,48.7
		l0,0l-0.8-7.9C80.2,40.7,79,40.1,79,40.1z M38.2,40.9l-6,3.2l0.5,0.9l2.5-1.3l3.4,6.5l1-0.5l-3.4-6.5l2.5-1.3L38.2,40.9L38.2,40.9z
		 M31.2,44.6l-0.9,0.7l4,5.4l0,0l-7.4-3l-1.1,0.8l5,6.7l0.9-0.7l-4-5.4l0,0l7.4,2.9l1-0.8C36.2,51.3,31.2,44.6,31.2,44.6z
		 M87.5,45.2c-1.3,0-2.5,0.7-3.4,2.1c-1.9,2.6-1.1,4.7,0.5,5.8c0.5,0.4,2.7,1.7,4.9-0.6l-0.9-0.6c-1.4,1.4-2.7,0.9-3.3,0.5
		c-1.7-1.2-1.4-2.8-0.2-4.5c1.3-1.8,2.9-2,4.2-1.1c0.7,0.5,1.5,1.4,0.9,2.8l0.9,0.6c0.7-1.2,0.5-3-1.2-4.2
		C89,45.4,88.3,45.2,87.5,45.2z M93.7,49.2l-5.8,6l4.4,4.3l0.7-0.7l-3.6-3.5l2-2l3.3,3.2l0.7-0.7L92,52.6l1.8-1.8l3.6,3.5l0.7-0.7
		L93.7,49.2L93.7,49.2z M24.6,49.8l-0.8,0.8l5.7,6.2l0.8-0.8L24.6,49.8z M59.4,50.6c-0.4,0-1,0-2.2,0c0,0-7.4,1.1-1.6,5.4
		c2.2,1.7,1.5,3.7,1.5,3.7c0,1-2.8,2.7-3.9,3.8c-1.2,1.2-1.9,3.5-5.3,3.7l-0.1,0.1c0,0,2.8,1.9,4.5,0.8c0.4-0.3-2.6,1.9,0.7,0.5
		c0,0,0,0,0,0c-0.2,3.1,1,1.7,0.6,2.4c-0.4,0.7,3.5,1,2.5-1c0.4,0.5,0.9,0.9,1.4,1c1.4,0.4,2.1,0.4,1.8-0.9c0,0,0-0.1,0-0.2
		c0.2,0.1,0.5,0.3,0.8,0.4c0,0-0.9-1.9,0.1-2.6c1.7-1.1,0.7,2.5,3.9-0.4c0,0,0.4,0.9,0.8,1.2c-0.1,2.8,1,1.5,0.6,2.2
		c-0.4,0.7,3.5,1,2.5-1c0.4,0.5,0.9,0.9,1.4,1c1.4,0.4,2.1,0.4,1.8-0.9c-0.3-0.9-0.4-2.1-0.7-2.5c-0.3-1-1.1-1.2-1.8-1.6
		c-1-0.6-1.6-5.5-1.9-6.2c-0.6-1.3,0.2-1.6-0.5-4.9c-0.6-3.3-4.6-3.7-5.5-4C60,50.6,59.8,50.6,59.4,50.6L59.4,50.6z M17.9,57.1
		L17.2,58l6.3,5L15,61.3l-0.7,1.1l5.2,6.5c-0.1,0-0.3,0-0.4-0.1l-1.4-0.5c-1.1-0.4-1.5,0-1.8,0.3c-0.1-0.6-0.3-1.4-1.4-1.8
		c-1.6-0.7-2.6,0.4-3.1,1.7l-1.4,3.6l7.8,3.1l0.4-1.1l-3.3-1.3l1-2.5c0.5-1.3,1.3-1.1,1.9-0.8c0.3,0.1,1.5,0.6,2,0.6l0.4-0.9
		l0.5-0.8l-1.6-2l1.7-2.9l2.5,0.5l0.6-0.9l0.1,0.1l3.4-4.2l-0.8-0.6l-2.6,3.3C23.7,61.7,17.9,57.1,17.9,57.1z M102.6,59.5l-8.7,2
		l0.6,1l2.5-0.6l1.8,2.8l-1.6,2l0.7,1l5.3-7.1L102.6,59.5z M101.9,60.7L101.9,60.7l-2.4,3.1l-1.4-2.2L101.9,60.7z M15.7,62.5
		l3.8,0.8l-1.3,2.2L15.7,62.5C15.7,62.6,15.7,62.5,15.7,62.5z M103.5,65c-0.7,0-1.3,0.2-1.9,0.4c-0.8,0.4-2.1,1-2.7,2.6
		c-0.2,0.6-0.4,1.4,0.2,2.7c0.5,1,1.4,1.8,2.3,2l-0.9,0.7l0.3,0.7l4.1-1.8l-1.5-3.4l-0.9,0.4l1.1,2.4c-0.8,0.4-1.6,0.5-2.4,0.1
		c-0.7-0.4-1-1-1.2-1.3c-0.9-2,0.5-3.3,2-4c2-0.9,3.6-0.2,4.2,1.1c0.4,0.8,0.6,2.1-0.6,3l0.4,1c1.6-1,1.7-2.9,1.1-4.4
		C106.5,65.6,105,65,103.5,65z M57.3,67.6C57.3,67.6,57.4,67.6,57.3,67.6C57.3,67.6,57.3,67.6,57.3,67.6
		C57.2,67.6,57.3,67.6,57.3,67.6L57.3,67.6z M46.5,67.7c-0.1,0-0.2,0-0.2,0.1c-0.9,0.4-3.2-0.5-2,0.9c1.6,2-2.7-3-2.9,0.1
		c-0.2,3.1,1,1.7,0.6,2.4c-0.4,0.7,3.5,1,2.5-1c0.4,0.5,0.9,0.9,1.4,1c1.4,0.4,2.1,0.4,1.8-0.9C47.3,69.4,47.2,67.8,46.5,67.7
		L46.5,67.7z M13.5,67.8c0.2,0,0.4,0.1,0.6,0.1c1.1,0.5,1,1.4,0.7,2.1l-1,2.4l-2.6-1.1l1-2.6C12.4,68.4,12.7,67.8,13.5,67.8z
		 M67.7,68.5c0.3,0.4,0.2,0.3-0.1,0.1C67.6,68.5,67.6,68.5,67.7,68.5z M109.1,72.7l-8.1,2.1l1.5,6l1-0.3l-1.3-4.9l2.7-0.7l1.1,4.4
		l1-0.3l-1.1-4.4l2.5-0.6l1.2,4.8l1-0.3L109.1,72.7L109.1,72.7z M35.2,73c0.9,0.3,1.9,2.1,1.9,3l0.3,39.3c0,3.5,3.7,5.9,6.9,5.9h9
		c2.9,0,5,0.3,5.9,3.7c0.9-3.5,3-3.7,5.9-3.7h9c3.2,0,6.9-2.4,6.9-5.9L81.4,76c0-0.9,1-2.7,1.9-3H59.2H35.2L35.2,73z M9.5,73.3
		l-1.6,6.6l1,0.2l0.6-2.8l7.2,1.7L17,78l-7.2-1.7l0.6-2.8C10.5,73.5,9.5,73.3,9.5,73.3z M110.9,80.2l-8.3,0.8l0.1,1.1l6.7-0.7v0
		l-6.3,4.9l0.1,1.3l8.3-0.8l-0.1-1.1l-6.7,0.7l0,0l6.3-4.8L110.9,80.2L110.9,80.2z M7.8,81l-0.1,1.1l6.7,0.5l0,0l-7.1,3.6l-0.1,1.3
		l8.4,0.7l0.1-1.1l-6.7-0.5l0,0l7.1-3.7l0.1-1.3C16.1,81.6,7.8,81,7.8,81z M107,88.5c-2.8-0.1-4.1,1.6-4.2,3.3
		c-0.1,0.6-0.2,3.2,2.9,4l0.1-1.1c-1.9-0.6-2.1-1.9-2-2.6c0.2-2.1,1.8-2.6,3.7-2.4c2.2,0.2,3.2,1.6,3,3.1c-0.1,0.8-0.5,2-2,2.2
		l-0.1,1.1c1.4,0,2.9-1,3.1-3.2c0.2-2.4-1.4-4.1-3.9-4.3C107.4,88.6,107.2,88.5,107,88.5L107,88.5z M15.6,88.6l-1,0.1l0.4,5
		l-2.8,0.2l-0.3-4.6l-1,0.1l0.3,4.6l-2.6,0.2l-0.4-5l-1,0.1l0.5,6.1l8.4-0.6L15.6,88.6L15.6,88.6z M13.6,95.7c-0.2,0-0.4,0-0.6,0
		l0.3,1.1c2-0.1,2.6,1.1,2.8,1.8c0.5,2-0.8,3.1-2.8,3.5c-2.1,0.5-3.5-0.4-3.9-1.9c-0.2-0.8-0.2-2,1.2-2.7l-0.3-1.1
		c-1.3,0.5-2.4,1.9-1.9,4c0.6,2.4,2.6,3.4,5.1,2.8c3.1-0.7,3.9-2.8,3.5-4.7C17,98,16.3,95.7,13.6,95.7L13.6,95.7z M111,96.7l-5.6,2
		l-3.3-0.8l-0.3,1.1l3.3,0.8l4.2,4.2l0.3-1.3l-3.4-3.3l4.5-1.4L111,96.7L111,96.7z"/>
	<g>
		<path class="st5" d="M44.3,68.7c1.6,2-2.7-3-2.9,0.1c-0.2,3.1,1,1.7,0.6,2.4c-0.5,0.7,3.9,1,2.3-1.3c-1.6-2.3,0.2,1,1.6,1.4
			c1.4,0.4,2.1,0.4,1.8-0.9c-0.4-1.2-0.4-3.1-1.3-2.7C45.4,68.2,43.1,67.3,44.3,68.7L44.3,68.7z"/>
		<path class="st5" d="M55.7,68.5c1.6,2-2.7-3-2.9,0.1c-0.2,3.1,1,1.7,0.6,2.4c-0.5,0.7,3.9,1,2.3-1.3c-1.6-2.3,0.2,1,1.6,1.4
			c1.4,0.4,2.1,0.4,1.8-0.9c-0.4-1.2-0.4-3.1-1.3-2.7C56.8,67.9,54.6,67,55.7,68.5L55.7,68.5z"/>
		<path class="st5" d="M67.5,68.3c1.6,2-2.7-3-2.9,0.1c-0.2,3.1,1,1.7,0.6,2.4c-0.5,0.7,3.9,1,2.3-1.3c-1.6-2.3,0.2,1,1.6,1.4
			c1.4,0.4,2.1,0.4,1.8-0.9c-0.4-1.2-0.4-3.1-1.3-2.7C68.6,67.7,66.4,66.8,67.5,68.3L67.5,68.3z"/>
	</g>
	<path class="st6" d="M50,68.6c0.7,0.9,0.3,0.2-0.5-0.3c-0.9-0.7-2.3-1.2-2.4,0.5c-0.2,3.1,1,1.7,0.6,2.4c-0.5,0.7,3.9,1,2.3-1.3
		c-1.6-2.3,0.2,1,1.6,1.4c1.4,0.4,2.1,0.4,1.8-0.9c-0.4-1.2-0.4-3.1-1.3-2.7C51.1,68,48.9,67.1,50,68.6L50,68.6z"/>
	<path class="st7" d="M50,68.6c0.7,0.9,0.3,0.2-0.5-0.3c-0.9-0.7-2.3-1.2-2.4,0.5c-0.2,3.1,1,1.7,0.6,2.4c-0.5,0.7,3.9,1,2.3-1.3
		c-1.6-2.3,0.2,1,1.6,1.4c1.4,0.4,2.1,0.4,1.8-0.9c-0.4-1.2-0.4-3.1-1.3-2.7C51.1,68,48.9,67.1,50,68.6L50,68.6z"/>
	<path class="st6" d="M61.9,68.4c1.6,2-2.7-3-2.9,0.1c-0.2,3.1,1,1.7,0.6,2.4c-0.5,0.7,3.9,1,2.3-1.3c-1.6-2.3,0.2,1,1.6,1.4
		c1.4,0.4,2.1,0.4,1.8-0.9c-0.4-1.2-0.4-3.1-1.3-2.7C63,67.8,60.8,66.9,61.9,68.4L61.9,68.4z"/>
	<path class="st7" d="M61.9,68.4c1.6,2-2.7-3-2.9,0.1c-0.2,3.1,1,1.7,0.6,2.4c-0.5,0.7,3.9,1,2.3-1.3c-1.6-2.3,0.2,1,1.6,1.4
		c1.4,0.4,2.1,0.4,1.8-0.9c-0.4-1.2-0.4-3.1-1.3-2.7C63,67.8,60.8,66.9,61.9,68.4L61.9,68.4z"/>
	<path class="st6" d="M73.1,68.3c1.6,2-2.7-3-2.9,0.1c-0.2,3.1,1,1.7,0.6,2.4c-0.5,0.7,3.9,1,2.3-1.3c-1.6-2.3,0.2,1,1.6,1.4
		c1.4,0.4,2.1,0.4,1.8-0.9c-0.4-1.2-0.4-3.1-1.3-2.7C74.2,67.7,72,66.8,73.1,68.3L73.1,68.3z"/>
	<g>
		<path class="st7" d="M73.1,68.3c1.6,2-2.7-3-2.9,0.1c-0.2,3.1,1,1.7,0.6,2.4c-0.5,0.7,3.9,1,2.3-1.3c-1.6-2.3,0.2,1,1.6,1.4
			c1.4,0.4,2.1,0.4,1.8-0.9c-0.4-1.2-0.4-3.1-1.3-2.7C74.2,67.7,72,66.8,73.1,68.3L73.1,68.3z"/>
		<path class="st8" d="M47.7,67.3c0,0,2.8,1.9,4.5,0.8c0.4-0.3-2.9,2.1,1.1,0.3c2.9-1.3,0.6,3.8,3.4-0.2c1.4-1.9,0,1.2,3.1,2.3
			c0,0-0.9-1.9,0.1-2.6c1.7-1.1,0.7,2.5,3.9-0.4c0,0,0.8,1.8,1.4,1.1c0.6-0.7,0.4-0.9,1.2-0.6c0.7,0.3,0.7-0.3,2.3,0.1
			c0.9,0.2,0.6,0.3,1.7,0.9c0-2.3-1-2.6-2-3.1c-1-0.6-1.6-5.5-1.9-6.2c-0.6-1.3,0.2-1.6-0.5-4.9c-0.6-3.3-4.6-3.7-5.5-4
			c-0.9-0.2-0.9-0.1-3.4-0.1c0,0-7.4,1.1-1.6,5.4c2.2,1.7,1.5,3.7,1.5,3.7c0,1-2.8,2.7-3.9,3.8C51.8,64.7,51.1,67,47.7,67.3
			L47.7,67.3L47.7,67.3z"/>
		<g>
			<path class="st9" d="M56.8,54.5c0,0,0.4,0.6,0.9,0.8 M56.2,53.3c0.4,0.6,0.9,1,1.3,1.2"/>
			<path class="st9" d="M56.1,53.4c0.6,0.9,1.1,1.4,1.8,1.6"/>
			<path class="st9" d="M61.3,63.1c0.1,1.2,0.1,0.9,0.4,1.2c0.4,0.3,1.3-1.3,1.3-1.9"/>
			<path class="st9" d="M61.4,53.8c0.5,0.2,0.8,0.6,0.7,0.8 M62,53.4c0.5,0.1,0.7,0.2,0.7,0.6 M62.7,53.1c0.6,0,0.7,0.1,0.7,0.4"/>
			<path class="st9" d="M59.7,56.8c0.1-0.8-0.3,0.6,0.3,0.8"/>
			<path class="st9" d="M55.6,55.9c0.9,0.6,1.9,1.9,1.9,2.8 M56.5,56.1c0.4,0.4,1.1,1.1,1.2,1.5"/>
			<path class="st9" d="M62.5,57.2c0.1,1,0.1,0.9,0.7,1.3c0.6,0.4,0.8-1.2,0.6-2 M64.2,56.3c0.8,1.2,1.4,1.6,0.9-1.9 M64.7,58.4
				c0.3,1,1.2,1.1,0.6-1.1 M62.7,59.7c0.4,1.3,1.1-0.2,1-1.1 M63.4,60.4c-0.4-1.3,0.7,2.1,1-0.7 M60.7,62.2c0-1.1,0.5,1.7,0.9,1.1
				c0.1-0.1,0.2-0.5,0.3-1.2 M55.9,62.2c-0.1-1.7,0.4,3.1,1.5-0.6 M53.7,64.2c0.2-1-0.4,2.2,1.1-0.2 M58.1,64.4
				c-0.3-1.6-0.2,3.8,1.7,0 M55.8,66.3c-0.1-0.8,0.6,1.5,1.5-0.4 M63.7,63.6c0.7,1.6,1.3,1.7,1.7,0.2 M64.9,61.8
				c-0.3-1.8,0.8,3.3,1.3-0.3 M61.1,66c-0.2-1.8,0.6,4.6,1.6,0.5 M65.5,65c-0.6-1.7,1,2.9,1.5-0.8 M63.9,65.8
				c-0.6-1.6,1.1,3.2,1.6,0.4 M58.2,66.8c-0.4-1,0.2,2.3,1.3,0.1"/>
		</g>
	</g>
	<g>
		<path class="st10" d="M56,52.9c0,0.2-0.1,0.4-0.1,0.4s0.9,0,2,0.6c0.8,0.4,1.2-0.6,1.2-0.4c0-0.6,0-1,0.1-1.4c0,0-0.5,0-0.7,0
			c-0.6,0.1-0.4,0-0.8,0C57.9,52.2,56.2,51.9,56,52.9L56,52.9z"/>
		<path class="st1" d="M58,53.3c0.3,0,0.5-0.2,0.6-0.4c0.1-0.1,0.2-0.3,0.1-0.4c-0.1-0.1-0.5,0-0.7,0c-0.2,0-0.4,0-0.5,0.1
			c-0.1,0.1-0.1,0.2-0.1,0.3C57.3,53.2,57.6,53.3,58,53.3L58,53.3z"/>
		<path class="st1" d="M56.1,55.9c0.4,0.4,2.9,0.5,2.5,0.1c-0.4-0.3-1.3-0.4-1.5-0.9c0,0-1.6-2.7-3.4-3c-1.8-0.3-0.2-0.1-0.3-0.1
			c-0.8-0.1-1,0-1.2,0.2c-1.6,0.2-3.7-0.2-1.7,4.2c0.2,0.4-0.2-0.6,0.4-0.6C50.8,55.8,56,55.9,56.1,55.9L56.1,55.9z"/>
	</g>
	<path class="st11" d="M56.1,55.9c0.4,0.4,2.9,0.5,2.5,0.1c-0.4-0.3-1.3-0.4-1.5-0.9c0,0-1.6-2.7-3.4-3c-1.8-0.3-0.2-0.1-0.3-0.1
		c-0.8-0.1-1,0-1.2,0.2c-1.6,0.2-3.7-0.2-1.7,4.2c0.2,0.4-0.2-0.6,0.4-0.6C50.8,55.8,56,55.9,56.1,55.9L56.1,55.9z"/>
	<path class="st5" d="M58,56.2c-3.6-0.8-5.3-2.3-5.8-3.9 M50.6,56.5c0,0-0.1-1,0.4-1c0.4-0.1,1.2,0,4.6-0.2"/>
	<g>
		<path d="M58.1,53.1c0.1,0,0.2-0.1,0.2-0.2c0-0.1-0.1-0.2-0.2-0.2c-0.1,0-0.2,0.1-0.2,0.2C57.9,53,58,53.1,58.1,53.1z"/>
		<path class="st12" d="M53.8,53.2C53.8,53.2,53.8,53.3,53.8,53.2c0,0.2,0.1,0.2,0.1,0.3c0.1,0.1,0.1,0.2,0.2,0.3
			c0.2,0.2,0.4,0.5,0.5,0.6c0-0.2-0.3-0.6-0.5-0.7c-0.1-0.1-0.2-0.2-0.3-0.4c-0.1,0-0.2-0.1-0.2-0.2C53.7,53.1,53.8,53.1,53.8,53.2
			L53.8,53.2z"/>
		<path class="st13" d="M14.4,114.2c0,0,15,27.8,47.4,25.4c31.2-2.3,42-25.1,43-28.3c0.3-1,0.7-1.8-0.1-2.5c-1.6-1.4-6.2-2-7-2
			c-1.7,0.2-1.5,1.5-1.1,1.9c0.5,0.4,1.2,0.1,1,0.4c-8.6,18.5-29.3,22.8-35.7,23.1c0,0-26,3.7-40.6-21.5c0,0,2-3.4-1.4-3.3
			c-1.3,0-2.4,3.1-4.7,4C15.2,111.6,13.4,112.7,14.4,114.2L14.4,114.2z"/>
	</g>
	<path class="st14" d="M14.7,112c0,0,2.5,0,1.5,2.7c-0.4,1,2.4-3,5-3.7 M105,109.3c0,0-0.2-0.3-0.6-0.4c-0.5-0.1-1.3,0.4-1.2,1.4
		c0,0.2,0.2,0.4,0.2,0.4c1,0.7-2.3-1.3-5.9-1.6"/>
	<path class="st6" d="M95.8,114.9l-0.4,0.6l2.8,4l0.4-0.5l-0.8-1.1l1-1.5l1.3,0.4l0.4-0.6L95.8,114.9L95.8,114.9z M96.2,115.6l2,0.6
		l-0.8,1.2L96.2,115.6L96.2,115.6z M23,116.3l-2.3,2c-0.6,0.6-0.9,1.5-0.1,2.4c0.8,0.9,1.8,0.9,2.5,0.3l2.2-1.9l-0.4-0.5l-2.2,1.9
		c-0.7,0.6-1.4,0.3-1.7-0.1c-0.4-0.4-0.5-1,0.2-1.7l2.2-1.9L23,116.3z M94.4,117.6c-0.5,0-0.9,0.2-1.4,0.7c-0.9,1-0.6,2.2,0.4,3.1
		c1.3,1.1,2.5,0.8,3.2,0c0.2-0.3,1.1-1.4-0.1-2.7l-0.4,0.5c0.7,0.8,0.4,1.5,0.1,1.8c-0.7,0.9-1.6,0.6-2.4-0.1
		c-0.9-0.8-0.9-1.7-0.4-2.3c0.3-0.3,0.8-0.7,1.5-0.4l0.4-0.5C95.1,117.7,94.8,117.6,94.4,117.6L94.4,117.6z M25.9,119.7l-3.2,3.3
		l0.4,0.4l2.6-2.6l0,0l-0.9,4.2l0.5,0.5l3.2-3.3l-0.4-0.4l-2.6,2.6l0,0l0.9-4.2L25.9,119.7L25.9,119.7z M91.3,120.5l-0.4,0.4
		l3.2,3.2l0.4-0.4L91.3,120.5z M90.2,122.1c-0.4,0-0.7,0.2-1.1,0.5l-1.6,1.4l3,3.4L91,127l-1.3-1.5l1.1-1c0.6-0.5,0.9-0.2,1.1,0.1
		c0.1,0.1,0.6,0.6,0.8,0.8l0.6-0.5l-0.1-0.1c-0.2,0-0.3,0-0.5-0.2l-0.6-0.6c-0.4-0.5-0.7-0.4-1-0.3c0.1-0.3,0.2-0.7-0.2-1.2
		C90.8,122.2,90.5,122.1,90.2,122.1L90.2,122.1z M90.1,122.7c0.2,0,0.3,0.1,0.5,0.3c0.4,0.5,0.2,0.9-0.2,1.2l-1.1,0.9l-1-1.2l1.2-1
		C89.6,122.8,89.9,122.6,90.1,122.7L90.1,122.7z M29.1,122.7l-3,3.4l0.5,0.4l3-3.4L29.1,122.7z M29.9,123.4l-0.3,0.4l1.2,0.9
		l-2.4,3.2l0.5,0.4l2.4-3.2l1.2,0.9l0.3-0.4L29.9,123.4L29.9,123.4z M87,124.4l-2.7,1.9l2.6,3.7l2.7-1.9l-0.3-0.4l-2.2,1.6l-0.9-1.2
		l2-1.4l-0.3-0.4l-2,1.4l-0.8-1.1l2.2-1.5L87,124.4L87,124.4z M33,125.8l-2.5,3.8l2.8,1.8l0.3-0.5l-2.3-1.5l0.8-1.3l2.1,1.4l0.3-0.5
		l-2.1-1.4l0.8-1.2l2.3,1.5l0.3-0.5L33,125.8L33,125.8z M83.6,126.7l-0.8,0.4l0.7,4l0,0l-3-2.7l-0.8,0.4l2.2,4l0.5-0.3l-1.3-2.3
		c-0.1-0.1-0.4-0.6-0.6-1l0,0l3,2.7l0.5-0.3l-0.7-4l0,0c0.2,0.4,0.5,0.9,0.5,1l1.3,2.3l0.5-0.3L83.6,126.7L83.6,126.7z M36.4,128
		l-2.1,4l1.6,0.8c1.3,0.7,2.3-0.3,2.8-1.2c0.6-1.2,0.4-2.3-0.7-2.8L36.4,128z M36.7,128.7l1,0.5c0.7,0.4,0.9,1.1,0.4,2.2
		c-0.5,1-1.3,1.3-2,1l-1.1-0.6L36.7,128.7L36.7,128.7z M78,129.6l-0.6,0.3l0.2,4.8l0.6-0.2l-0.1-1.4l1.7-0.7l0.9,1l0.6-0.3L78,129.6
		L78,129.6z M77.9,130.3l1.4,1.6l-1.3,0.5L77.9,130.3L77.9,130.3L77.9,130.3z M42.2,130.8c-0.6,0-1.1,0.4-1.2,0.9
		c-0.3,0.7,0.3,1.2,0.5,1.3l0.8,0.5c0.6,0.4,0.8,0.6,0.6,1.1c-0.2,0.6-1,0.5-1.4,0.3c-0.5-0.2-1.1-0.7-0.8-1.4l-0.5-0.2
		c-0.1,0.4-0.2,0.8,0,1.2c0.1,0.2,0.3,0.6,1.1,0.9c0.7,0.3,1.8,0.3,2.1-0.7c0.3-0.7,0-1.2-0.5-1.5l-1.1-0.7
		c-0.2-0.2-0.4-0.4-0.3-0.7c0.2-0.6,0.9-0.5,1.2-0.4c0.5,0.2,0.9,0.6,0.7,1.3l0.5,0.2c0.2-0.5,0.3-1.4-1.2-2
		C42.7,130.8,42.4,130.8,42.2,130.8L42.2,130.8z M74,131.1l-3,0.9l1.3,4.4l0.6-0.2l-0.6-2l2.1-0.6l-0.2-0.5l-2.1,0.6l-0.4-1.3
		l2.4-0.7L74,131.1z M44.9,131.8l-0.1,0.5l1.5,0.4l-1,3.9l0.6,0.2l1-3.9l1.5,0.4l0.1-0.5L44.9,131.8z M68.8,132.4
		c-0.2,0-0.4,0-0.6,0.1c-1.7,0.3-1.9,1.8-1.7,2.8c0.2,1,1,2.2,2.6,1.9c1.7-0.3,1.9-1.8,1.7-2.8C70.7,133.5,70.1,132.4,68.8,132.4
		L68.8,132.4z M68.7,133c0.8,0,1.4,0.6,1.6,1.5c0.2,1-0.2,1.9-1.2,2.1c-1,0.2-1.7-0.5-1.9-1.5c-0.2-1,0.2-1.9,1.2-2.1
		C68.5,133,68.6,133,68.7,133L68.7,133z M50.1,133l-2.4,4.2l0.6,0.1l0.7-1.2l1.8,0.3l0.2,1.4l0.7,0.1l-0.9-4.8L50.1,133L50.1,133z
		 M62.4,133.3c-0.1,0-0.2,0-0.3,0c-1.1,0.1-1.5,0.8-1.4,1.5c0.1,0.8,0.8,0.9,1.1,1l0.9,0.1c0.8,0.1,1,0.2,1,0.7
		c0.1,0.7-0.7,0.8-1.1,0.9c-0.6,0.1-1.3-0.1-1.3-0.9l-0.6,0.1c0,0.4,0.1,0.8,0.6,1.1c0.2,0.2,0.6,0.4,1.4,0.3
		c0.8-0.1,1.7-0.5,1.6-1.5c-0.1-0.7-0.5-1-1.1-1.1l-1.3-0.2c-0.3,0-0.6-0.1-0.6-0.5c-0.1-0.7,0.6-0.9,1-0.9c0.5,0,1.1,0.1,1.2,0.8
		l0.6-0.1C63.9,134.2,63.7,133.3,62.4,133.3L62.4,133.3z M52.5,133.4l0,0.5l1.5,0.1l-0.3,4l0.6,0l0.3-4l1.5,0.1l0-0.5L52.5,133.4
		L52.5,133.4z M59.9,133.6l-3.3,0l0.1,4.5l3.3,0l0-0.5l-2.7,0l0-1.5l2.5,0l0-0.5l-2.5,0l0-1.4l2.7,0L59.9,133.6L59.9,133.6z
		 M50.3,133.7L50.3,133.7l0.3,2.1l-1.4-0.2L50.3,133.7z"/>
	<g>
		<path class="st9" d="M66.4,67.7c1.4,1.3,1.9,1.3,0.5-1.9L66.4,67.7z"/>
		<path class="st15" d="M59,52.4c-0.1,0,0.7,0.2,1.3-0.5 M58.9,52.2c-0.8,0.2,0.6,0.1,0.7-0.6"/>
		<path class="st9" d="M56,55.9c0.7,0.5,1.6,1.7,1.7,2.1"/>
		<path class="st9" d="M61.6,60.7c0-1,0.4,1,0.7,1.2c0.2,0.1,0.3-0.2,0.5-1.3"/>
	</g>
	<path class="st16" d="M72.8,91.8l-13.5,5.8l2.3,0.8L72.8,91.8L72.8,91.8z"/>
	<path class="st7" d="M72.8,91.8l-13.5,5.8l2.3,0.8L72.8,91.8L72.8,91.8z"/>
	<path class="st16" d="M53.4,84.1l5.9,13.4l0.8-2.3L53.4,84.1L53.4,84.1z"/>
	<path class="st7" d="M53.4,84.1l5.9,13.4l0.8-2.3L53.4,84.1L53.4,84.1z"/>
	<path class="st16" d="M65.1,111l-5.8-13.4l2.3,1L65.1,111L65.1,111z"/>
	<path class="st7" d="M65.1,111l-5.8-13.4l2.3,1L65.1,111L65.1,111z"/>
	<path class="st16" d="M45.7,103.1l13.6-5.6l-1.1,2.2L45.7,103.1L45.7,103.1z"/>
	<path class="st7" d="M45.7,103.1l13.6-5.6l-1.1,2.2L45.7,103.1L45.7,103.1z"/>
	<path class="st16" d="M65.1,84.1l-5.8,13.5l2.3-1L65.1,84.1L65.1,84.1z"/>
	<path class="st7" d="M65.1,84.1l-5.8,13.5l2.3-1L65.1,84.1L65.1,84.1z"/>
	<path class="st16" d="M72.8,103.3l-13.5-5.8l2.3-0.8L72.8,103.3L72.8,103.3z"/>
	<path class="st7" d="M72.8,103.3l-13.5-5.8l2.3-0.8L72.8,103.3L72.8,103.3z"/>
	<path class="st16" d="M53.3,110.9l6-13.4l0.8,2.3L53.3,110.9L53.3,110.9z"/>
	<path class="st7" d="M53.3,110.9l6-13.4l0.8,2.3L53.3,110.9L53.3,110.9z"/>
	<path class="st16" d="M45.8,91.8l13.5,5.8L57,98.4L45.8,91.8L45.8,91.8z"/>
	<path class="st7" d="M45.8,91.8l13.5,5.8L57,98.4L45.8,91.8L45.8,91.8z"/>
	<path class="st6" d="M45.8,103.2l13.5-5.6L57,96.7L45.8,103.2L45.8,103.2z"/>
	<path class="st7" d="M45.8,103.2l13.5-5.6L57,96.7L45.8,103.2L45.8,103.2z"/>
	<path class="st6" d="M65.1,111l-5.8-13.4l-0.8,2.3L65.1,111L65.1,111z"/>
	<path class="st7" d="M65.1,111l-5.8-13.4l-0.8,2.3L65.1,111L65.1,111z"/>
	<path class="st6" d="M53.4,84.1l5.8,13.4l-2.3-1L53.4,84.1L53.4,84.1z"/>
	<path class="st7" d="M53.4,84.1l5.8,13.4l-2.3-1L53.4,84.1L53.4,84.1z"/>
	<path class="st6" d="M72.8,91.8l-13.5,5.8l1-2.3L72.8,91.8L72.8,91.8z"/>
	<path class="st7" d="M72.8,91.8l-13.5,5.8l1-2.3L72.8,91.8L72.8,91.8z"/>
	<path class="st6" d="M45.8,91.8l13.5,5.8l-1-2.3L45.8,91.8L45.8,91.8z"/>
	<path class="st7" d="M45.8,91.8l13.5,5.8l-1-2.3L45.8,91.8L45.8,91.8z"/>
	<path class="st6" d="M53.3,111l6-13.4l-2.3,1L53.3,111L53.3,111z"/>
	<path class="st7" d="M53.3,111l6-13.4l-2.3,1L53.3,111L53.3,111z"/>
	<path class="st6" d="M72.8,103.3l-13.5-5.8l1,2.2L72.8,103.3L72.8,103.3z"/>
	<path class="st7" d="M72.8,103.3l-13.5-5.8l1,2.2L72.8,103.3L72.8,103.3z"/>
	<path class="st6" d="M65.1,84.1l-5.8,13.5l-0.8-2.3L65.1,84.1L65.1,84.1z"/>
	<path class="st7" d="M65.1,84.1l-5.8,13.5l-0.8-2.3L65.1,84.1L65.1,84.1z"/>
	<path class="st16" d="M71.2,86L59.3,97.6l2.8-0.1L71.2,86L71.2,86z"/>
	<path class="st7" d="M71.2,86L59.3,97.6l2.8-0.1L71.2,86L71.2,86z"/>
	<path class="st16" d="M70.9,109.4L59.3,97.6l2.8,0.2L70.9,109.4L70.9,109.4z"/>
	<path class="st7" d="M70.9,109.4L59.3,97.6l2.8,0.2L70.9,109.4L70.9,109.4z"/>
	<path class="st16" d="M47.2,109l12.1-11.4l-0.2,2.8L47.2,109L47.2,109z"/>
	<path class="st7" d="M47.2,109l12.1-11.4l-0.2,2.8L47.2,109L47.2,109z"/>
	<path class="st16" d="M47.7,85.7l11.6,11.9l-2.8-0.2L47.7,85.7L47.7,85.7z"/>
	<path class="st7" d="M47.7,85.7l11.6,11.9l-2.8-0.2L47.7,85.7L47.7,85.7z"/>
	<path class="st6" d="M47.7,85.7l11.6,11.9l-0.1-2.8L47.7,85.7L47.7,85.7z"/>
	<path class="st7" d="M47.7,85.7l11.6,11.9l-0.1-2.8L47.7,85.7L47.7,85.7z"/>
	<path class="st6" d="M47.2,109l12-11.4l-2.8,0.1L47.2,109L47.2,109z"/>
	<path class="st7" d="M47.2,109l12-11.4l-2.8,0.1L47.2,109L47.2,109z"/>
	<path class="st6" d="M70.9,109.4L59.3,97.6l0.1,2.8L70.9,109.4L70.9,109.4z"/>
	<path class="st7" d="M70.9,109.4L59.3,97.6l0.1,2.8L70.9,109.4L70.9,109.4z"/>
	<path class="st6" d="M71.2,86L59.3,97.6l0.2-2.8L71.2,86L71.2,86z"/>
	<path class="st7" d="M71.2,86L59.3,97.6l0.2-2.8L71.2,86L71.2,86z"/>
	<path class="st6" d="M39.7,97.7l19.5-0.2l-2.2-2.2L39.7,97.7L39.7,97.7z"/>
	<path class="st6" d="M59.4,117.1l-0.1-19.5L57,99.7L59.4,117.1L59.4,117.1z"/>
	<path class="st7" d="M59.4,117.1l-0.1-19.5L57,99.7L59.4,117.1L59.4,117.1z"/>
	<path class="st6" d="M59.2,78l0.1,19.5l-2.2-2.2L59.2,78L59.2,78z"/>
	<path class="st7" d="M59.2,78l0.1,19.5l-2.2-2.2L59.2,78L59.2,78z"/>
	<path class="st6" d="M78.8,97.4l-19.5,0.2l2.2-2.2L78.8,97.4L78.8,97.4z"/>
	<path class="st7" d="M78.8,97.4l-19.5,0.2l2.2-2.2L78.8,97.4L78.8,97.4z"/>
	<path class="st16" d="M59.2,78l0.1,19.5l2.2-2.2L59.2,78L59.2,78z"/>
	<path class="st7" d="M59.2,78l0.1,19.5l2.2-2.2L59.2,78L59.2,78z"/>
	<path class="st16" d="M59.4,117.1l-0.1-19.5l2.2,2.2L59.4,117.1L59.4,117.1z"/>
	<path class="st7" d="M59.4,117.1l-0.1-19.5l2.2,2.2L59.4,117.1L59.4,117.1z"/>
	<path class="st16" d="M39.7,97.7l19.5-0.2L57,99.7L39.7,97.7L39.7,97.7z"/>
	<path class="st7" d="M39.7,97.7l19.5-0.2L57,99.7L39.7,97.7L39.7,97.7z"/>
	<path class="st7" d="M39.7,97.7l19.5-0.2l-2.2-2.2L39.7,97.7L39.7,97.7z"/>
	<path class="st16" d="M78.8,97.4l-19.5,0.2l2.2,2.2L78.8,97.4L78.8,97.4z"/>
	<path class="st7" d="M78.8,97.4l-19.5,0.2l2.2,2.2L78.8,97.4L78.8,97.4z"/>
</g>
</svg>
