<?xml version="1.0" encoding="utf-8"?>
<!-- Generator: Adobe Illustrator 21.1.0, SVG Export Plug-In . SVG Version: 6.00 Build 0)  -->
<svg version="1.1" id="Layer_1" xmlns="http://www.w3.org/2000/svg" xmlns:xlink="http://www.w3.org/1999/xlink" x="0px" y="0px"
	 viewBox="0 0 104.6 118.1" style="enable-background:new 0 0 104.6 118.1;" xml:space="preserve">
<style type="text/css">
	.st0{fill:#4683B5;stroke:#FFFFFF;stroke-width:2.8902;stroke-miterlimit:10;}
</style>
<title>Child Support_Edit_svg</title>
<g>
	<path class="st0" d="M2.4,56.5C8,29.8,88.1,14.4,102.7,36.4c8,12.2-3.1,37.2-17.6,50.6c-3.5,3.3-12,10.9-25.3,13.1
		c-21.9,3.6-38.2-10.5-40.9-12.9C15.7,84.4-0.5,69.9,2.4,56.5z"/>
	<path class="st0" d="M-2.6,53.6c0.6-3.1,26.9,6,53.9-3.6c6.2-2.2,21.3-7.7,33.3-21.6c5.2-6,9.9-17.1,11.8-16.4
		c0.5,0.2,0.6,1.1,0.6,2.5c0,10.5-5.7,19.1-6.7,20.5c-2.3,3.3-4.8,6.3-7.6,9.1c-0.1,0.1-0.2,0.2-0.3,0.3c-0.1,0.1-0.2,0.3-0.3,0.5
		c0,0.1-0.1,0.2-0.1,0.3c0,0.1,0,0.2,0,0.4c0,0.3,1.4,17.8,15.1,25.2l0.2,0.1V71c0,0.1-0.1,0.3-0.2,0.5c0,0-0.1,0.3-0.3,0.6
		c-2.8,4.7-6.1,9.1-9.8,13c-3,3.2-6.3,5.9-10,8.2c-5.5,3.4-10.7,4.9-11.3,5.3c-0.1,0.1-0.2,0.1-0.3,0.1c0-0.1,0-0.2,0-0.3
		c0.3-1.3-4.7-39.1-5.3-40.5c-0.1-0.2-0.3-0.4-0.5-0.5c-0.2-0.1-0.4-0.1-0.6-0.1c-1.3,0.3-2.5,0.7-3.7,1.2c-1.3,0.5-3.9,1.2-5,1.7
		c-0.1,0.1-0.3,0.2-0.4,0.3c-0.2,0.4-0.3,0.8-0.1,1.2c0.7,2.9,10.7,35.6,12,37.2c0.2,0.1,0.2,0.4,0.2,0.6c-0.1,0.1-0.3,0.2-0.5,0.3
		c-3.8,0.8-7.7,1.1-11.6,1c-1.6-0.1-2.6-0.2-3.9-0.5c-3.8-0.6-7.4-1.6-11-2.9c-1.2-0.4-1.9-0.8-2.4-1.1c-0.3-0.1-0.5-0.3-1.9-1
		L28.3,94c-1.6-0.8-3.1-1.9-4.5-3c-0.1-0.1-0.1-0.2-0.1-0.3c0-0.1,0-0.2,0.1-0.3c0.2-0.4,6.8-17.6,1.2-27.2l-0.3-0.4
		c-0.1-0.2-0.3-0.3-0.5-0.4c-0.2-0.1-0.4-0.2-0.6-0.2h-0.1c-15.8-2.1-22-5.5-22-5.5C-1.3,55.1-2.8,54.3-2.6,53.6z"/>
	<ellipse transform="matrix(0.9856 -0.1692 0.1692 0.9856 -6.2065 6.4661)" class="st0" cx="34.8" cy="39.6" rx="8.3" ry="9.4"/>
	<ellipse transform="matrix(0.9854 -0.1702 0.1702 0.9854 -3.337 11.1121)" class="st0" cx="63.1" cy="25" rx="9.4" ry="10.5"/>
</g>
</svg>
