<svg id="Layer_1" data-name="Layer 1" xmlns="http://www.w3.org/2000/svg" viewBox="0 0 733.39 102.62"><defs><style>.cls-1,.cls-2{fill:#4683b5;stroke-miterlimit:10;}.cls-1{stroke:#fff;stroke-width:3px;}.cls-2{stroke:#4683b5;stroke-width:2px;}</style></defs><title>Child Support_Edit_svg</title><path class="cls-1" d="M64.43,100.2c5.9-27.74,89-43.76,104.11-20.87,8.33,12.65-3.2,38.57-18.29,52.52-3.66,3.38-12.45,11.3-26.26,13.6-22.72,3.78-39.64-10.86-42.44-13.37C78.27,129.15,61.47,114.09,64.43,100.2Z" transform="translate(-57.73 -52.43)"/><path class="cls-1" d="M59.24,97.12c0.58-3.25,27.88,6.19,55.92-3.69,6.4-2.26,22.07-8,34.55-22.45,5.38-6.24,10.25-17.8,12.21-17,0.5,0.2.61,1.1,0.61,2.61,0,10.87-5.94,19.85-6.94,21.32a72.08,72.08,0,0,1-7.93,9.49,2.17,2.17,0,0,0-.29.29,2.28,2.28,0,0,0-.32.51,2.16,2.16,0,0,0-.08.29,2.49,2.49,0,0,0,0,.38c0,0.27,1.48,18.47,15.7,26.15l0.17,0.09,0,0.09c0,0.12-.11.3-0.21,0.51,0,0-.15.32-0.33,0.63a75.85,75.85,0,0,1-10.19,13.53,52.76,52.76,0,0,1-10.41,8.53c-5.71,3.48-11.15,5.06-11.7,5.45a0.41,0.41,0,0,1-.32.12,0.37,0.37,0,0,1,0-.31c0.31-1.32-4.88-40.57-5.55-42a1.25,1.25,0,0,0-.47-0.53,1.09,1.09,0,0,0-.59-0.12,22.33,22.33,0,0,0-3.87,1.29c-1.38.55-4.08,1.28-5.23,1.76a1,1,0,0,0-.4.29,1.48,1.48,0,0,0-.12,1.23c0.71,3,11.07,37,12.43,38.57a0.72,0.72,0,0,1,.23.59,0.61,0.61,0,0,1-.47.26,49.27,49.27,0,0,1-12,1c-1.66-.15-2.66-0.22-4.1-0.47A63.89,63.89,0,0,1,98.1,142.5c-1.21-.46-2-0.8-2.54-1.09-0.3-.15-0.57-0.29-2-1.06l-2.19-1.21A26.15,26.15,0,0,1,86.7,136a0.59,0.59,0,0,1-.15-0.27,0.55,0.55,0,0,1,.06-0.34c0.23-.46,7.07-18.23,1.29-28.27l-0.26-.44a1.81,1.81,0,0,0-.47-0.41,1.79,1.79,0,0,0-.62-0.23H86.49c-16.39-2.18-22.81-5.69-22.81-5.69C60.63,98.71,59.1,97.88,59.24,97.12Z" transform="translate(-57.73 -52.43)"/><ellipse class="cls-1" cx="97.7" cy="82.27" rx="8.59" ry="9.68" transform="matrix(0.99, -0.17, 0.17, 0.99, -70.3, -34.6)"/><ellipse class="cls-1" cx="127.52" cy="67.49" rx="9.72" ry="10.95" transform="translate(-67.35 -29.74) rotate(-9.8)"/><path class="cls-2" d="M235.89,128.52a20.92,20.92,0,0,0,8.9-1.74,30.64,30.64,0,0,0,7.8-5.55l6.44,6.61q-9.41,10.43-22.85,10.43t-22.3-8.65Q205,121,205,107.75t9-22q9-8.82,22.81-8.82a29.83,29.83,0,0,1,23,10.18l-6.36,7a27.8,27.8,0,0,0-8-5.68,22.46,22.46,0,0,0-8.86-1.61,21.06,21.06,0,0,0-15.09,5.81,19.59,19.59,0,0,0-6.11,14.84,20.48,20.48,0,0,0,6.06,15.09A19.64,19.64,0,0,0,235.89,128.52Z" transform="translate(-57.73 -52.43)"/><path class="cls-2" d="M279.39,113.18V137.6h-9.5V74.76h9.5v25.95a15.06,15.06,0,0,1,6.15-6.53,17.43,17.43,0,0,1,8.86-2.37q7.63,0,12.34,4.66T311.44,110V137.6h-9.5V112.84q0-12.47-10.35-12.46a12.43,12.43,0,0,0-8.56,3.26Q279.39,106.9,279.39,113.18Z" transform="translate(-57.73 -52.43)"/><path class="cls-2" d="M325.26,83.5a5.94,5.94,0,1,1,4.24,1.78A5.79,5.79,0,0,1,325.26,83.5Zm8.9,54.1h-9.5V92.49h9.5V137.6Z" transform="translate(-57.73 -52.43)"/><path class="cls-2" d="M357.4,137.6h-9.5V74.68h9.5V137.6Z" transform="translate(-57.73 -52.43)"/><path class="cls-2" d="M374.61,131.83q-6.36-6.44-6.36-17t6.53-16.79a21.68,21.68,0,0,1,15.56-6.27,17.12,17.12,0,0,1,14.54,7.63V74.68h9.5V137.6h-9.5v-6.78q-5.26,7.46-15.35,7.46A20.3,20.3,0,0,1,374.61,131.83Zm3.14-16.58a14.12,14.12,0,0,0,4.15,10.56,13.49,13.49,0,0,0,9.75,4.07,12.6,12.6,0,0,0,9.5-4.11,14.72,14.72,0,0,0,3.9-10.56,15.49,15.49,0,0,0-3.9-10.77,12.41,12.41,0,0,0-9.58-4.32,12.93,12.93,0,0,0-9.75,4.32A15.16,15.16,0,0,0,377.75,115.25Z" transform="translate(-57.73 -52.43)"/><path class="cls-2" d="M470.64,86.13a13.13,13.13,0,0,0-7.17,1.78,6,6,0,0,0-2.8,5.38,6.26,6.26,0,0,0,2.8,5.51q2.8,1.91,11.91,4.11t13.74,6.19q4.62,4,4.62,11.74a15.56,15.56,0,0,1-5.85,12.59q-5.85,4.83-15.35,4.83a36,36,0,0,1-24.68-9.58l6.28-7.55q9,7.8,18.65,7.8a12.73,12.73,0,0,0,7.67-2.08,6.5,6.5,0,0,0,2.84-5.51,6.19,6.19,0,0,0-2.67-5.34q-2.67-1.91-9.2-3.48a82.31,82.31,0,0,1-9.92-2.88,22.35,22.35,0,0,1-6-3.43q-5.26-4-5.26-12.21t6-12.68q6-4.45,14.8-4.45a35.48,35.48,0,0,1,11.28,1.87A29.52,29.52,0,0,1,492,84l-5.34,7.55a20.22,20.22,0,0,0-7.12-3.9A27.45,27.45,0,0,0,470.64,86.13Z" transform="translate(-57.73 -52.43)"/><path class="cls-2" d="M535.8,116.91V92.49h9.5V137.6h-9.5v-8.23a17.11,17.11,0,0,1-15,8.9q-7.63,0-12.34-4.66t-4.71-13.48V92.49h9.5v24.76q0,12.46,10.34,12.46a12.43,12.43,0,0,0,8.56-3.26Q535.8,123.18,535.8,116.91Z" transform="translate(-57.73 -52.43)"/><path class="cls-2" d="M583.2,91.81a21.44,21.44,0,0,1,15.52,6.27q6.44,6.28,6.44,16.7t-6.4,17a20.27,20.27,0,0,1-14.92,6.53q-8.52,0-15.31-7.46V154H559V92.49h9.5v7.89Q574.13,91.81,583.2,91.81Zm-14.84,23.32a14.71,14.71,0,0,0,3.9,10.56,12.59,12.59,0,0,0,9.5,4.11,13.49,13.49,0,0,0,9.75-4.07,14.13,14.13,0,0,0,4.16-10.56,15,15,0,0,0-4.07-10.77,13,13,0,0,0-9.75-4.28,12.46,12.46,0,0,0-9.58,4.28A15.32,15.32,0,0,0,568.36,115.13Z" transform="translate(-57.73 -52.43)"/><path class="cls-2" d="M640.19,91.81a21.44,21.44,0,0,1,15.52,6.27q6.44,6.28,6.44,16.7t-6.4,17a20.27,20.27,0,0,1-14.92,6.53q-8.52,0-15.31-7.46V154H616V92.49h9.5v7.89Q631.11,91.81,640.19,91.81Zm-14.84,23.32a14.71,14.71,0,0,0,3.9,10.56,12.59,12.59,0,0,0,9.5,4.11,13.49,13.49,0,0,0,9.75-4.07,14.13,14.13,0,0,0,4.16-10.56,15,15,0,0,0-4.07-10.77,13,13,0,0,0-9.75-4.28,12.46,12.46,0,0,0-9.58,4.28A15.32,15.32,0,0,0,625.35,115.13Z" transform="translate(-57.73 -52.43)"/><path class="cls-2" d="M710.73,131.53a24.7,24.7,0,0,1-33.92,0,23.44,23.44,0,0,1,0-33,24.7,24.7,0,0,1,33.92,0A23.44,23.44,0,0,1,710.73,131.53Zm-27.18-5.85a14.75,14.75,0,0,0,20.44,0,16.07,16.07,0,0,0,0-21.28,14.75,14.75,0,0,0-20.44,0,14.57,14.57,0,0,0-4,10.64A14.56,14.56,0,0,0,683.56,125.68Z" transform="translate(-57.73 -52.43)"/><path class="cls-2" d="M751.94,101.39q-7,0-10.6,4.58t-3.56,12.3V137.6h-9.5V92.49h9.5v9.07a19.66,19.66,0,0,1,6.23-7,15,15,0,0,1,8.35-2.8l0.08,9.58h-0.51Z" transform="translate(-57.73 -52.43)"/><path class="cls-2" d="M773.65,100.12V123a7.44,7.44,0,0,0,1.7,5.13,6,6,0,0,0,4.75,1.91q3.05,0,5.85-3l3.9,6.7a16.19,16.19,0,0,1-11.07,4.49,14.24,14.24,0,0,1-10.34-4.2q-4.28-4.2-4.28-11.32V100.12h-5.68V92.49h5.68V78.33h9.5V92.49h11.87v7.63H773.65Z" transform="translate(-57.73 -52.43)"/></svg>