<?xml version="1.0" encoding="utf-8"?>
<!-- Generator: Adobe Illustrator 21.1.0, SVG Export Plug-In . SVG Version: 6.00 Build 0)  -->
<svg version="1.1" id="Layer_1" xmlns="http://www.w3.org/2000/svg" xmlns:xlink="http://www.w3.org/1999/xlink" x="0px" y="0px"
	 viewBox="0 0 2500 673.8" style="enable-background:new 0 0 2500 673.8;" xml:space="preserve">
<style type="text/css">
	.st0{fill:#225C97;}
	.st1{fill:#5E6783;}
	.st2{fill:#3D80C0;}
</style>
<g>
	<path class="st0" d="M2463.2,365.8c0-60.7-100.2-104.5-271-118.6V267c62.1,5.6,221.6,32.5,221.6,80.5c0,42.4-158.1,77.6-330.3,77.6
		c-220.2,0-331.7-53.6-345.8-87.5h-7v28.2c0,36.7,35.3,76.2,115.7,101.6c50.8,103,158.1,175,279.5,175
		c83.1,0.2,162.9-32.8,221.6-91.7l-14.1-14.1c-45.2,35.3-98.8,52.2-156.7,52.2c-80.5,0-153.9-36.7-200.4-96
		c35.3,4.2,76.2,5.7,121.4,5.7C2360.2,498.5,2463.2,429.3,2463.2,365.8L2463.2,365.8z"/>
	<path class="st1" d="M2097.7,156.9c-42.4,0-81.9,1.4-118.6,5.6c48-56.5,118.6-91.7,197.6-91.7c57.9,0,111.5,16.9,156.7,52.2
		l14.1-14.1c-59.2-58-138.8-90.4-221.6-90.3c-118.6,0-223,66.3-275.3,165.1c-77.6,21.2-120,53.6-120,86.1
		c0,53.6,90.3,83.3,190.5,98.8c-1.4-8.5-2.8-15.5-2.8-24c0-5.7-1.4-9.9-1.4-14.1c0-39.5,9.9-77.6,25.4-110.1
		c53.6-7.1,114.3-9.9,168-9.9c218.8,0,334.5,55,345.8,86.1h7.1v-16.9C2463.2,219,2326.3,156.9,2097.7,156.9L2097.7,156.9z
		 M1823.8,315c-22.6-9.9-36.7-24-36.7-38.1c0-16.9,18.4-29.6,49.4-40.9C1829.4,261.8,1825.2,288.3,1823.8,315z"/>
	<path class="st2" d="M2097.7,156.9c-42.4,0-81.9,1.4-118.6,5.6c48-56.5,118.6-91.7,197.6-91.7c57.9,0,111.5,16.9,156.7,52.2
		l14.1-14.1c-59.2-58-138.8-90.4-221.6-90.3c-118.6,0-223,66.3-275.3,165.1c-77.6,21.2-120,53.6-120,86.1
		c0,53.6,90.3,83.3,190.5,98.8c-1.4-8.5-2.8-15.5-2.8-24c0-5.7-1.4-9.9-1.4-14.1c0-39.5,9.9-77.6,25.4-110.1
		c53.6-7.1,114.3-9.9,168-9.9c218.8,0,334.5,55,345.8,86.1h7.1v-16.9C2463.2,219,2326.3,156.9,2097.7,156.9L2097.7,156.9z
		 M1823.8,315c-22.6-9.9-36.7-24-36.7-38.1c0-16.9,18.4-29.6,49.4-40.9C1829.4,261.8,1825.2,288.3,1823.8,315z"/>
	<path class="st0" d="M329,179.5c0,43.8-1.4,53.6-9.9,63.5c-5.7,7.1-14.1,12.7-25.4,12.7c-9.9,0-19.8-5.7-25.4-12.7
		c-7.1-9.9-9.9-19.8-9.9-63.5c0-43.8,2.8-53.6,9.9-63.5c5.6-7.1,15.5-11.3,25.4-11.3c11.3,0,19.8,4.2,25.4,11.3
		C327.6,125.9,329,135.8,329,179.5z M369.9,179.5c0-39.5,0-67.8-21.2-90.3c-14.1-15.5-31.1-24-55-24c-22.6,0-40.9,8.5-55.1,24
		c-19.8,22.6-19.8,50.8-19.8,90.3s0,67.8,19.8,90.3c14.1,15.5,32.5,24,55.1,24c24,0,40.9-8.5,55-24
		C369.9,247.3,369.9,219,369.9,179.5z M1161.8,502.8c0,42.4-2.8,53.6-9.9,63.5c-5.7,7.1-15.5,11.3-25.4,11.3
		c-11.3,0-19.8-4.2-25.4-11.3c-8.5-9.9-9.9-21.2-9.9-63.5c0-43.8,1.4-55,9.9-63.5c5.7-7,14.1-12.7,25.4-12.7
		c9.9,0,19.8,5.7,25.4,12.7C1159,447.7,1161.8,459,1161.8,502.8L1161.8,502.8z M1201.3,502.8c0-39.5,0-67.8-19.8-90.3
		c-15.5-15.5-32.5-25.4-55.1-25.4c-24,0-40.9,9.9-55,25.4c-21.2,22.6-19.8,50.8-19.8,90.3c0,38.1-1.4,66.3,19.8,88.9
		c14.1,17,31,25.4,55,25.4c22.6,0,39.5-8.5,55.1-25.4C1201.3,569.1,1201.3,540.9,1201.3,502.8L1201.3,502.8z M1036.2,106.1V66.6
		H902.1v203.3c0,12.7,11.3,22.6,24,22.6h110.1v-39.5h-94.6v-55h80.5v-39.5h-80.5v-52.2H1036.2z M1589.5,106.1V66.6h-132.7v201.8
		c0,14.1,9.9,24,22.6,24h110.1v-39.5h-93.1v-55h80.5v-39.5h-80.5v-52.2H1589.5L1589.5,106.1z M1589.5,429.3v-39.5h-132.7v201.8
		c0,12.7,9.9,24,22.6,24h110.1v-39.5h-93.1v-55h80.5v-39.5h-80.5v-52.2L1589.5,429.3L1589.5,429.3z M1190,195
		c19.8-7.1,36.7-26.8,36.7-59.3c0-38.1-24-69.2-66.3-69.2h-60.7c-10.1,0.2-18.2,8.3-18.4,18.4v207.5h39.5v-90.3h28.2l39.5,90.3h46.6
		L1190,195z M1159,165.4h-38.1v-59.3h38.1c16.9,0,28.2,12.7,28.2,29.6C1187.2,154.1,1175.9,165.4,1159,165.4L1159,165.4z
		 M1288.8,398.3c-2.8-5.7-9.9-8.5-15.5-8.5h-7c-9.9,0-18.4,7.1-18.4,18.3v206.1h39.5V475.9l74.8,129.9c2.8,5.6,9.9,8.5,15.5,8.5h7
		c9.9,0,18.4-7.1,18.4-18.3V388.4h-39.5v138.3L1288.8,398.3z M554.8,73.6c2.8-7.1,7.1-7.1,15.5-7.1h16.9
		c10.1,0.2,18.2,8.3,18.4,18.4v207.5h-39.5V144.2L528,243c-2.8,5.7-8.5,11.3-16.9,11.3h-1.4c-8.5,0-14.1-5.6-16.9-12.7l-38.1-97.4
		v148.2h-39.5V84.9c0.2-10.1,8.3-18.2,18.4-18.4h18.4c7.1,0,12.7,0,15.5,7.1L511.1,195L554.8,73.6z M799,73.6
		c2.8-7.1,7.1-7.1,15.5-7.1h16.9c10.1,0.2,18.2,8.3,18.4,18.4v207.5h-39.5V144.2L772.2,243c-2.8,5.7-8.5,11.3-16.9,11.3h-1.4
		c-8.5,0-14.1-5.6-16.9-12.7l-38.1-97.4v148.2h-39.5V84.9c0.2-10.1,8.3-18.2,18.4-18.4h16.9c8.5,0,12.7,0,15.5,7.1L755.3,195
		L799,73.6L799,73.6z M111.6,293.8c-22.6,0-40.9-8.5-55-24c-21.2-22.6-19.8-50.8-19.8-90.3s-1.4-67.8,19.8-90.3
		c14.1-15.5,32.5-24,55-24c38.1,0,67.8,24,74.8,70.6h-40.9c-4.2-18.4-14.1-31.1-33.9-31.1c-11.3,0-19.8,4.2-25.4,11.3
		c-7.1,9.9-9.9,19.8-9.9,63.5s2.8,53.6,9.9,63.5c5.7,7.1,14.1,12.7,25.4,12.7c19.8,0,29.6-14.1,33.9-32.5h40.9
		C179.4,269.8,148.3,293.8,111.6,293.8L111.6,293.8z M1341,293.8c-22.6,0-40.9-8.5-55-24c-19.8-22.6-19.8-50.8-19.8-90.3
		s0-67.8,19.8-90.3c14.1-15.5,32.5-24,55-24c38.1,0,67.8,24,74.8,70.6h-39.5c-4.2-18.4-15.5-31.1-35.3-31.1
		c-9.9,0-19.8,4.2-25.4,11.3c-7.1,9.9-9.9,19.8-9.9,63.5s2.8,53.6,9.9,63.5c5.7,7.1,15.5,12.7,25.4,12.7c19.8,0,31.1-14.1,35.3-32.5
		h39.5C1408.8,269.8,1379.2,293.8,1341,293.8L1341,293.8z"/>
	<path class="st0" d="M1644.5,586c0-15.5,11.3-28.2,26.8-28.2c15.5,0,26.8,12.7,26.8,28.2c0,15.5-11.3,28.2-26.8,28.2
		C1655.8,614.3,1644.5,601.5,1644.5,586L1644.5,586z M1671.3,619.9c18.4,0,33.9-14.1,33.9-33.9c0-19.8-15.5-33.9-33.9-33.9
		c-18.3,0-33.9,14.1-33.9,33.9C1637.5,605.8,1653,619.9,1671.3,619.9z M1664.3,588.9h7l9.9,17h7.1l-11.3-17
		c5.7-1.4,9.9-4.2,9.9-11.3c0-7-4.2-11.3-14.1-11.3h-14.1v39.5h5.7L1664.3,588.9L1664.3,588.9L1664.3,588.9z M1664.3,583.2v-11.3
		h8.5c4.2,0,8.5,0,8.5,5.7s-4.2,5.7-9.9,5.7L1664.3,583.2L1664.3,583.2L1664.3,583.2z"/>
</g>
</svg>
