<?xml version="1.0" encoding="utf-8"?>
<!-- Generator: Adobe Illustrator 21.1.0, SVG Export Plug-In . SVG Version: 6.00 Build 0)  -->
<svg version="1.1" id="Layer_1" xmlns="http://www.w3.org/2000/svg" xmlns:xlink="http://www.w3.org/1999/xlink" x="0px" y="0px"
	 viewBox="0 0 1303.1 647.4" style="enable-background:new 0 0 1303.1 647.4;" xml:space="preserve">
<style type="text/css">
	.st0{fill:#FAFAFA;}
	.st1{fill:#225C97;}
	.st2{fill:#5E6783;}
	.st3{fill:#3D80C0;}
</style>
<rect x="0.9" y="0" class="st0" width="1302.2" height="647.3"/>
<g>
	<path class="st1" d="M1299.4,353.9c0-32.4-53.5-55.8-144.6-63.3v10.6c33.1,3,118.3,17.3,118.3,43c0,22.6-84.4,41.4-176.3,41.4
		c-117.5,0-177-28.6-184.5-46.7h-3.7v15c0,19.6,18.8,40.7,61.7,54.2c27.1,55,84.4,93.4,149.1,93.4c44.3,0.1,86.9-17.5,118.3-48.9
		l-7.5-7.5c-24.1,18.8-52.7,27.9-83.6,27.9c-43,0-82.1-19.6-106.9-51.2c18.8,2.2,40.7,3,64.8,3
		C1244.4,424.7,1299.4,387.8,1299.4,353.9L1299.4,353.9z"/>
	<path class="st2" d="M1104.3,242.4c-22.6,0-43.7,0.7-63.3,3c25.6-30.1,63.3-48.9,105.4-48.9c30.9,0,59.5,9,83.6,27.9l7.5-7.5
		c-31.6-31-74.1-48.2-118.3-48.2c-63.3,0-119,35.4-146.9,88.1c-41.4,11.3-64,28.6-64,45.9c0,28.6,48.2,44.5,101.7,52.7
		c-0.7-4.5-1.5-8.3-1.5-12.8c0-3-0.7-5.3-0.7-7.5c0-21.1,5.3-41.4,13.6-58.8c28.6-3.8,61-5.3,89.6-5.3
		c116.8,0,178.5,29.3,184.5,45.9h3.8v-9C1299.4,275.5,1226.3,242.4,1104.3,242.4L1104.3,242.4z M958.2,326.8
		c-12.1-5.3-19.6-12.8-19.6-20.3c0-9,9.8-15.8,26.4-21.8C961.2,298.4,958.9,312.5,958.2,326.8z"/>
	<path class="st3" d="M1104.3,242.4c-22.6,0-43.7,0.7-63.3,3c25.6-30.1,63.3-48.9,105.4-48.9c30.9,0,59.5,9,83.6,27.9l7.5-7.5
		c-31.6-31-74.1-48.2-118.3-48.2c-63.3,0-119,35.4-146.9,88.1c-41.4,11.3-64,28.6-64,45.9c0,28.6,48.2,44.5,101.7,52.7
		c-0.7-4.5-1.5-8.3-1.5-12.8c0-3-0.7-5.3-0.7-7.5c0-21.1,5.3-41.4,13.6-58.8c28.6-3.8,61-5.3,89.6-5.3
		c116.8,0,178.5,29.3,184.5,45.9h3.8v-9C1299.4,275.5,1226.3,242.4,1104.3,242.4L1104.3,242.4z M958.2,326.8
		c-12.1-5.3-19.6-12.8-19.6-20.3c0-9,9.8-15.8,26.4-21.8C961.2,298.4,958.9,312.5,958.2,326.8z"/>
	<path class="st1" d="M160.5,254.5c0,23.4-0.7,28.6-5.3,33.9c-3,3.8-7.5,6.8-13.6,6.8c-5.3,0-10.6-3-13.6-6.8
		c-3.8-5.3-5.3-10.6-5.3-33.9c0-23.4,1.5-28.6,5.3-33.9c3-3.8,8.3-6,13.6-6c6,0,10.6,2.2,13.6,6
		C159.8,225.9,160.5,231.1,160.5,254.5z M182.3,254.5c0-21.1,0-36.2-11.3-48.2c-7.5-8.3-16.6-12.8-29.3-12.8
		c-12.1,0-21.8,4.5-29.4,12.8c-10.6,12.1-10.6,27.1-10.6,48.2s0,36.2,10.6,48.2c7.5,8.3,17.3,12.8,29.4,12.8
		c12.8,0,21.8-4.5,29.3-12.8C182.3,290.6,182.3,275.5,182.3,254.5z M604.9,427c0,22.6-1.5,28.6-5.3,33.9c-3,3.8-8.3,6-13.6,6
		c-6,0-10.6-2.2-13.6-6c-4.5-5.3-5.3-11.3-5.3-33.9c0-23.4,0.7-29.3,5.3-33.9c3-3.7,7.5-6.8,13.6-6.8c5.3,0,10.6,3,13.6,6.8
		C603.4,397.6,604.9,403.6,604.9,427L604.9,427z M626,427c0-21.1,0-36.2-10.6-48.2c-8.3-8.3-17.3-13.6-29.4-13.6
		c-12.8,0-21.8,5.3-29.3,13.6c-11.3,12.1-10.6,27.1-10.6,48.2c0,20.3-0.7,35.4,10.6,47.4c7.5,9.1,16.5,13.6,29.3,13.6
		c12.1,0,21.1-4.5,29.4-13.6C626,462.4,626,447.3,626,427L626,427z M537.9,215.3v-21.1h-71.6v108.5c0,6.8,6,12.1,12.8,12.1h58.8
		v-21.1h-50.5v-29.3h43v-21.1h-43v-27.9h50.5V215.3z M833.2,215.3v-21.1h-70.8v107.7c0,7.5,5.3,12.8,12.1,12.8h58.8v-21.1h-49.7
		v-29.3h43v-21.1h-43v-27.9L833.2,215.3L833.2,215.3z M833.2,387.8v-21.1h-70.8v107.7c0,6.8,5.3,12.8,12.1,12.8h58.8v-21.1h-49.7
		v-29.3h43v-21.1h-43v-27.9L833.2,387.8L833.2,387.8z M620,262.7c10.6-3.8,19.6-14.3,19.6-31.6c0-20.3-12.8-36.9-35.4-36.9h-32.4
		c-5.4,0.1-9.7,4.4-9.8,9.8v110.7H583v-48.2h15l21.1,48.2H644L620,262.7z M603.4,246.9h-20.3v-31.6h20.3c9,0,15,6.8,15,15.8
		C618.5,240.9,612.4,246.9,603.4,246.9L603.4,246.9z M672.7,371.2c-1.5-3-5.3-4.5-8.3-4.5h-3.7c-5.3,0-9.8,3.8-9.8,9.8v110h21.1
		v-73.8l39.9,69.3c1.5,3,5.3,4.5,8.3,4.5h3.7c5.3,0,9.8-3.8,9.8-9.8V365.9h-21.1v73.8L672.7,371.2z M281,197.9
		c1.5-3.8,3.8-3.8,8.3-3.8h9c5.4,0.1,9.7,4.4,9.8,9.8v110.7H287v-79.1l-20.3,52.7c-1.5,3-4.5,6-9,6h-0.7c-4.5,0-7.5-3-9-6.8
		l-20.3-52v79.1h-21.1V204c0.1-5.4,4.4-9.7,9.8-9.8h9.8c3.8,0,6.8,0,8.3,3.8l23.3,64.8L281,197.9z M411.3,197.9
		c1.5-3.8,3.8-3.8,8.3-3.8h9c5.4,0.1,9.7,4.4,9.8,9.8v110.7h-21.1v-79.1L397,288.3c-1.5,3-4.5,6-9,6h-0.7c-4.5,0-7.5-3-9-6.8
		l-20.3-52v79.1h-21.1V204c0.1-5.4,4.4-9.7,9.8-9.8h9c4.5,0,6.8,0,8.3,3.8l24.1,64.8L411.3,197.9L411.3,197.9z M44.5,315.5
		c-12.1,0-21.8-4.5-29.3-12.8C3.8,290.6,4.6,275.5,4.6,254.5s-0.7-36.2,10.6-48.2c7.5-8.3,17.3-12.8,29.3-12.8
		c20.3,0,36.2,12.8,39.9,37.7H62.6c-2.2-9.8-7.5-16.6-18.1-16.6c-6,0-10.6,2.2-13.6,6c-3.8,5.3-5.3,10.6-5.3,33.9s1.5,28.6,5.3,33.9
		c3,3.8,7.5,6.8,13.6,6.8c10.6,0,15.8-7.5,18.1-17.3h21.8C80.7,302.6,64.1,315.5,44.5,315.5L44.5,315.5z M700.6,315.5
		c-12.1,0-21.8-4.5-29.3-12.8c-10.6-12.1-10.6-27.1-10.6-48.2s0-36.2,10.6-48.2c7.5-8.3,17.3-12.8,29.3-12.8
		c20.3,0,36.2,12.8,39.9,37.7h-21.1c-2.2-9.8-8.3-16.6-18.8-16.6c-5.3,0-10.6,2.2-13.6,6c-3.8,5.3-5.3,10.6-5.3,33.9
		s1.5,28.6,5.3,33.9c3,3.8,8.3,6.8,13.6,6.8c10.6,0,16.6-7.5,18.8-17.3h21.1C736.7,302.6,720.9,315.5,700.6,315.5L700.6,315.5z"/>
	<path class="st1" d="M862.5,471.4c0-8.3,6-15,14.3-15c8.3,0,14.3,6.8,14.3,15s-6,15-14.3,15C868.5,486.5,862.5,479.6,862.5,471.4
		L862.5,471.4z M876.8,489.5c9.8,0,18.1-7.5,18.1-18.1c0-10.6-8.3-18.1-18.1-18.1c-9.8,0-18.1,7.5-18.1,18.1
		C858.8,481.9,867,489.5,876.8,489.5z M873.1,472.9h3.7l5.3,9.1h3.8l-6-9.1c3-0.7,5.3-2.2,5.3-6c0-3.7-2.2-6-7.5-6h-7.5v21.1h3
		L873.1,472.9L873.1,472.9L873.1,472.9z M873.1,469.9v-6h4.5c2.2,0,4.5,0,4.5,3s-2.2,3-5.3,3L873.1,469.9L873.1,469.9L873.1,469.9z"
		/>
</g>
</svg>
