<?xml version="1.0" encoding="utf-8"?>
<!-- Generator: Adobe Illustrator 21.1.0, SVG Export Plug-In . SVG Version: 6.00 Build 0)  -->
<svg version="1.1" id="Layer_1" xmlns="http://www.w3.org/2000/svg" xmlns:xlink="http://www.w3.org/1999/xlink" x="0px" y="0px"
	 viewBox="0 0 305.2 171.1" style="enable-background:new 0 0 305.2 171.1;" xml:space="preserve">
<style type="text/css">
	.st0{fill:#FAFAFA;}
	.st1{fill:#00A6E2;}
	.st2{fill:#88BD45;}
	.st3{fill:#777874;}
</style>
<rect x="0" y="0" class="st0" width="305" height="171"/>
<g>
	<path class="st1" d="M2,58.1h26.8v6.4H9.4v11.4h18.3v6.2H9.4v17.4H2V58.1z M31.7,71.4h6.8v4.7h0.1c0.7-1.6,1.9-3,3.3-4
		c1.4-1,3.2-1.6,4.9-1.5h0.9c0.3,0,0.6,0.1,0.8,0.1v6.5c-0.4-0.1-0.8-0.2-1.2-0.2c-0.3,0-0.6-0.1-1-0.1c-1.3-0.1-2.7,0.2-3.9,0.9
		c-0.9,0.5-1.7,1.2-2.3,2.1c-0.5,0.8-0.9,1.6-1.1,2.5c-0.2,0.7-0.3,1.3-0.4,2v15h-7L31.7,71.4z M77.2,85.8v0.9c0,0.3,0,0.6-0.1,0.9
		H55.7c0.1,1,0.3,1.9,0.8,2.8c0.4,0.8,1,1.6,1.8,2.2c0.8,0.6,1.6,1.1,2.5,1.4c0.9,0.4,1.9,0.5,2.9,0.5c1.5,0,3.1-0.3,4.5-1
		c1.2-0.6,2.2-1.5,3-2.7l4.7,3.8c-2.8,3.8-6.8,5.6-12.1,5.6c-2,0-4.1-0.3-6-1c-1.8-0.6-3.4-1.6-4.8-2.9c-1.4-1.3-2.5-2.9-3.2-4.6
		c-0.8-2-1.2-4.1-1.1-6.2c0-2.1,0.4-4.2,1.1-6.2c1.4-3.6,4.3-6.4,7.9-7.8c1.9-0.7,3.9-1.1,5.9-1.1c1.9,0,3.7,0.3,5.4,1
		c1.6,0.6,3.1,1.6,4.3,2.9c1.3,1.4,2.2,3,2.8,4.7C76.9,81.3,77.2,83.5,77.2,85.8z M70.2,82.7c0-0.9-0.1-1.7-0.4-2.6
		c-0.5-1.7-1.7-3-3.3-3.7c-0.9-0.4-1.9-0.6-3-0.6c-2-0.1-3.9,0.6-5.4,1.9c-1.4,1.2-2.3,3-2.4,4.9H70.2z M110.5,99.5h-6.7v-4.3h-0.1
		c-1,1.6-2.4,2.9-4.1,3.8c-1.8,0.9-3.7,1.3-5.6,1.3c-2,0.1-4-0.3-5.8-1.1c-1.7-0.8-3.1-1.9-4.3-3.2c-1.2-1.4-2.1-3-2.7-4.7
		c-0.7-1.9-1-3.8-1-5.8c0-2,0.3-3.9,1-5.8c0.6-1.7,1.6-3.3,2.8-4.7c2.5-2.8,6.1-4.3,9.9-4.3c2.1,0,4.2,0.5,6.1,1.5
		c0.7,0.4,1.4,0.9,2,1.4c0.5,0.4,0.9,0.9,1.4,1.5h0.2V58.2h7L110.5,99.5z M87.4,85.4c0,1.1,0.2,2.2,0.5,3.3c0.3,1.1,0.8,2,1.5,2.9
		c0.7,0.9,1.5,1.6,2.5,2.1c2.2,1.1,4.8,1.1,7,0c1-0.5,1.9-1.2,2.6-2.1c0.7-0.9,1.3-1.8,1.6-2.9c0.4-1,0.6-2.1,0.6-3.2
		c0-1.1-0.2-2.2-0.6-3.3c-0.4-1.1-0.9-2.1-1.6-2.9c-0.7-0.9-1.6-1.6-2.6-2.1c-1.1-0.6-2.3-0.8-3.5-0.8c-1.2,0-2.5,0.2-3.6,0.8
		c-1,0.5-1.8,1.2-2.5,2.1c-0.7,0.9-1.2,1.8-1.5,2.9C87.5,83.1,87.4,84.2,87.4,85.4z M144.1,99.5h-6.7v-4.3h-0.1
		c-0.9,1.6-2.3,3-4,3.8c-1.8,0.9-3.7,1.3-5.6,1.3c-2,0-4-0.4-5.8-1.2c-1.7-0.8-3.2-1.9-4.4-3.2c-1.2-1.4-2.1-3-2.7-4.7
		c-0.7-1.9-1-3.8-1-5.8c0-2,0.3-3.9,1-5.8c0.6-1.7,1.6-3.3,2.8-4.7c2.5-2.8,6.1-4.3,9.8-4.3c2.1,0,4.2,0.5,6.1,1.5
		c0.7,0.4,1.4,0.9,2,1.4c0.5,0.4,0.9,0.9,1.4,1.5h0.2V58.2h7L144.1,99.5z M121,85.4c0,1.1,0.2,2.2,0.5,3.3c0.3,1.1,0.8,2.1,1.5,2.9
		c0.7,0.9,1.5,1.6,2.5,2.1c2.2,1.1,4.8,1.1,7,0c1-0.5,1.9-1.2,2.6-2.1c0.7-0.9,1.3-1.8,1.6-2.9c0.4-1,0.6-2.1,0.6-3.2
		c0-1.1-0.2-2.2-0.6-3.3c-0.4-1.1-0.9-2.1-1.6-2.9c-0.7-0.9-1.6-1.6-2.6-2.1c-1.1-0.6-2.3-0.8-3.5-0.8c-1.2,0-2.5,0.2-3.6,0.8
		c-1,0.5-1.8,1.2-2.5,2.1c-0.7,0.9-1.2,1.8-1.5,2.9C121.2,83.1,121,84.2,121,85.4z M149.2,61.9c0-1.1,0.5-2.2,1.3-3
		c0.8-0.8,2-1.3,3.1-1.3c1.2,0,2.4,0.4,3.2,1.2c1.7,1.5,1.8,4.1,0.2,5.8c-0.1,0.1-0.1,0.1-0.2,0.2c-0.9,0.8-2,1.2-3.2,1.2
		c-1.2,0-2.3-0.4-3.1-1.3C149.6,64.1,149.2,63,149.2,61.9z M150.2,71.4h7v28.1h-7L150.2,71.4z M190,85.8v0.9c0,0.3,0,0.6-0.1,0.9
		h-21.4c0.1,1,0.3,1.9,0.8,2.8c0.4,0.8,1.1,1.6,1.8,2.2c0.8,0.6,1.6,1.1,2.5,1.4c0.9,0.4,1.9,0.5,2.9,0.5c1.5,0,3.1-0.3,4.5-1
		c1.2-0.6,2.2-1.5,3-2.6l4.7,3.8c-2.8,3.8-6.8,5.6-12.1,5.6c-2.1,0-4.1-0.3-6-1c-1.8-0.7-3.4-1.7-4.8-3c-1.4-1.3-2.5-2.9-3.2-4.6
		c-0.8-2-1.2-4.1-1.1-6.2c0-2.1,0.4-4.2,1.1-6.2c1.4-3.6,4.3-6.4,7.9-7.8c1.9-0.7,3.9-1.1,5.9-1.1c1.9,0,3.7,0.3,5.4,1
		c1.6,0.6,3.1,1.6,4.3,2.9c1.3,1.4,2.2,3,2.8,4.7C189.7,81.3,190.1,83.5,190,85.8z M183,82.6c0-0.9-0.1-1.7-0.4-2.6
		c-0.5-1.7-1.7-3-3.3-3.7c-0.9-0.4-1.9-0.6-3-0.6c-2-0.1-3.9,0.6-5.4,1.9c-1.4,1.2-2.3,3-2.4,4.9H183z"/>
	<path class="st2" d="M199.5,58.1h11.6l10.8,29.5h0.2l10.6-29.5h11.6v41.5h-7.3V66.2h-0.1l-12.6,33.3h-5.1l-12.4-33.3h-0.1v33.3h-7
		L199.5,58.1z M267.9,95.9h-0.2c-0.8,1.3-2,2.4-3.4,3.1c-1.7,0.8-3.5,1.2-5.3,1.2c-1.2,0-2.4-0.2-3.5-0.4c-1.2-0.3-2.3-0.8-3.4-1.5
		c-1-0.7-1.9-1.6-2.6-2.7c-0.7-1.3-1.1-2.7-1-4.1c-0.1-1.8,0.5-3.7,1.8-5c1.3-1.3,2.9-2.3,4.6-2.9c2-0.7,4.1-1.1,6.2-1.3
		c2.3-0.2,4.5-0.3,6.8-0.3v-0.7c0.1-1.5-0.6-3-1.9-3.9c-1.3-0.9-2.9-1.3-4.5-1.3c-1.5,0-2.9,0.3-4.3,0.9c-1.3,0.5-2.4,1.3-3.4,2.3
		l-3.6-4.3c1.6-1.5,3.5-2.6,5.5-3.4c2-0.7,4.2-1.1,6.4-1.1c2.1-0.1,4.2,0.3,6.2,1.1c1.5,0.6,2.8,1.5,3.8,2.7c0.9,1.1,1.6,2.4,2,3.8
		c0.4,1.4,0.6,2.8,0.6,4.2v17.2H268L267.9,95.9z M267.8,86.7h-1.6c-1.1,0-2.3,0-3.6,0.1c-1.2,0.1-2.3,0.3-3.5,0.6
		c-1,0.3-1.9,0.8-2.6,1.4c-0.7,0.6-1.1,1.5-1.1,2.5c0,0.6,0.1,1.2,0.4,1.7c0.3,0.5,0.7,0.8,1.1,1.1c0.5,0.3,1,0.5,1.6,0.6
		c0.6,0.1,1.2,0.2,1.8,0.2c2,0.1,4-0.6,5.5-1.9c1.3-1.4,2-3.3,1.9-5.3L267.8,86.7z M299.2,79.2c-0.6-0.9-1.5-1.5-2.5-2
		c-1.1-0.5-2.2-0.8-3.4-0.8c-1.2,0-2.3,0.2-3.4,0.8c-1,0.5-1.8,1.2-2.4,2.1c-0.6,0.9-1.1,1.9-1.4,2.9c-0.3,1.1-0.5,2.1-0.5,3.2
		c0,1.1,0.2,2.2,0.5,3.2c0.3,1.1,0.8,2.1,1.5,2.9c0.7,0.9,1.5,1.6,2.5,2.1c1.1,0.5,2.3,0.8,3.5,0.8c1.1,0,2.2-0.2,3.3-0.6
		c1-0.4,1.9-1,2.6-1.9l4.4,4.5c-1.3,1.3-2.8,2.3-4.5,2.9c-1.9,0.7-3.9,1-5.9,1c-2,0-4-0.3-5.9-1c-3.7-1.3-6.6-4-8.1-7.6
		c-0.8-2-1.2-4.1-1.2-6.3c0-2.1,0.4-4.2,1.2-6.2c0.8-1.8,1.9-3.4,3.2-4.7c1.4-1.3,3-2.4,4.8-3c3.8-1.4,8-1.4,11.8,0.1
		c1.8,0.7,3.4,1.8,4.6,3.3L299.2,79.2z M93.5,58.2v-8.8L66.1,31.6L38.8,49.4v8.8l27.3-17.8L93.5,58.2z M86,42.3V31.6h-7.5v5.8
		L86,42.3z"/>
	<path class="st3" d="M27.5,128.2l4-13.7h2.6l4,13.7l3.9-13.7h2.5l-5,17.2h-2.5l-4.2-13.8l-4.2,13.8h-2.5l-5-17.2h2.6L27.5,128.2z
		 M55.8,125.8v0.4c0,0.1,0,0.3,0,0.4h-9.2c0,0.5,0.2,0.9,0.4,1.3c0.2,0.4,0.4,0.8,0.8,1.1c0.7,0.7,1.6,1,2.6,1c0.7,0,1.4-0.2,2-0.5
		c0.5-0.3,1-0.7,1.3-1.2l1.6,1.3c-0.6,0.8-1.3,1.4-2.2,1.8c-1.7,0.7-3.5,0.8-5.2,0.1c-0.7-0.3-1.4-0.7-1.9-1.2
		c-0.5-0.5-1-1.2-1.3-1.9c-0.3-0.8-0.5-1.6-0.5-2.5c0-0.8,0.1-1.7,0.5-2.5c0.3-0.7,0.7-1.4,1.3-1.9c0.5-0.5,1.2-1,1.9-1.3
		c1.5-0.6,3.2-0.6,4.7,0c0.7,0.3,1.3,0.7,1.8,1.2c0.5,0.5,0.9,1.2,1.1,1.9C55.6,124.2,55.8,125,55.8,125.8z M53.4,124.9
		c0-0.4-0.1-0.9-0.2-1.3c-0.1-0.4-0.3-0.7-0.6-1c-0.3-0.3-0.6-0.5-1-0.7c-0.4-0.2-0.9-0.3-1.4-0.3c-0.5,0-0.9,0.1-1.4,0.3
		c-0.4,0.2-0.8,0.4-1.1,0.7c-0.3,0.3-0.6,0.6-0.8,1c-0.2,0.4-0.3,0.8-0.4,1.3H53.4z M67.4,120.5c0.7-0.4,1.5-0.7,2.3-0.6
		c0.7,0,1.5,0.2,2.1,0.5c0.7,0.4,1.2,1,1.5,1.8c0.4-0.7,0.9-1.3,1.6-1.7c0.7-0.4,1.5-0.6,2.3-0.6c0.7,0,1.3,0.1,1.9,0.4
		c0.5,0.2,1,0.6,1.3,1c0.4,0.4,0.6,0.9,0.8,1.5c0.2,0.6,0.3,1.2,0.3,1.8v7.1h-2.3v-6.4c0-0.4,0-0.9-0.1-1.3
		c-0.1-0.4-0.2-0.8-0.4-1.1c-0.2-0.3-0.5-0.6-0.8-0.8c-0.4-0.2-0.8-0.3-1.2-0.3c-0.5,0-0.9,0.1-1.3,0.3c-0.4,0.2-0.7,0.5-0.9,0.8
		c-0.2,0.3-0.4,0.7-0.5,1.1c-0.1,0.4-0.2,0.9-0.2,1.3v6.2h-2.3v-6.8c0-0.4,0-0.8-0.1-1.2c-0.1-0.3-0.2-0.7-0.4-1
		c-0.2-0.3-0.5-0.5-0.8-0.6c-0.4-0.2-0.7-0.2-1.1-0.2c-0.8,0-1.6,0.4-2.1,1c-0.6,0.8-0.9,1.8-0.8,2.8v6.1h-2.3v-9v-1.2
		c0-0.5,0-0.9-0.1-1.3H66c0,0.3,0,0.6,0.1,1v0.9h0.1C66.4,121.5,66.9,120.9,67.4,120.5z M91.9,124.2c0.1-0.7-0.2-1.5-0.8-1.9
		c-0.6-0.4-1.3-0.7-2.1-0.6c-0.6,0-1.3,0.1-1.8,0.4c-0.5,0.2-1,0.6-1.4,1l-1.2-1.5c0.6-0.6,1.3-1,2.1-1.3c0.8-0.3,1.7-0.5,2.6-0.5
		c0.7,0,1.5,0.1,2.2,0.3c0.6,0.2,1.1,0.5,1.5,1c0.4,0.4,0.7,0.9,0.9,1.4c0.2,0.6,0.3,1.2,0.3,1.8v6.3c0,0.4,0.1,0.7,0.1,1.1h-2
		c-0.1-0.5-0.2-1.1-0.2-1.7h-0.1c-0.4,0.6-0.9,1.1-1.6,1.4c-0.7,0.4-1.5,0.5-2.3,0.5c-0.5,0-1-0.1-1.4-0.2c-0.5-0.1-0.9-0.3-1.4-0.6
		c-0.4-0.3-0.8-0.7-1-1.1c-0.3-0.5-0.4-1.1-0.4-1.7c0-0.8,0.2-1.5,0.7-2.1c0.5-0.5,1.1-0.9,1.8-1.1c0.8-0.3,1.7-0.5,2.6-0.5
		c0.9-0.1,1.9-0.1,2.9-0.1V124.2z M91.3,126.2c-0.6,0-1.2,0-1.8,0.1c-0.6,0-1.1,0.1-1.7,0.3c-0.5,0.1-0.9,0.3-1.2,0.7
		c-0.3,0.3-0.5,0.7-0.5,1.1c0,0.3,0.1,0.6,0.2,0.8c0.1,0.2,0.3,0.4,0.6,0.6c0.2,0.1,0.5,0.3,0.8,0.3c0.3,0.1,0.6,0.1,0.9,0.1
		c0.9,0.1,1.8-0.3,2.5-1c0.6-0.7,0.9-1.5,0.9-2.4v-0.6L91.3,126.2z M99.6,125.2L99.6,125.2l4.9-5h3.1l-5.4,5.2l5.9,6.3h-3.2l-5.2-6
		h-0.1v6h-2.3v-18.4h2.3L99.6,125.2z M119.8,125.8v0.4c0,0.1,0,0.3,0,0.4h-9.2c0,0.5,0.1,0.9,0.3,1.3c0.2,0.4,0.5,0.8,0.8,1.1
		c0.7,0.7,1.6,1,2.6,1c0.7,0,1.4-0.2,2-0.5c0.5-0.3,1-0.7,1.3-1.2l1.6,1.3c-0.6,0.8-1.3,1.4-2.2,1.8c-1.7,0.7-3.5,0.8-5.2,0.1
		c-0.7-0.3-1.4-0.7-1.9-1.2c-0.5-0.5-1-1.2-1.3-1.9c-0.3-0.8-0.5-1.6-0.5-2.5c0-0.8,0.1-1.7,0.5-2.5c0.3-0.7,0.7-1.4,1.3-1.9
		c0.5-0.5,1.2-0.9,1.9-1.2c1.5-0.6,3.2-0.6,4.7,0c0.7,0.3,1.3,0.7,1.8,1.2c0.5,0.5,0.9,1.2,1.1,1.9
		C119.7,124.2,119.8,125,119.8,125.8z M117.5,124.9c0-0.4-0.1-0.9-0.2-1.3c-0.1-0.4-0.3-0.7-0.6-1c-0.3-0.3-0.6-0.5-1-0.7
		c-0.4-0.2-0.9-0.3-1.4-0.3c-0.5,0-0.9,0.1-1.4,0.3c-0.4,0.2-0.8,0.4-1.1,0.7c-0.3,0.3-0.6,0.6-0.8,1c-0.2,0.4-0.3,0.8-0.3,1.3
		H117.5z M130.2,121.9c0.3-0.6,0.8-1.1,1.4-1.5c0.7-0.4,1.5-0.6,2.3-0.6c0.7,0,1.3,0.1,1.9,0.4c0.5,0.2,1,0.6,1.3,1
		c0.4,0.4,0.6,0.9,0.8,1.5c0.2,0.6,0.3,1.2,0.3,1.8v7.1h-2.3v-6.4c0-0.4,0-0.9-0.1-1.3c-0.1-0.4-0.2-0.8-0.4-1.1
		c-0.2-0.3-0.5-0.6-0.8-0.8c-0.4-0.2-0.8-0.3-1.3-0.3c-0.9,0-1.7,0.4-2.3,1c-0.6,0.8-0.9,1.8-0.9,2.8v6.1h-2.3v-18.4h2.3
		L130.2,121.9L130.2,121.9z M153.1,125.9c0,0.8-0.2,1.7-0.5,2.5c-0.3,0.7-0.7,1.4-1.3,1.9c-0.6,0.5-1.2,1-2,1.3
		c-1.6,0.6-3.3,0.6-4.9,0c-0.7-0.3-1.4-0.7-2-1.3c-0.6-0.6-1-1.2-1.3-1.9c-0.3-0.8-0.5-1.6-0.5-2.5c0-0.8,0.2-1.7,0.5-2.4
		c0.6-1.5,1.8-2.6,3.3-3.2c1.6-0.6,3.3-0.6,4.9,0c0.7,0.3,1.4,0.7,2,1.3c0.6,0.5,1,1.2,1.3,1.9C152.9,124.2,153.1,125.1,153.1,125.9
		z M150.7,125.9c0-0.5-0.1-1.1-0.3-1.6c-0.2-0.5-0.4-0.9-0.7-1.3c-0.3-0.4-0.7-0.7-1.2-0.9c-1.1-0.5-2.2-0.5-3.3,0
		c-0.5,0.2-0.9,0.5-1.2,0.9c-0.3,0.4-0.6,0.8-0.7,1.3c-0.3,1-0.3,2.1,0,3.1c0.2,0.5,0.4,0.9,0.7,1.3c0.3,0.4,0.7,0.7,1.2,0.9
		c1.1,0.5,2.2,0.5,3.3,0c0.5-0.2,0.9-0.5,1.2-0.9c0.3-0.4,0.6-0.8,0.7-1.3C150.6,127,150.7,126.5,150.7,125.9L150.7,125.9z
		 M159.2,120.5c0.7-0.4,1.5-0.7,2.3-0.6c0.7,0,1.5,0.2,2.1,0.5c0.7,0.4,1.2,1,1.5,1.8c0.4-0.7,0.9-1.3,1.6-1.7
		c0.7-0.4,1.5-0.6,2.3-0.6c0.7,0,1.3,0.1,1.9,0.4c0.5,0.2,1,0.6,1.3,1c0.4,0.4,0.6,0.9,0.8,1.5c0.2,0.6,0.3,1.2,0.3,1.8v7.1H171
		v-6.4c0-0.4,0-0.9-0.1-1.3c-0.1-0.4-0.2-0.8-0.4-1.1c-0.2-0.3-0.5-0.6-0.8-0.8c-0.4-0.2-0.8-0.3-1.2-0.3c-0.5,0-0.9,0.1-1.3,0.3
		c-0.4,0.2-0.7,0.5-0.9,0.8c-0.2,0.3-0.4,0.7-0.5,1.1c-0.1,0.4-0.2,0.9-0.2,1.3v6.2h-2.3v-6.8c0-0.4,0-0.8-0.1-1.2
		c-0.1-0.3-0.2-0.7-0.4-1c-0.2-0.3-0.5-0.5-0.8-0.6c-0.4-0.2-0.7-0.2-1.1-0.2c-0.8,0-1.6,0.4-2.1,1c-0.6,0.8-0.9,1.8-0.8,2.8v6.1
		h-2.3v-9v-1.2c0-0.5,0-0.9-0.1-1.3h2.2c0,0.3,0,0.6,0.1,1v0.9h0.1C158.2,121.5,158.6,120.9,159.2,120.5L159.2,120.5z M187.3,125.8
		v0.4c0,0.1,0,0.3,0,0.4h-9.2c0,0.5,0.1,0.9,0.3,1.4c0.2,0.4,0.5,0.8,0.8,1.1c0.7,0.7,1.6,1,2.6,1c0.7,0,1.4-0.2,2-0.5
		c0.5-0.3,1-0.7,1.3-1.2l1.6,1.3c-0.6,0.8-1.3,1.4-2.2,1.8c-1.7,0.7-3.5,0.8-5.2,0.1c-0.7-0.3-1.4-0.7-1.9-1.2
		c-0.5-0.5-1-1.2-1.3-1.9c-0.3-0.8-0.5-1.6-0.5-2.5c0-0.8,0.1-1.7,0.5-2.5c0.3-0.7,0.7-1.4,1.3-1.9c0.5-0.5,1.2-1,1.9-1.3
		c1.5-0.6,3.2-0.6,4.7,0c0.7,0.3,1.3,0.7,1.8,1.2c0.5,0.5,0.9,1.2,1.1,1.9C187.2,124.2,187.3,125,187.3,125.8L187.3,125.8z
		 M185,124.9c0-0.4-0.1-0.9-0.2-1.3c-0.1-0.4-0.3-0.7-0.6-1c-0.3-0.3-0.6-0.5-1-0.7c-0.4-0.2-0.9-0.3-1.4-0.3
		c-0.5,0-0.9,0.1-1.4,0.3c-0.4,0.2-0.8,0.4-1.1,0.7c-0.3,0.3-0.6,0.6-0.8,1c-0.2,0.4-0.3,0.8-0.3,1.3H185z M197.6,137.5h-2.3v-17.3
		h2.3v1.8h0.1c0.4-0.6,1-1.2,1.6-1.5c0.8-0.4,1.6-0.6,2.5-0.6c0.8,0,1.6,0.1,2.3,0.5c0.7,0.3,1.3,0.7,1.8,1.3
		c0.5,0.6,0.9,1.2,1.1,1.9c0.3,0.8,0.4,1.6,0.4,2.4c0,0.8-0.1,1.6-0.4,2.4c-0.2,0.7-0.6,1.4-1.1,1.9c-0.5,0.6-1.1,1-1.8,1.3
		c-0.8,0.3-1.6,0.5-2.4,0.5c-0.8,0-1.6-0.2-2.3-0.5c-0.7-0.3-1.3-0.9-1.7-1.5h-0.1L197.6,137.5z M205.2,125.9c0-0.5-0.1-1.1-0.2-1.6
		c-0.2-0.5-0.4-0.9-0.7-1.3c-0.3-0.4-0.7-0.7-1.2-0.9c-0.5-0.2-1.1-0.4-1.7-0.3c-0.5,0-1.1,0.1-1.6,0.3c-0.5,0.2-0.9,0.5-1.2,0.9
		c-0.3,0.4-0.6,0.8-0.8,1.3c-0.4,1-0.4,2.1,0,3.2c0.2,0.5,0.4,0.9,0.8,1.3c0.3,0.4,0.8,0.7,1.2,0.9c0.5,0.2,1,0.3,1.6,0.3
		c0.6,0,1.1-0.1,1.7-0.3c0.5-0.2,0.9-0.5,1.2-0.9c0.3-0.4,0.6-0.9,0.7-1.3C205.1,127,205.2,126.4,205.2,125.9L205.2,125.9z
		 M221.8,125.9c0,0.8-0.2,1.7-0.5,2.5c-0.3,0.7-0.7,1.4-1.3,1.9c-0.6,0.5-1.2,1-2,1.3c-1.6,0.6-3.3,0.6-4.9,0
		c-0.7-0.3-1.4-0.7-2-1.3c-0.6-0.6-1-1.2-1.3-1.9c-0.3-0.8-0.5-1.6-0.5-2.5c0-0.8,0.2-1.7,0.5-2.4c0.6-1.5,1.8-2.6,3.3-3.2
		c1.6-0.6,3.3-0.6,4.9,0c0.7,0.3,1.4,0.7,2,1.3c0.6,0.5,1,1.2,1.3,1.9C221.6,124.2,221.8,125.1,221.8,125.9z M219.4,125.9
		c0-0.5-0.1-1.1-0.3-1.6c-0.2-0.5-0.4-0.9-0.7-1.3c-0.3-0.4-0.7-0.7-1.2-0.9c-1.1-0.5-2.2-0.5-3.3,0c-0.5,0.2-0.9,0.5-1.2,0.9
		c-0.3,0.4-0.6,0.8-0.7,1.3c-0.3,1-0.3,2.1,0,3.1c0.2,0.5,0.4,0.9,0.7,1.3c0.3,0.4,0.7,0.7,1.2,0.9c1.1,0.5,2.2,0.5,3.3,0
		c0.5-0.2,0.9-0.5,1.2-0.9c0.3-0.4,0.6-0.8,0.7-1.3C219.3,127,219.4,126.5,219.4,125.9L219.4,125.9z M230.6,123.1
		c-0.3-0.4-0.7-0.8-1.1-1c-0.5-0.3-1-0.4-1.6-0.4c-0.3,0-0.5,0-0.8,0.1c-0.2,0.1-0.5,0.1-0.7,0.3c-0.2,0.1-0.4,0.3-0.5,0.5
		c-0.1,0.2-0.2,0.4-0.2,0.7c0,0.5,0.2,0.9,0.7,1.1c0.6,0.3,1.3,0.5,2,0.6c0.5,0.1,1,0.3,1.5,0.5c0.4,0.2,0.9,0.4,1.2,0.7
		c0.3,0.3,0.6,0.6,0.8,1c0.2,0.4,0.3,0.9,0.3,1.3c0,0.6-0.1,1.2-0.4,1.7c-0.3,0.4-0.6,0.8-1,1.1c-0.4,0.3-0.9,0.5-1.5,0.6
		c-0.6,0.1-1.1,0.2-1.7,0.2c-0.9,0-1.7-0.2-2.6-0.5c-0.8-0.3-1.5-0.9-2.1-1.6l1.6-1.4c0.3,0.5,0.8,0.9,1.3,1.1
		c0.5,0.3,1.2,0.5,1.8,0.5c0.3,0,0.6,0,0.8-0.1c0.3-0.1,0.5-0.1,0.7-0.3c0.2-0.1,0.4-0.3,0.5-0.5c0.1-0.2,0.2-0.5,0.2-0.8
		c0-0.5-0.3-1-0.8-1.2c-0.7-0.3-1.5-0.6-2.3-0.7c-0.4-0.1-0.8-0.2-1.1-0.3c-0.4-0.1-0.8-0.3-1.1-0.6c-0.3-0.2-0.6-0.6-0.8-0.9
		c-0.2-0.4-0.3-0.9-0.3-1.4c0-0.6,0.1-1.1,0.4-1.6c0.2-0.4,0.6-0.8,1-1.1c0.4-0.3,0.9-0.5,1.4-0.6c0.5-0.1,1.1-0.2,1.6-0.2
		c0.8,0,1.6,0.2,2.4,0.5c0.7,0.3,1.3,0.8,1.8,1.4L230.6,123.1z M240.7,123.1c-0.3-0.4-0.7-0.8-1.1-1c-0.5-0.3-1-0.4-1.6-0.4
		c-0.3,0-0.5,0-0.8,0.1c-0.2,0.1-0.5,0.1-0.7,0.3c-0.2,0.1-0.4,0.3-0.5,0.5c-0.1,0.2-0.2,0.4-0.2,0.7c0,0.5,0.2,0.9,0.7,1.1
		c0.6,0.3,1.3,0.5,2,0.6c0.5,0.1,1,0.3,1.5,0.5c0.4,0.2,0.9,0.4,1.2,0.7c0.3,0.3,0.6,0.6,0.8,1c0.2,0.4,0.3,0.9,0.3,1.3
		c0,0.6-0.1,1.2-0.4,1.7c-0.3,0.4-0.6,0.8-1,1.1c-0.4,0.3-0.9,0.5-1.5,0.6c-0.6,0.1-1.1,0.2-1.7,0.2c-0.9,0-1.7-0.2-2.6-0.5
		c-0.8-0.3-1.5-0.9-2.1-1.6l1.6-1.4c0.3,0.5,0.8,0.9,1.3,1.1c0.5,0.3,1.2,0.5,1.8,0.5c0.3,0,0.6,0,0.8-0.1c0.3-0.1,0.5-0.1,0.7-0.3
		c0.2-0.1,0.4-0.3,0.5-0.5c0.1-0.2,0.2-0.5,0.2-0.8c0-0.5-0.3-1-0.8-1.2c-0.7-0.3-1.5-0.6-2.3-0.7c-0.4-0.1-0.8-0.2-1.1-0.3
		c-0.4-0.1-0.8-0.3-1.1-0.6c-0.3-0.2-0.6-0.6-0.8-0.9c-0.2-0.4-0.3-0.9-0.3-1.4c0-0.6,0.1-1.1,0.4-1.6c0.2-0.4,0.6-0.8,1-1.1
		c0.4-0.3,0.9-0.5,1.4-0.6c0.5-0.1,1.1-0.2,1.6-0.2c0.8,0,1.6,0.2,2.4,0.5c0.7,0.3,1.3,0.8,1.8,1.4L240.7,123.1z M247.4,116
		c0,0.4-0.2,0.8-0.5,1c-0.3,0.3-0.7,0.4-1.1,0.4c-0.4,0-0.8-0.1-1.1-0.4c-0.3-0.3-0.4-0.6-0.4-1c0-0.4,0.2-0.8,0.4-1.1
		c0.3-0.3,0.7-0.4,1.1-0.4c0.4,0,0.8,0.1,1.1,0.4C247.2,115.2,247.4,115.6,247.4,116z M247,131.7h-2.3v-11.5h2.3V131.7z
		 M252.6,129.9v1.8h-2.3v-18.4h2.3v8.6h0.1c0.4-0.6,1-1.1,1.6-1.4c0.8-0.4,1.6-0.6,2.5-0.6c0.8,0,1.6,0.1,2.3,0.5
		c0.7,0.3,1.3,0.7,1.8,1.3c0.5,0.6,0.9,1.2,1.1,1.9c0.3,0.8,0.4,1.6,0.4,2.4c0,0.8-0.1,1.6-0.4,2.4c-0.2,0.7-0.6,1.4-1.1,1.9
		c-0.5,0.6-1.1,1-1.8,1.3c-0.8,0.3-1.6,0.5-2.4,0.5c-0.8,0-1.6-0.2-2.4-0.6C253.7,131.1,253.1,130.5,252.6,129.9L252.6,129.9z
		 M260.3,125.9c0-0.5-0.1-1.1-0.2-1.6c-0.2-0.5-0.4-0.9-0.7-1.3c-0.3-0.4-0.7-0.7-1.2-0.9c-0.5-0.2-1.1-0.4-1.7-0.3
		c-0.5,0-1.1,0.1-1.6,0.3c-0.5,0.2-0.9,0.5-1.2,0.9c-0.3,0.4-0.6,0.8-0.8,1.3c-0.4,1-0.4,2.1,0,3.1c0.2,0.5,0.4,0.9,0.8,1.3
		c0.3,0.4,0.8,0.7,1.2,0.9c0.5,0.2,1,0.3,1.6,0.3c0.6,0,1.1-0.1,1.7-0.3c0.5-0.2,0.9-0.5,1.2-0.9c0.3-0.4,0.6-0.8,0.7-1.3
		C260.2,127,260.3,126.5,260.3,125.9z M267.3,131.7H265v-18.4h2.3V131.7z M281.2,125.8v0.4c0,0.1,0,0.3,0,0.4H272
		c0,0.5,0.1,0.9,0.3,1.4c0.2,0.4,0.5,0.8,0.8,1.1c0.7,0.7,1.6,1,2.6,1c0.7,0,1.4-0.2,2-0.5c0.5-0.3,1-0.7,1.3-1.2l1.6,1.3
		c-0.6,0.8-1.3,1.4-2.2,1.8c-1.7,0.7-3.5,0.8-5.2,0.1c-0.7-0.3-1.4-0.7-1.9-1.2c-0.5-0.5-1-1.2-1.3-1.9c-0.3-0.8-0.5-1.6-0.5-2.5
		c0-0.8,0.1-1.7,0.5-2.5c0.3-0.7,0.7-1.4,1.3-1.9c0.5-0.5,1.2-1,1.9-1.3c1.5-0.6,3.2-0.6,4.7,0c0.7,0.3,1.3,0.7,1.8,1.2
		c0.5,0.5,0.9,1.2,1.1,1.9C281.1,124.2,281.2,125,281.2,125.8L281.2,125.8z M278.9,124.9c0-0.4-0.1-0.9-0.2-1.3
		c-0.1-0.4-0.3-0.7-0.6-1c-0.3-0.3-0.6-0.5-1-0.7c-0.4-0.2-0.9-0.3-1.4-0.3c-0.5,0-0.9,0.1-1.4,0.3c-0.4,0.2-0.8,0.4-1.1,0.7
		c-0.3,0.3-0.6,0.6-0.8,1c-0.2,0.4-0.3,0.8-0.3,1.3H278.9z M287.3,116.2c2,0,3.6,1.6,3.6,3.6c0,2-1.6,3.6-3.6,3.6
		c-2,0-3.6-1.6-3.6-3.6C283.7,117.8,285.3,116.2,287.3,116.2C287.3,116.2,287.3,116.2,287.3,116.2z M287.3,122.9
		c1.7,0,3.1-1.3,3.1-3c0-1.7-1.3-3.1-3-3.1c-1.7,0-3.1,1.3-3.1,3c0,0,0,0,0,0c-0.1,1.6,1.2,3,2.8,3.1
		C287.2,122.9,287.3,122.9,287.3,122.9L287.3,122.9z M285.9,117.7h1.6c1,0,1.5,0.4,1.5,1.2c0,0.6-0.5,1.1-1.1,1.1l1.2,1.9h-0.7
		l-1.1-1.8h-0.7v1.8h-0.7L285.9,117.7z M286.6,119.6h0.7c0.6,0,1.1,0,1.1-0.7c0-0.7-0.5-0.6-0.9-0.6h-0.9L286.6,119.6z"/>
</g>
</svg>
