<?xml version="1.0" encoding="utf-8"?>
<!-- Generator: Adobe Illustrator 21.1.0, SVG Export Plug-In . SVG Version: 6.00 Build 0)  -->
<svg version="1.1" id="Layer_1" xmlns="http://www.w3.org/2000/svg" xmlns:xlink="http://www.w3.org/1999/xlink" x="0px" y="0px"
	 viewBox="0 0 348.2 171" style="enable-background:new 0 0 348.2 171;" xml:space="preserve">
<style type="text/css">
	.st0{fill:#FAFAFA;}
	.st1{fill:#0D62A8;}
</style>
<rect x="0" y="0" class="st0" width="348.2" height="171"/>
<g>
	<g>
		<g>
			<path class="st1" d="M347.7,86.3c-1,3-1.5,6.3-2.4,9.3c-0.3,0.9-0.4,1.9-0.6,2.8c-0.1,0.5-0.1,1-0.9,1.1c-0.8,0-1.4,0.1-1.8-0.6
				c-1.5-2.6-3-5.3-4.5-7.9c-0.3-0.4-0.3-0.8-0.9-1c-0.4,1.9-0.8,3.6-1.1,5.4c-0.3,1.1-0.5,2.3-0.6,3.3c-0.1,0.4-0.3,0.8-0.6,0.8
				c-0.6,0-1.4,0.3-1.9-0.1c-0.3-0.1-0.1-0.5,0-0.8c1-4.3,2-8.4,3.1-12.7c0.1-0.5,0.4-0.9,0.9-0.8c0.9,0,1.8-0.3,2.3,0.8
				c1.4,2.4,2.8,4.9,4.1,7.3c0.3,0.4,0.4,0.6,0.6,1.1c0.5-0.9,0.5-1.8,0.6-2.5c0.4-1.8,0.8-3.5,1-5.3c0.1-1.1,0.6-1.5,1.8-1.4
				c0.4,0,0.8,0,1.1,0C347.7,85.5,347.7,85.9,347.7,86.3z"/>
			<path class="st1" d="M274.9,84.9c1,0,2,0,3,0.1c1.6,0.3,2.8,1.1,3.1,2.5c0.4,1.6-0.1,3.3-1.5,4.1c-0.4,0.3-0.8,0.5-1.1,0.6
				c-1.6,0.5-1.3,0.8-0.9,2.1c0.3,0.9,0.6,1.8,1.3,2.5c1,1.4,2.4,1.4,3.3,0c2.4-3.6,4.8-7.4,7.2-11.1c0.5-0.8,2.3-1.3,3-0.8
				c0.4,0.3,0.4,0.6,0.5,0.9c0.8,4,1.5,8.2,2.4,12.2c0.1,0.9-0.1,1.3-1,1.1c-2.5,0-2.3,0.3-2.6-2.1c-0.4-1.9-0.4-1.8-2.3-1.9
				c-2.4-0.3-4,0.4-4.9,2.8c-0.4,1-1.3,1.5-2.4,1.4c-0.6-0.1-1.4,0-2,0.1c-2.1,0.4-3.6-0.5-4.7-2.5c-0.4-0.9-0.6-1.8-1-2.5
				c-0.3-0.5-0.1-1.3-1.1-1.3s-0.9,0.9-1,1.4c-0.3,1.3-0.5,2.4-0.8,3.6c-0.1,0.8-0.5,1.1-1.3,1.1c-2.4,0-2.3,0.3-1.8-2.1
				c0.8-3.5,1.6-7.2,2.3-10.7c0.3-1,0.5-1.6,1.8-1.6C273.3,85,274.1,85,274.9,84.9z M274.6,91.6c0.6,0,1.1,0,1.8-0.3
				c1.1-0.5,1.8-1.8,1.5-3c-0.3-1-0.9-1.3-2.6-1.4c-1.5-0.1-1.3,1-1.5,1.8c-0.1,0.4-0.3,0.9-0.3,1.3C273,91.6,273,91.6,274.6,91.6z
				 M290.1,88.7c-1,1.6-1.8,2.9-2.5,4.3c-0.1,0.1-0.1,0.4,0.1,0.5c0.3,0.1,2.9,0.1,3,0s0.1-0.3,0.1-0.4
				C290.6,91.7,290.5,90.3,290.1,88.7z"/>
			<path class="st1" d="M160.5,123.4c-1,0-2,0-3,0c-0.6,0-1-0.3-0.9-1c0.9-4.1,1.9-8.4,2.8-12.6c0.1-0.8,0.5-1,1.3-1
				c1.6,0,3.3,0,4.9,0c5-0.3,7.5,4.1,6,8.7c-1.3,3.6-4.4,5.8-8.5,5.9C162.3,123.5,161.4,123.5,160.5,123.4
				C160.5,123.5,160.5,123.5,160.5,123.4z M168.7,115c0-2.3-0.8-3.6-2.5-4c-1-0.3-2-0.1-2.9-0.1c-0.5,0-0.8,0.4-0.9,0.9
				c-0.6,2.9-1.3,5.8-1.9,8.7c-0.1,0.6,0.1,0.8,0.6,0.9C165.3,121.6,168.5,120.2,168.7,115z"/>
			<path class="st1" d="M205.9,93.3c-0.9-0.4-1.1,0.1-1.3,1c-0.3,1.5-0.6,2.9-0.9,4.4c-0.1,0.6-0.5,0.9-1.1,0.9
				c-3.4,0-2.9,0.3-2.3-2.5c0.9-4.3,1.9-8.5,2.8-12.8c0.1-0.9,0.6-1.3,1.5-1.3c2,0,4.1-0.1,6.2,0.1c1.9,0.3,3.5,0.9,4,3
				c0.5,2.1-0.3,4-1.9,5.4c-1.3,1-2.6,1.5-4.3,1.6C207.7,93.2,206.8,93.2,205.9,93.3z M208.1,85.3c-0.6,0.1-1.4-0.3-1.6,0.8
				c-0.4,1.4-0.6,2.9-0.9,4.3c-0.1,0.4,0,0.6,0.5,0.6c1.3,0,2.5,0.1,3.5-0.8c1-0.8,1.6-2.4,1.1-3.6
				C210.3,85.2,209.2,85.3,208.1,85.3z"/>
			<path class="st1" d="M226.5,123.4c-1,0-2,0-3,0c-0.6,0-1-0.3-0.9-1c0.9-4.3,1.9-8.5,2.8-12.7c0.1-0.6,0.5-0.8,1-0.8
				c2,0,4.1-0.1,6.2,0c3.9,0.3,6.2,3.5,5.4,7.5c-0.9,4.1-4.3,6.8-8.9,6.9C228.3,123.5,227.4,123.5,226.5,123.4
				C226.5,123.5,226.5,123.4,226.5,123.4z M234.8,114.8c0-2.3-1-3.6-2.8-3.9c-0.9-0.1-1.8,0-2.6-0.1c-0.5,0-0.8,0.3-0.9,0.8
				c-0.6,2.9-1.3,5.9-1.9,8.8c-0.1,0.5,0,0.8,0.5,0.8C231.3,121.6,234.5,120.2,234.8,114.8z"/>
			<path class="st1" d="M322.3,99.8c-5.8,0.3-8-4.5-6-9.6c1.5-3.8,4.9-5.5,9.7-5.3c2.9,0.3,5.2,2.4,5.5,5.3c0.4,3.5-2,7.4-5.3,8.8
				C324.8,99.6,323.6,99.9,322.3,99.8z M328,91.2c0-2.1-0.6-3.4-2-3.9c-1.6-0.6-3.9-0.3-5,1.1c-1.9,2.1-2.1,4.8-1.4,7.4
				c0.3,1,1.1,1.6,2.3,1.9c2,0.4,3.9-0.4,5-2.1C327.5,94.2,328,92.7,328,91.2z"/>
			<path class="st1" d="M221.9,76c-4.5,0-7-2.9-6.4-7.4c0.9-6.7,7.5-8.7,11.9-7.2c2.9,1,4.3,3.9,3.6,7.3
				C230.2,73.2,226.5,76,221.9,76z M218.7,69.5c0,0.4,0,0.9,0.1,1.3c0.3,1.8,1.3,2.9,2.9,3.1c1.9,0.3,3.4-0.4,4.5-1.9
				c1-1.4,1.5-3,1.5-4.8c0-1.6-0.4-3.1-2-3.8c-1.8-0.8-3.4-0.5-4.8,0.8C219.4,65.7,218.9,67.4,218.7,69.5z"/>
			<path class="st1" d="M163.3,76c-1.4-0.1-2.5-0.5-3.3-1.8c-0.8-1.1-1.1-2.4-1.5-3.8c-0.1-0.6-0.4-1-1.1-0.9
				c-0.8,0-0.8,0.6-0.9,1.1c-0.3,1.3-0.5,2.5-0.8,3.9c-0.1,0.9-0.5,1.3-1.4,1.3c-2.1,0-2.1,0-1.8-2.1c0.9-3.8,1.6-7.4,2.4-11.2
				c0.3-1,0.6-1.3,1.5-1.3c1.6,0,3.1,0,4.8,0c2.4,0.1,3.8,1.1,4.1,2.9c0.4,1.9-0.8,3.8-2.9,4.5c-1.1,0.4-1.3,0.9-0.8,1.9
				c0.4,0.9,0.6,1.8,1.1,2.5c0.4,0.5,0.8,0.9,1.4,1.1c0.4,0.1,1,0,0.9,0.8c-0.1,0.6-0.5,0.9-1,1C163.8,76,163.6,76,163.3,76z
				 M159.5,63.3c-1.1-0.3-1.6,0.3-1.8,1.4c0,0.4-0.1,0.8-0.3,1.1c-0.5,2.1-0.1,2.4,2,2c0.1,0,0.4-0.1,0.5-0.1c1.4-0.5,2-1.6,1.8-3.1
				C161.5,63.2,160.4,63.4,159.5,63.3z"/>
			<path class="st1" d="M134.1,85c0.9,0,1.9,0,2.8,0.1c1.5,0.3,2.6,0.9,3.1,2.4c0.5,1.6,0,3-1.3,4.1c-0.5,0.5-1.1,0.8-1.8,1
				c-0.9,0.3-1,0.8-0.6,1.5c0.4,0.9,0.6,1.9,1.1,2.8c0.4,0.6,0.9,1.1,1.6,1.3c0.4,0.1,0.9,0,0.8,0.6c-0.1,0.5-0.4,0.9-0.9,1
				c-1.5,0.3-2.9,0-3.9-1.3c-1-1.1-1.4-2.5-1.9-3.9c-0.1-0.4-0.1-0.8-0.5-1c-0.5-0.4-1.3-0.1-1.5,0.6c-0.4,1.4-0.6,2.8-0.9,4.1
				c-0.1,0.9-0.5,1.1-1.4,1.1c-2.6,0-2.3,0.1-1.8-2.1c0.8-3.8,1.6-7.4,2.4-11.2c0.1-0.8,0.5-1.1,1.3-1.1C132.1,85,133.1,85,134.1,85
				z M133.6,91.6c0.9,0,1.9-0.3,2.6-1.1c0.8-0.9,0.8-2.5,0-3c-0.9-0.6-2-0.6-3-0.4c-0.8,0.1-0.5,1-0.8,1.6c-0.1,0.5-0.3,0.9-0.3,1.4
				C132,91.6,132,91.6,133.6,91.6z"/>
			<path class="st1" d="M221.4,84.9c1,0,2,0,3,0.3c1.6,0.3,2.8,1.1,3.1,2.5c0.4,1.5-0.3,3.1-1.4,4.1c-0.4,0.3-0.9,0.6-1.4,0.8
				c-1.3,0.3-1.3,1-0.8,1.9c0.4,0.8,0.8,1.6,1,2.4c0.3,0.6,0.9,1.1,1.5,1.3c0.4,0.1,0.9,0,0.8,0.5c0,0.5-0.4,0.9-0.9,1
				c-1.5,0.5-3.3-0.1-4.1-1.5c-0.8-1.1-1.3-2.5-1.6-3.8c-0.1-0.5-0.4-1-1-1c-0.8,0-0.8,0.5-0.9,1c-0.3,1.4-0.6,2.6-0.8,4
				c-0.1,0.9-0.5,1.1-1.4,1.1c-2.3,0-2.3,0-1.8-2.1c0.8-3.6,1.6-7.3,2.4-10.9c0.1-0.9,0.5-1.5,1.5-1.4
				C219.6,85.2,220.5,85,221.4,84.9z M220.8,91.6c2,0,3.1-0.9,3.4-2.4c0.1-1.1-0.3-1.9-1.5-2c-1.9-0.4-2.3-0.3-2.6,1.3
				c-0.1,0.6-0.3,1.3-0.4,1.8C219.4,91.6,219.4,91.6,220.8,91.6z"/>
			<path class="st1" d="M121.4,70.6c0.5-2.6,1-5.3,1.5-7.8c0.3-1.5,0.4-1.5,1.9-1.5c0.9,0,1.1,0.3,0.9,1.1c-0.8,3.1-1.5,6.3-2.3,9.6
				c-0.3,0.9-0.4,1.8-0.6,2.5c-0.1,0.5-0.1,1.3-1,1.4c-0.9,0.1-1.4-0.3-1.9-1c-1.3-2.3-2.5-4.4-3.8-6.5c-0.4-0.8-0.8-1.4-1.3-2.1
				c-0.5,0.5-0.5,1.1-0.6,1.6c-0.5,2.3-0.9,4.5-1.4,6.9c-0.3,1-1.6,1.6-2.5,1.1c-0.4-0.3-0.3-0.5-0.3-0.8c1-4.3,2.1-8.5,3.1-12.9
				c0.1-0.6,0.5-0.8,1-0.8c0.8,0,1.6-0.1,2.1,0.8c1.3,2.4,2.6,4.8,4,7.2C120.7,69.7,120.8,70.1,121.4,70.6z"/>
			<path class="st1" d="M243,70.5c0.5-1.1,0.5-2.3,0.8-3.3c0.4-1.6,0.6-3.3,1-4.9c0.1-0.9,1.8-1.5,2.5-0.9c0.4,0.3,0.3,0.5,0.1,0.8
				c-1,4.3-2,8.5-3.1,12.8c-0.1,0.5-0.4,0.8-0.9,0.8c-0.6,0-1.3,0-1.6-0.6c-1.3-2.4-2.6-4.7-4-6.9c-0.4-0.6-0.8-1.4-1.3-2.1
				c-0.5,0.5-0.5,1.1-0.6,1.8c-0.5,2.3-1,4.7-1.5,7c-0.3,0.9-1.8,1.5-2.5,1c-0.3-0.3-0.3-0.5-0.1-0.8c1-4.3,2.1-8.5,3.1-12.9
				c0.1-0.6,0.5-0.8,1-0.8c0.8,0,1.5-0.1,2,0.8c1.3,2.4,2.6,4.8,4,7.2C242.4,69.7,242.5,70.1,243,70.5z"/>
			<path class="st1" d="M130.6,113.5c-0.6,3-1.3,5.8-1.8,8.4c-0.4,1.6-0.4,1.6-1.9,1.6c-0.9,0-1-0.4-0.9-1.1c0.8-2.8,1.4-5.7,2-8.4
				c0.3-1.3,0.6-2.5,0.9-3.8c0.1-0.5,0.1-1.3,1-1.3s1.8-0.3,2.3,0.8c1,2,2.3,3.9,3.4,5.9c0.5,0.8,0.9,1.6,1.6,2.8
				c0.4-2.1,0.8-3.9,1.1-5.7c0.3-1,0.4-2,0.6-3c0.3-0.8,1-1,2.1-0.8c0.9,0.3,0.5,0.9,0.4,1.3c-0.9,4-1.9,7.9-2.9,11.9
				c-0.1,0.5-0.3,1.1-1,1.3c-0.8,0-1.4-0.1-1.8-0.9C134.1,119.6,132.4,116.6,130.6,113.5z"/>
			<path class="st1" d="M170.7,65.9c-0.5,2.6-1,5.2-1.6,7.7c0,0.3-0.1,0.5-0.1,0.8c-0.3,1.3-1.3,1.9-2.5,1.4
				c-0.6-0.3-0.4-0.8-0.3-1.1c0.9-3.6,1.8-7.3,2.6-10.8c0.1-0.4,0.1-0.8,0.3-1c0.1-0.6,0.1-1.4,1-1.4c0.9,0,1.8-0.1,2.4,1
				c1.3,2.4,2.6,4.8,4,7.2c0.3,0.4,0.4,0.6,0.8,1.1c0.5-1,0.5-2,0.8-3c0.4-1.9,0.8-3.6,1.1-5.5c0.1-0.4,0.3-0.8,0.8-0.8
				c0.6,0,1.3-0.3,1.8,0.1c0.3,0.1,0.1,0.5,0.1,0.9c-1,4.1-2,8.4-3,12.6c-0.1,0.5-0.3,0.9-0.9,0.9s-1.3,0-1.6-0.8
				c-1.3-2.3-2.5-4.4-3.8-6.7C171.9,67.7,171.6,66.8,170.7,65.9z"/>
			<path class="st1" d="M107.4,82.8c0.9,0,2.1,0.3,3.3,0.6c0.4,0.1,0.9,0.3,0.9,0.9c-0.1,0.8,0.3,1.5-0.5,2c-0.5,0.4-1,0-1.4-0.3
				c-1-0.6-2-1-3.3-0.9c-0.8,0.1-1.4,0.5-1.6,1.3c-0.3,0.8,0,1.4,0.5,2c0.8,0.8,1.6,1.4,2.4,2c1.3,1,2.3,2,2.4,3.8
				c0.3,2.5-1.1,4.5-3.6,5.3c-2.4,0.8-4.9,0.4-7.3-0.3c-0.5-0.1-0.9-0.5-0.8-1c0-0.6-0.3-1.4,0.4-2c0.5-0.4,1-0.3,1.5,0.1
				c1.1,0.9,2.4,1.3,3.9,1.1c1-0.1,1.8-0.5,2.1-1.5c0.4-1,0-1.8-0.6-2.4c-0.9-0.9-1.9-1.6-2.9-2.4c-1.4-1.1-2.3-2.6-1.9-4.5
				c0.4-2,1.8-3.1,3.5-3.6C105.2,82.9,106.1,82.8,107.4,82.8z"/>
			<path class="st1" d="M99.4,116.2c-0.3,4.3,3,5.9,6.9,4.9c0.8-0.1,1.4-0.5,2-0.8c0.8-0.3,1.1,0,1,0.8c-0.3,1.5-0.5,1.9-2.1,2.1
				c-1.8,0.4-3.5,0.5-5.3,0.3c-6.5-0.9-7.5-6.8-5.9-10.7c1.5-3.6,4.5-5.5,8.4-6.2c2-0.4,3.9,0,5.8,0.5c0.5,0.1,1,0.3,1,0.9
				c0,0.8,0,1.5-0.5,2.1c-0.4,0.4-0.9,0.1-1.3-0.1c-1.1-0.6-2.4-1-3.6-1c-3.8,0-6,2-6.4,5.8C99.4,115.2,99.4,115.7,99.4,116.2z"/>
			<path class="st1" d="M117.3,99.8c-0.9,0-1.9,0-2.8-0.4c-1.8-0.8-2.5-2-2.3-3.8c0.6-3.1,1.4-6.4,2-9.6c0.1-0.6,0.5-0.8,1.1-0.9
				c2.4-0.1,2.4-0.1,1.9,2.3c-0.5,2.5-1.1,4.9-1.6,7.4c-0.3,1.5,0.1,2.1,1.6,2.5c2.3,0.6,4.3-0.5,4.9-2.8c0.6-2.8,1.3-5.5,1.9-8.3
				c0.3-1,1.6-1.6,2.5-1.1c0.4,0.3,0.3,0.5,0.3,0.8c-0.8,3.1-1.1,6.3-2.1,9.3C123.7,98.5,121.4,99.8,117.3,99.8z"/>
			<path class="st1" d="M178.4,119.4c-1.5-0.5-2.6,0.4-3.4,2c-0.1,0.4-0.4,0.6-0.5,0.9c-0.6,1-2,1.5-3.1,1.1c-0.8-0.3-0.3-0.8,0-1
				c1.6-2.5,3.3-5,4.8-7.4c1.1-1.8,2.3-3.4,3.4-5.2c0.5-0.8,2.1-1.1,2.9-0.8c0.4,0.1,0.4,0.5,0.5,0.8c0.9,4.3,1.6,8.4,2.5,12.7
				c0.1,0.6-0.1,0.9-0.8,0.9c-0.1,0-0.3,0-0.4,0c-2.6,0-2.1,0-2.5-2C181.3,119,181.8,119.4,178.4,119.4z M180.4,112.8
				c-0.1,0-0.3,0-0.3-0.1c-0.8,1.3-1.5,2.6-2.3,3.9c-0.1,0.3-0.1,0.5,0.3,0.5c0.9,0,1.6,0,2.5,0c0.4,0,0.5-0.4,0.4-0.8
				C180.8,115.2,180.5,114.1,180.4,112.8z"/>
			<path class="st1" d="M187.9,71.8c-1.8-0.6-2.8,0.5-3.5,2.3c-0.6,1.4-1.5,2-3.1,1.8c-0.9-0.1-0.9-0.4-0.5-1c1-1.5,1.9-2.9,2.9-4.4
				c1.8-2.8,3.6-5.5,5.4-8.4c0.5-0.8,2.3-1.1,2.9-0.6c0.3,0.1,0.4,0.5,0.4,0.8c0.8,4.1,1.6,8.4,2.4,12.6c0.1,0.8-0.1,1-0.9,1
				c-2.8,0-2.3,0.3-2.8-2.3C190.8,71.5,191.3,71.8,187.9,71.8z M190,65.2c-0.1,0-0.1,0-0.3-0.1c-0.8,1.4-1.6,2.6-2.4,4
				c-0.4,0.6,0,0.8,0.5,0.8c0.6,0,1.3,0,2,0s0.9-0.4,0.8-1C190.3,67.6,190.1,66.4,190,65.2z"/>
			<path class="st1" d="M153,123.4c-1.6,0-1.6,0-2-1.6c-0.5-2.8,0.1-2.3-2.8-2.5c-2.3-0.3-3.5,0.6-4.3,2.6c-0.5,1.4-1.6,1.8-3,1.6
				c-0.6-0.1-1-0.3-0.5-0.9c2.8-4.3,5.7-8.7,8.4-12.9c0.6-1,1.6-0.6,2.5-0.6c0.9,0,0.8,0.8,0.9,1.3c0.8,3.8,1.5,7.7,2.1,11.4
				C154.9,123.4,154.9,123.4,153,123.4z M149.7,112.9c-0.1,0-0.3,0-0.4,0c-0.8,1.3-1.5,2.5-2.3,3.8c-0.1,0.1-0.1,0.4,0,0.5
				c0.3,0.3,3,0.1,3.1-0.1c0-0.1,0.1-0.3,0-0.4C150.1,115.3,149.9,114.2,149.7,112.9z"/>
			<path class="st1" d="M259,75.9c-1.8,0-1.8,0-2-1.6c-0.5-2.5,0-2.4-2.8-2.4c-3.5,0-2.5-0.5-4.3,2.4c-0.8,1.3-1.6,1.8-3,1.5
				c-0.9-0.1-0.9-0.4-0.5-1c0.9-1.3,1.6-2.5,2.4-3.8c1.9-2.9,3.8-5.8,5.7-8.7c0.6-1,1.9-1.4,2.9-1c0.4,0.1,0.5,0.5,0.6,0.9
				c0.8,4.1,1.6,8.4,2.4,12.6C260.7,76.2,259.5,75.6,259,75.9z M255.6,65.3c-0.1,0-0.3,0-0.3,0c-0.4,0.8-0.9,1.4-1.3,2.1
				s-1.4,1.5-1,2.3c0.4,0.6,1.6,0.1,2.5,0.3c0.1,0,0.1,0,0.3,0c0.4,0,0.5-0.3,0.5-0.6C256,67.9,255.7,66.6,255.6,65.3z"/>
			<path class="st1" d="M122.5,123.4c-1.6,0-1.6,0-1.9-1.6c-0.5-2.8,0-2.3-2.9-2.5c-2.4-0.3-3.5,0.9-4.3,2.8
				c-0.5,1.3-1.5,1.6-2.8,1.5c-0.9-0.1-1-0.3-0.5-1c1.8-2.8,3.6-5.5,5.4-8.3c1-1.5,2-2.9,2.9-4.4c0.6-1.1,1.8-0.8,2.6-0.8
				c0.9,0,0.8,0.9,0.9,1.4c0.8,3.8,1.5,7.5,2.1,11.3C124.3,123.5,124.3,123.5,122.5,123.4z M117.9,117.3c0.3,0,0.5,0,0.8,0
				c1,0.1,1.3-0.3,1-1.3c-0.3-0.9-0.3-1.8-0.5-2.6c0-0.3,0-0.5-0.3-0.5c-0.1,0-0.3,0.3-0.4,0.4c-0.5,0.8-1,1.6-1.5,2.4
				c-0.3,0.5-0.9,0.9-0.6,1.4C116.8,117.6,117.6,117.2,117.9,117.3z"/>
			<path class="st1" d="M144.5,75.9c-1.4,0-2.8,0-4,0c-1,0-1.1-0.4-0.9-1.1c0.9-4,1.8-8.2,2.6-12.2c0.1-0.9,0.5-1.1,1.4-1.1
				c2.5,0,5,0,7.4,0c0.5,0,1.1-0.1,1,0.8c-0.1,0.6,0,1.5-1.1,1.5c-1.5,0-2.9,0-4.4,0c-1,0-1.4,0.3-1.6,1.3c-0.5,2.6-0.8,2.4,2,2.4
				c0.8,0,1.5,0,2.1,0c0.5,0,1.1-0.1,1,0.6c-0.1,0.6,0,1.4-1,1.4c-1.4,0-2.8,0-4,0c-0.8,0-1.1,0.3-1.3,1c-0.1,0.9-0.4,1.6-0.5,2.5
				c-0.1,0.6,0,0.9,0.8,0.9c1.6,0,3.3,0,4.9,0c0.5,0,1.1-0.1,1,0.8c-0.1,0.6,0,1.5-1.1,1.5C147.3,75.7,146,75.7,144.5,75.9
				L144.5,75.9z"/>
			<path class="st1" d="M264.5,99.5c-1.6,0-1.6,0-1.9-1.6c-0.5-2.8,0-2.1-2.8-2.4c-2-0.1-3.4,0.4-4.1,2.4c-0.5,1.4-1.5,1.9-3,1.6
				c-0.8-0.1-1-0.3-0.5-0.9c1.1-1.8,2.3-3.4,3.4-5.2c1.6-2.5,3.3-5,4.9-7.5c0.8-1.1,1.8-0.8,2.6-0.8c0.9,0,0.8,0.9,0.9,1.4
				c0.8,3.8,1.5,7.4,2.1,11.2C266.3,99.5,266.3,99.5,264.5,99.5z M261.1,88.6c-1,1.6-1.8,2.9-2.5,4.3c-0.3,0.4-0.3,0.8,0.3,0.8
				c0.8,0,1.5,0,2.1,0s0.8-0.4,0.6-0.9C261.5,91.5,261.4,90.2,261.1,88.6z"/>
			<path class="st1" d="M163.6,99.5c-1.8,0-1.6,0-2-1.5c-0.5-2.6,0-2.4-2.8-2.4c-3.4,0-2.5-0.5-4.1,2.4c-0.8,1.4-1.6,1.8-3.1,1.6
				c-0.9-0.1-0.9-0.4-0.5-0.9c1.3-1.9,2.4-3.6,3.5-5.5c1.5-2.4,3-4.8,4.7-7c0.5-0.8,2.3-1.3,3-0.8c0.4,0.3,0.4,0.6,0.5,1
				c0.8,4.1,1.6,8.2,2.4,12.3C165.4,100.1,164.1,99.2,163.6,99.5z M160.2,89.1c-0.1,0-0.3,0-0.3-0.1c-0.6,1.1-1.4,2.3-2,3.4
				c-0.1,0.3-0.6,0.8-0.3,0.9c0.9,0.4,1.9,0.1,2.8,0.1c0.4,0,0.5-0.3,0.4-0.6C160.5,91.6,160.4,90.3,160.2,89.1z"/>
			<path class="st1" d="M243.3,99.5c-0.4,0-0.6,0-0.9,0c-0.9,0.1-1-0.3-0.9-1c0.4-1.9,0.9-3.8,1.3-5.7c0.5-2.1,1-4.3,1.4-6.3
				c0.1-0.9,0.5-1.4,1.5-1.4c1.8-0.1,3.4-0.1,5.2,0c1.8,0.1,3.1,0.8,3.6,2.6c0.4,1.6-0.4,3.8-1.9,4.9s-3.3,1.5-5.2,1.4
				c-1.3-0.1-1.8,0.4-1.9,1.5c-0.1,0.9-0.4,1.6-0.5,2.5C244.9,99.1,244.4,99.9,243.3,99.5z M248.7,87.1c-0.5,0.1-1.1-0.3-1.4,0.5
				c-0.4,1.3-0.6,2.5-0.9,3.9c-0.1,0.4,0,0.6,0.4,0.6c1.1,0,2.3,0,3.1-0.8s1.4-2.1,0.9-3.1C250.5,87.1,249.7,87.1,248.7,87.1z"/>
			<path class="st1" d="M233.7,99.5c-1.4,0-2.9,0-4.3,0c-0.6,0-0.9-0.3-0.8-0.9c0.9-4.3,1.9-8.5,2.8-12.7c0.1-0.6,0.5-0.8,1.1-0.8
				c2.6,0,5.2,0,7.8,0c0.4,0,1-0.1,0.9,0.5c-0.1,0.6,0,1.5-1,1.5c-1.5,0-3,0.1-4.7,0c-0.9,0-1.3,0.4-1.5,1.1
				c-0.6,2.6-0.6,2.6,2.1,2.6c0.6,0,1.3,0,2,0c0.4,0,1.1-0.3,1,0.6c0,0.6-0.1,1.4-1.1,1.4c-1.3,0-2.5,0-3.8,0c-1,0-1.5,0.4-1.6,1.3
				c-0.1,0.8-0.3,1.4-0.5,2.1c-0.1,0.6,0,0.9,0.8,0.9c1.6,0,3.3,0,4.9,0c0.4,0,1.1-0.3,1.1,0.6c0,0.8-0.1,1.5-1.1,1.5
				C236.6,99.5,235.1,99.5,233.7,99.5z"/>
			<path class="st1" d="M185.6,99.5c-1.4,0-2.9,0-4.3,0c-0.6,0-0.9-0.3-0.8-0.9c0.9-4.1,1.9-8.4,2.8-12.6c0.1-0.8,0.5-0.9,1.3-0.9
				c2.5,0,5.2,0,7.7,0c0.4,0,1-0.1,0.9,0.5s0,1.5-1,1.5c-1.5,0-3,0.1-4.5,0c-1,0-1.4,0.4-1.6,1.3c-0.5,2.5-0.5,2.5,2.1,2.5
				c0.6,0,1.4,0,2,0c0.4,0,1.1-0.3,1.1,0.6c0,0.8-0.1,1.4-1.1,1.4c-1.3,0-2.5,0-3.9,0c-0.9,0-1.3,0.3-1.4,1.1
				c-0.1,0.8-0.3,1.6-0.5,2.4c-0.1,0.6,0.1,0.9,0.8,0.9c1.6,0,3.3,0,4.9,0c0.5,0,1.1-0.3,1.1,0.6c0,0.8-0.1,1.5-1.3,1.5
				C188.4,99.5,186.9,99.5,185.6,99.5z"/>
			<path class="st1" d="M174,99.8c-0.8,0-1.5,0-2.1-0.1c-4-0.8-5.8-4-4.9-8.2c0.8-3.5,4-6.2,7.7-6.5c1.8-0.1,3.4-0.1,5.2,0.4
				c1,0.3,1.1,0.9,0.6,2.1c-0.4,1-1,0.5-1.5,0.3c-1.4-0.8-2.8-0.9-4.3-0.8c-0.6,0-1.3,0.3-1.8,0.6c-2.5,1.4-3.6,6.2-2,8.5
				c1,1.5,3,2.1,5.3,1.5c0.6-0.1,1.3-0.5,1.9-0.8c0.8-0.3,1,0,0.9,0.8c-0.1,1-0.6,1.8-1.8,1.9C176,99.6,175,99.8,174,99.8z"/>
			<path class="st1" d="M150.5,87.3c-0.3,0-0.4,0-0.6,0c-3,0-3,0-3.4,3c-0.1,0.6,0.1,0.9,0.8,0.9c1.3,0,2.6,0,3.9,0
				c0.5,0,1.1-0.3,1.1,0.6c0,0.8-0.1,1.5-1.1,1.5c-1.3,0-2.5,0-3.8,0c-1.6,0-1.6,0-1.9,1.6c-0.3,1.1-0.5,2.3-0.8,3.3
				c-0.1,1-0.6,1.4-1.6,1.4c-2-0.1-2.1,0.3-1.6-1.9c0.8-3.8,1.6-7.5,2.4-11.4c0.1-0.8,0.5-1.1,1.3-1.1c2.6,0,5.4,0,8,0
				c0.4,0,1-0.1,1,0.5c-0.1,0.6,0,1.5-1,1.5C152.4,87.3,151.5,87.2,150.5,87.3C150.5,87.2,150.5,87.3,150.5,87.3z"/>
			<path class="st1" d="M134.3,61.3c1.9,0,3.8,0,5.7,0c0.4,0,1.1-0.1,1,0.6c-0.1,0.6,0,1.6-1,1.6c-0.9,0-1.9,0.1-2.8,0
				c-1.1-0.1-1.8,0.3-2,1.5c-0.6,3.1-1.3,6.3-2,9.4c-0.1,0.5,0,1.1-0.6,1.3c-0.9,0.1-1.8,0.3-2.6-0.1c-0.4-0.1-0.1-0.6-0.1-1
				c0.8-3.3,1.4-6.5,2.1-9.8c0.3-1.3,0.3-1.3-1-1.3c-0.8,0-1.6,0-2.4,0c-0.5,0-1.3,0.3-1.3-0.6c0-1.1,0.4-1.5,1.4-1.5
				C130.5,61.3,132.4,61.3,134.3,61.3z"/>
			<path class="st1" d="M202.8,61.3c1.9,0,3.6,0,5.5,0c0.5,0,1.3-0.3,1.1,0.8c-0.1,0.8-0.1,1.5-1.1,1.5c-1,0-2.1,0-3.1,0
				c-0.8,0-1.1,0.3-1.3,1c-0.6,3.3-1.4,6.4-2,9.7c-0.4,1.6-0.4,1.6-2,1.6s-1.6,0-1.3-1.6c0.6-3.1,1.4-6.2,2-9.3
				c0.3-1.3,0.3-1.4-1.1-1.4c-0.8,0-1.6,0-2.4,0c-0.4,0-1.1,0.3-1.1-0.5c0-0.8,0-1.6,1.1-1.6c1,0,2,0,3,0
				C200.8,61.3,201.8,61.3,202.8,61.3z"/>
			<path class="st1" d="M217.7,108.9c1.9,0,3.6,0,5.5,0c0.4,0,1.1-0.1,1,0.6c-0.1,0.6,0,1.6-1,1.6c-1,0-2,0.1-3,0
				c-1.1-0.1-1.5,0.4-1.8,1.4c-0.6,3.1-1.4,6.3-2,9.4c-0.1,0.5,0,1.3-0.8,1.4c-0.9,0.1-1.8,0.3-2.5-0.1c-0.5-0.3-0.3-0.8-0.1-1.1
				c0.6-3.1,1.4-6.2,2-9.3c0.4-1.6,0.4-1.6-1.4-1.6c-0.8,0-1.5,0-2.1,0c-0.5,0-1.1,0.1-1-0.6c0.1-0.6,0-1.5,1.1-1.5
				C213.7,108.9,215.7,108.9,217.7,108.9L217.7,108.9z"/>
			<path class="st1" d="M303,85.2c1.9,0,3.8,0,5.7,0c0.4,0,1-0.1,0.9,0.6c-0.1,0.6,0,1.4-0.9,1.5c-1,0-2,0.1-3,0
				c-1-0.1-1.5,0.3-1.6,1.4c-0.6,3.1-1.4,6.3-2,9.4c-0.3,1.3-0.6,1.6-1.9,1.6c-1.8-0.1-1.8,0-1.4-1.8c0.6-3.1,1.4-6.3,2-9.4
				c0.3-1-0.1-1.1-1-1.1s-1.8,0-2.6,0c-0.4,0-1.1,0.3-1.1-0.6c0-0.8,0.1-1.5,1.1-1.5c1.3,0,2.5,0,3.9,0
				C301.7,85.2,302.3,85.2,303,85.2z"/>
			<path class="st1" d="M203.9,123.4c-1.3,0-2.6,0-3.9,0c-0.9,0-1.4-0.3-1.1-1.3c0.9-3.9,1.8-7.8,2.5-11.8c0.3-1.3,0.9-1.5,2-1.5
				c1.6,0.1,1.6,0,1.3,1.6c-0.8,3.3-1.4,6.4-2.1,9.7c-0.3,0.9,0.1,1.1,0.9,1.1c1.5,0,3,0,4.7,0c0.4,0,1.1-0.1,1,0.6
				c0,0.6,0,1.6-1,1.6C206.8,123.5,205.4,123.4,203.9,123.4L203.9,123.4z"/>
			<path class="st1" d="M267.5,75.9c-1.4,0-2.8,0-4,0c-0.8,0-1.1-0.3-0.9-1c0.9-4.1,1.9-8.4,2.8-12.7c0.1-0.6,0.5-0.8,1.1-0.9
				c2.4-0.1,2.5-0.1,2,2.3c-0.6,2.9-1.3,5.9-1.9,8.8c-0.3,1.3-0.3,1.3,1.1,1.3c1.5,0,2.9,0,4.4,0c0.4,0,1.1-0.1,1,0.6
				c0,0.6,0,1.6-1,1.6C270.4,75.9,269,75.7,267.5,75.9C267.5,75.7,267.5,75.7,267.5,75.9z"/>
			<path class="st1" d="M104.6,75.9c-0.1,0-0.4,0-0.5,0c-1.3,0-1.4-0.1-1-1.4c1-4.7,2-9.3,3-14c0.3-0.9,0.6-1.3,1.5-1.3
				c2.9,0,2.5-0.1,2,2.4c-0.9,4.1-1.8,8.2-2.6,12.3C106.4,75.9,106.7,75.9,104.6,75.9z"/>
			<path class="st1" d="M209.9,75.9c-1.8,0-1.8,0-1.4-1.6c0.9-3.9,1.6-7.7,2.5-11.6c0.3-1.1,2.3-1.9,3.3-1.1
				c0.3,0.3,0.3,0.5,0.1,0.8c-0.9,4.3-1.9,8.5-2.8,12.7C211.5,76.1,210.6,75.7,209.9,75.9z"/>
			<path class="st1" d="M310.3,99.5c-1.9,0-1.9,0-1.5-1.8c0.9-3.8,1.6-7.5,2.5-11.2c0.1-0.5,0-1.3,0.8-1.4c0.8-0.1,1.6-0.3,2.5,0
				c0.4,0.1,0.3,0.5,0.3,0.9c-0.9,4.3-1.9,8.4-2.8,12.7C311.8,99.9,310.9,99.4,310.3,99.5z"/>
			<path class="st1" d="M188.8,120.5c1.1,0,2,1,1.9,2.4c-0.1,1-0.5,1.8-1.1,2.4c-0.8,0.8-1.8,1.3-2.8,1.8c-0.5,0.3-0.8,0-1-0.4
				c-0.3-0.5,0-0.8,0.4-0.9c0.4-0.3,0.8-0.4,1.1-0.6c1-0.8,1.1-1,0.3-2c-0.4-0.5-0.5-1-0.3-1.5C187.6,120.9,188.2,120.5,188.8,120.5
				z"/>
			<path class="st1" d="M242.3,121.7c0,1-0.8,1.8-1.8,1.8c-1,0-1.8-0.8-1.8-1.6s0.9-1.8,1.8-1.8
				C241.2,120.1,242.1,120.9,242.3,121.7z"/>
		</g>
	</g>
	<g>
		<path class="st1" d="M77.5,107.9c-0.3-0.1-0.5-0.1-0.9,0c-7,1-14.2,1.6-21.4,1.3c-3.6-0.1-7.4-0.5-11.1-1.3c-2.4-0.5-4.8-1-7.2-2
			c0.4,0,0.5-0.1,0.5,0c6.8,1,13.6,1,20.4,0.5c7.4-0.6,14.7-1.9,21.9-3.8c0.5-0.1,0.8-0.4,1-0.6c0.3-0.6,2-6.5,2.3-7.8
			c0.1-0.9-0.1-0.8-1.4-0.5c-8,2-16.3,3.1-24.6,3.4c-6,0.3-12.2,0.1-18.2-0.6c-6.3-0.8-12.4-2-18.4-4.5c-0.4-0.1-0.8-0.4-1.1-0.5
			c6.4,1.4,12.9,2.1,19.5,2.4c9.1,0.3,18.1-0.4,27-2c5.7-1,11.2-2.4,16.7-4.3c0.9-0.3,1.3-0.8,1.3-1.5c0,0.1,0-0.3,0-0.4
			c-0.1-2.8-0.5-5.7-0.6-6.2c-0.1-0.6-0.4-0.6-1.4-0.4c-10.3,3.4-20.9,4.7-31.6,5c-6.9,0.3-13.8-0.3-20.7-1.4
			c-7.2-1.1-14.2-2.9-20.9-6c-0.4-0.3-0.8-0.4-1.1-0.6c-0.4-0.3-0.8-0.4-1-0.6c10.1,3.4,20.5,4.7,30.9,4.9c7,0.1,14.1-0.3,21-1.3
			c7.3-1,14.5-2.8,21.4-5.4c1.3-0.5,1.6-0.6,1.5-1.3c-5.5-16-21-27.5-39-27.5c-22.9,0-41.5,18.6-41.5,41.5s18.6,41.5,41.5,41.5
			c15,0,27.9-7.9,35.3-19.6C77.6,108,77.5,108,77.5,107.9z"/>
	</g>
</g>
</svg>
