<?xml version="1.0" encoding="utf-8"?>
<!-- Generator: Adobe Illustrator 21.0.0, SVG Export Plug-In . SVG Version: 6.00 Build 0)  -->
<svg version="1.1" id="Layer_1" xmlns="http://www.w3.org/2000/svg" xmlns:xlink="http://www.w3.org/1999/xlink" x="0px" y="0px"
	 viewBox="0 0 276 66" style="enable-background:new 0 0 276 66;" xml:space="preserve">
<style type="text/css">
	.st0{fill:#FFFFFF;}
</style>
<g>
	<g>
		<g>
			<path class="st0" d="M276,32.9c-0.8,2.4-1.2,5-1.9,7.4c-0.2,0.7-0.3,1.5-0.5,2.2c-0.1,0.4-0.1,0.8-0.7,0.9
				c-0.6,0-1.1,0.1-1.4-0.5c-1.2-2.1-2.4-4.2-3.6-6.3c-0.2-0.3-0.2-0.6-0.7-0.8c-0.3,1.5-0.6,2.9-0.9,4.3c-0.2,0.9-0.4,1.8-0.5,2.6
				c-0.1,0.3-0.2,0.6-0.5,0.6c-0.5,0-1.1,0.2-1.5-0.1c-0.2-0.1-0.1-0.4,0-0.6c0.8-3.4,1.6-6.7,2.5-10.1c0.1-0.4,0.3-0.7,0.7-0.6
				c0.7,0,1.4-0.2,1.8,0.6c1.1,1.9,2.2,3.9,3.3,5.8c0.2,0.3,0.3,0.5,0.5,0.9c0.4-0.7,0.4-1.4,0.5-2c0.3-1.4,0.6-2.8,0.8-4.2
				c0.1-0.9,0.5-1.2,1.4-1.1c0.3,0,0.6,0,0.9,0C276,32.3,276,32.6,276,32.9z"/>
			<path class="st0" d="M218.1,31.8c0.8,0,1.6,0,2.4,0.1c1.3,0.2,2.2,0.9,2.5,2c0.3,1.3-0.1,2.6-1.2,3.3c-0.3,0.2-0.6,0.4-0.9,0.5
				c-1.3,0.4-1,0.6-0.7,1.7c0.2,0.7,0.5,1.4,1,2c0.8,1.1,1.9,1.1,2.6,0c1.9-2.9,3.8-5.9,5.7-8.8c0.4-0.6,1.8-1,2.4-0.6
				c0.3,0.2,0.3,0.5,0.4,0.7c0.6,3.2,1.2,6.5,1.9,9.7c0.1,0.7-0.1,1-0.8,0.9c-2,0-1.8,0.2-2.1-1.7c-0.3-1.5-0.3-1.4-1.8-1.5
				c-1.9-0.2-3.2,0.3-3.9,2.2c-0.3,0.8-1,1.2-1.9,1.1c-0.5-0.1-1.1,0-1.6,0.1c-1.7,0.3-2.9-0.4-3.7-2c-0.3-0.7-0.5-1.4-0.8-2
				c-0.2-0.4-0.1-1-0.9-1c-0.8,0-0.7,0.7-0.8,1.1c-0.2,1-0.4,1.9-0.6,2.9c-0.1,0.6-0.4,0.9-1,0.9c-1.9,0-1.8,0.2-1.4-1.7
				c0.6-2.8,1.3-5.7,1.8-8.5c0.2-0.8,0.4-1.3,1.4-1.3C216.8,31.9,217.4,31.9,218.1,31.8z M217.8,37.1c0.5,0,0.9,0,1.4-0.2
				c0.9-0.4,1.4-1.4,1.2-2.4c-0.2-0.8-0.7-1-2.1-1.1c-1.2-0.1-1,0.8-1.2,1.4c-0.1,0.3-0.2,0.7-0.2,1
				C216.6,37.1,216.6,37.1,217.8,37.1z M230.2,34.8c-0.8,1.3-1.4,2.3-2,3.4c-0.1,0.1-0.1,0.3,0.1,0.4c0.2,0.1,2.3,0.1,2.4,0
				c0.1-0.1,0.1-0.2,0.1-0.3C230.6,37.2,230.5,36.1,230.2,34.8z"/>
			<path class="st0" d="M127.1,62.4c-0.8,0-1.6,0-2.4,0c-0.5,0-0.8-0.2-0.7-0.8c0.7-3.3,1.5-6.7,2.2-10c0.1-0.6,0.4-0.8,1-0.8
				c1.3,0,2.6,0,3.9,0c4-0.2,6,3.3,4.8,6.9c-1,2.9-3.5,4.6-6.8,4.7C128.5,62.5,127.8,62.5,127.1,62.4
				C127.1,62.5,127.1,62.5,127.1,62.4z M133.6,55.7c0-1.8-0.6-2.9-2-3.2c-0.8-0.2-1.6-0.1-2.3-0.1c-0.4,0-0.6,0.3-0.7,0.7
				c-0.5,2.3-1,4.6-1.5,6.9c-0.1,0.5,0.1,0.6,0.5,0.7C130.9,61,133.4,59.9,133.6,55.7z"/>
			<path class="st0" d="M163.2,38.5c-0.7-0.3-0.9,0.1-1,0.8c-0.2,1.2-0.5,2.3-0.7,3.5c-0.1,0.5-0.4,0.7-0.9,0.7
				c-2.7,0-2.3,0.2-1.8-2c0.7-3.4,1.5-6.8,2.2-10.2c0.1-0.7,0.5-1,1.2-1c1.6,0,3.3-0.1,4.9,0.1c1.5,0.2,2.8,0.7,3.2,2.4
				c0.4,1.7-0.2,3.2-1.5,4.3c-1,0.8-2.1,1.2-3.4,1.3C164.6,38.4,163.9,38.4,163.2,38.5z M164.9,32.1c-0.5,0.1-1.1-0.2-1.3,0.6
				c-0.3,1.1-0.5,2.3-0.7,3.4c-0.1,0.3,0,0.5,0.4,0.5c1,0,2,0.1,2.8-0.6c0.8-0.6,1.3-1.9,0.9-2.9C166.7,32,165.8,32.1,164.9,32.1z"
				/>
			<path class="st0" d="M179.6,62.4c-0.8,0-1.6,0-2.4,0c-0.5,0-0.8-0.2-0.7-0.8c0.7-3.4,1.5-6.8,2.2-10.1c0.1-0.5,0.4-0.6,0.8-0.6
				c1.6,0,3.3-0.1,4.9,0c3.1,0.2,4.9,2.8,4.3,6c-0.7,3.3-3.4,5.4-7.1,5.5C181,62.5,180.3,62.5,179.6,62.4
				C179.6,62.5,179.6,62.4,179.6,62.4z M186.2,55.6c0-1.8-0.8-2.9-2.2-3.1c-0.7-0.1-1.4,0-2.1-0.1c-0.4,0-0.6,0.2-0.7,0.6
				c-0.5,2.3-1,4.7-1.5,7c-0.1,0.4,0,0.6,0.4,0.6C183.4,61,185.9,59.9,186.2,55.6z"/>
			<path class="st0" d="M255.8,43.6c-4.6,0.2-6.4-3.6-4.8-7.6c1.2-3,3.9-4.4,7.7-4.2c2.3,0.2,4.1,1.9,4.4,4.2c0.3,2.8-1.6,5.9-4.2,7
				C257.8,43.5,256.8,43.7,255.8,43.6z M260.3,36.8c0-1.7-0.5-2.7-1.6-3.1c-1.3-0.5-3.1-0.2-4,0.9c-1.5,1.7-1.7,3.8-1.1,5.9
				c0.2,0.8,0.9,1.3,1.8,1.5c1.6,0.3,3.1-0.3,4-1.7C259.9,39.2,260.3,38,260.3,36.8z"/>
			<path class="st0" d="M175.9,24.7c-3.6,0-5.6-2.3-5.1-5.9c0.7-5.3,6-6.9,9.5-5.7c2.3,0.8,3.4,3.1,2.9,5.8
				C182.5,22.5,179.6,24.7,175.9,24.7z M173.4,19.5c0,0.3,0,0.7,0.1,1c0.2,1.4,1,2.3,2.3,2.5c1.5,0.2,2.7-0.3,3.6-1.5
				c0.8-1.1,1.2-2.4,1.2-3.8c0-1.3-0.3-2.5-1.6-3c-1.4-0.6-2.7-0.4-3.8,0.6C173.9,16.5,173.5,17.9,173.4,19.5z"/>
			<path class="st0" d="M129.3,24.7c-1.1-0.1-2-0.4-2.6-1.4c-0.6-0.9-0.9-1.9-1.2-3c-0.1-0.5-0.3-0.8-0.9-0.7
				c-0.6,0-0.6,0.5-0.7,0.9c-0.2,1-0.4,2-0.6,3.1c-0.1,0.7-0.4,1-1.1,1c-1.7,0-1.7,0-1.4-1.7c0.7-3,1.3-5.9,1.9-8.9
				c0.2-0.8,0.5-1,1.2-1c1.3,0,2.5,0,3.8,0c1.9,0.1,3,0.9,3.3,2.3c0.3,1.5-0.6,3-2.3,3.6c-0.9,0.3-1,0.7-0.6,1.5
				c0.3,0.7,0.5,1.4,0.9,2c0.3,0.4,0.6,0.7,1.1,0.9c0.3,0.1,0.8,0,0.7,0.6c-0.1,0.5-0.4,0.7-0.8,0.8
				C129.7,24.7,129.5,24.7,129.3,24.7z M126.3,14.6c-0.9-0.2-1.3,0.2-1.4,1.1c0,0.3-0.1,0.6-0.2,0.9c-0.4,1.7-0.1,1.9,1.6,1.6
				c0.1,0,0.3-0.1,0.4-0.1c1.1-0.4,1.6-1.3,1.4-2.5C127.9,14.5,127,14.7,126.3,14.6z"/>
			<path class="st0" d="M106.1,31.9c0.7,0,1.5,0,2.2,0.1c1.2,0.2,2.1,0.7,2.5,1.9c0.4,1.3,0,2.4-1,3.3c-0.4,0.4-0.9,0.6-1.4,0.8
				c-0.7,0.2-0.8,0.6-0.5,1.2c0.3,0.7,0.5,1.5,0.9,2.2c0.3,0.5,0.7,0.9,1.3,1c0.3,0.1,0.7,0,0.6,0.5c-0.1,0.4-0.3,0.7-0.7,0.8
				c-1.2,0.2-2.3,0-3.1-1c-0.8-0.9-1.1-2-1.5-3.1c-0.1-0.3-0.1-0.6-0.4-0.8c-0.4-0.3-1-0.1-1.2,0.5c-0.3,1.1-0.5,2.2-0.7,3.3
				c-0.1,0.7-0.4,0.9-1.1,0.9c-2.1,0-1.8,0.1-1.4-1.7c0.6-3,1.3-5.9,1.9-8.9c0.1-0.6,0.4-0.9,1-0.9
				C104.5,31.9,105.3,31.9,106.1,31.9z M105.7,37.1c0.7,0,1.5-0.2,2.1-0.9c0.6-0.7,0.6-2,0-2.4c-0.7-0.5-1.6-0.5-2.4-0.3
				c-0.6,0.1-0.4,0.8-0.6,1.3c-0.1,0.4-0.2,0.7-0.2,1.1C104.4,37.1,104.4,37.1,105.7,37.1z"/>
			<path class="st0" d="M175.5,31.8c0.8,0,1.6,0,2.4,0.2c1.3,0.2,2.2,0.9,2.5,2c0.3,1.2-0.2,2.5-1.1,3.3c-0.3,0.2-0.7,0.5-1.1,0.6
				c-1,0.2-1,0.8-0.6,1.5c0.3,0.6,0.6,1.3,0.8,1.9c0.2,0.5,0.7,0.9,1.2,1c0.3,0.1,0.7,0,0.6,0.4c0,0.4-0.3,0.7-0.7,0.8
				c-1.2,0.4-2.6-0.1-3.3-1.2c-0.6-0.9-1-2-1.3-3c-0.1-0.4-0.3-0.8-0.8-0.8c-0.6,0-0.6,0.4-0.7,0.8c-0.2,1.1-0.5,2.1-0.6,3.2
				c-0.1,0.7-0.4,0.9-1.1,0.9c-1.8,0-1.8,0-1.4-1.7c0.6-2.9,1.3-5.8,1.9-8.7c0.1-0.7,0.4-1.2,1.2-1.1
				C174.1,32,174.8,31.9,175.5,31.8z M175,37.1c1.6,0,2.5-0.7,2.7-1.9c0.1-0.9-0.2-1.5-1.2-1.6c-1.5-0.3-1.8-0.2-2.1,1
				c-0.1,0.5-0.2,1-0.3,1.4C173.9,37.1,173.9,37.1,175,37.1z"/>
			<path class="st0" d="M96,20.4c0.4-2.1,0.8-4.2,1.2-6.2c0.2-1.2,0.3-1.2,1.5-1.2c0.7,0,0.9,0.2,0.7,0.9c-0.6,2.5-1.2,5-1.8,7.6
				c-0.2,0.7-0.3,1.4-0.5,2c-0.1,0.4-0.1,1-0.8,1.1c-0.7,0.1-1.1-0.2-1.5-0.8c-1-1.8-2-3.5-3-5.2c-0.3-0.6-0.6-1.1-1-1.7
				c-0.4,0.4-0.4,0.9-0.5,1.3c-0.4,1.8-0.7,3.6-1.1,5.5c-0.2,0.8-1.3,1.3-2,0.9c-0.3-0.2-0.2-0.4-0.2-0.6c0.8-3.4,1.7-6.8,2.5-10.3
				c0.1-0.5,0.4-0.6,0.8-0.6c0.6,0,1.3-0.1,1.7,0.6c1,1.9,2.1,3.8,3.2,5.7C95.4,19.7,95.5,20,96,20.4z"/>
			<path class="st0" d="M192.7,20.3c0.4-0.9,0.4-1.8,0.6-2.6c0.3-1.3,0.5-2.6,0.8-3.9c0.1-0.7,1.4-1.2,2-0.7
				c0.3,0.2,0.2,0.4,0.1,0.6c-0.8,3.4-1.6,6.8-2.5,10.2c-0.1,0.4-0.3,0.6-0.7,0.6c-0.5,0-1,0-1.3-0.5c-1-1.9-2.1-3.7-3.2-5.5
				c-0.3-0.5-0.6-1.1-1-1.7c-0.4,0.4-0.4,0.9-0.5,1.4c-0.4,1.8-0.8,3.7-1.2,5.6c-0.2,0.7-1.4,1.2-2,0.8c-0.2-0.2-0.2-0.4-0.1-0.6
				c0.8-3.4,1.7-6.8,2.5-10.3c0.1-0.5,0.4-0.6,0.8-0.6c0.6,0,1.2-0.1,1.6,0.6c1,1.9,2.1,3.8,3.2,5.7C192.2,19.7,192.3,20,192.7,20.3
				z"/>
			<path class="st0" d="M103.3,54.5c-0.5,2.4-1,4.6-1.4,6.7c-0.3,1.3-0.3,1.3-1.5,1.3c-0.7,0-0.8-0.3-0.7-0.9
				c0.6-2.2,1.1-4.5,1.6-6.7c0.2-1,0.5-2,0.7-3c0.1-0.4,0.1-1,0.8-1c0.7,0,1.4-0.2,1.8,0.6c0.8,1.6,1.8,3.1,2.7,4.7
				c0.4,0.6,0.7,1.3,1.3,2.2c0.3-1.7,0.6-3.1,0.9-4.5c0.2-0.8,0.3-1.6,0.5-2.4c0.2-0.6,0.8-0.8,1.7-0.6c0.7,0.2,0.4,0.7,0.3,1
				c-0.7,3.2-1.5,6.3-2.3,9.5c-0.1,0.4-0.2,0.9-0.8,1c-0.6,0-1.1-0.1-1.4-0.7C106.1,59.4,104.7,57,103.3,54.5z"/>
			<path class="st0" d="M135.2,16.7c-0.4,2.1-0.8,4.1-1.3,6.1c0,0.2-0.1,0.4-0.1,0.6c-0.2,1-1,1.5-2,1.1c-0.5-0.2-0.3-0.6-0.2-0.9
				c0.7-2.9,1.4-5.8,2.1-8.6c0.1-0.3,0.1-0.6,0.2-0.8c0.1-0.5,0.1-1.1,0.8-1.1c0.7,0,1.4-0.1,1.9,0.8c1,1.9,2.1,3.8,3.2,5.7
				c0.2,0.3,0.3,0.5,0.6,0.9c0.4-0.8,0.4-1.6,0.6-2.4c0.3-1.5,0.6-2.9,0.9-4.4c0.1-0.3,0.2-0.6,0.6-0.6c0.5,0,1-0.2,1.4,0.1
				c0.2,0.1,0.1,0.4,0.1,0.7c-0.8,3.3-1.6,6.7-2.4,10c-0.1,0.4-0.2,0.7-0.7,0.7c-0.5,0-1,0-1.3-0.6c-1-1.8-2-3.5-3-5.3
				C136.1,18.1,135.9,17.4,135.2,16.7z"/>
			<path class="st0" d="M84.8,30.1c0.7,0,1.7,0.2,2.6,0.5c0.3,0.1,0.7,0.2,0.7,0.7c-0.1,0.6,0.2,1.2-0.4,1.6c-0.4,0.3-0.8,0-1.1-0.2
				c-0.8-0.5-1.6-0.8-2.6-0.7c-0.6,0.1-1.1,0.4-1.3,1c-0.2,0.6,0,1.1,0.4,1.6c0.6,0.6,1.3,1.1,1.9,1.6c1,0.8,1.8,1.6,1.9,3
				c0.2,2-0.9,3.6-2.9,4.2c-1.9,0.6-3.9,0.3-5.8-0.2c-0.4-0.1-0.7-0.4-0.6-0.8c0-0.5-0.2-1.1,0.3-1.6c0.4-0.3,0.8-0.2,1.2,0.1
				c0.9,0.7,1.9,1,3.1,0.9c0.8-0.1,1.4-0.4,1.7-1.2c0.3-0.8,0-1.4-0.5-1.9c-0.7-0.7-1.5-1.3-2.3-1.9c-1.1-0.9-1.8-2.1-1.5-3.6
				c0.3-1.6,1.4-2.5,2.8-2.9C83.1,30.2,83.8,30.1,84.8,30.1z"/>
			<path class="st0" d="M78.5,56.7c-0.2,3.4,2.4,4.7,5.5,3.9c0.6-0.1,1.1-0.4,1.6-0.6c0.6-0.2,0.9,0,0.8,0.6
				c-0.2,1.2-0.4,1.5-1.7,1.7c-1.4,0.3-2.8,0.4-4.2,0.2c-5.2-0.7-6-5.4-4.7-8.5c1.2-2.9,3.6-4.4,6.7-4.9c1.6-0.3,3.1,0,4.6,0.4
				c0.4,0.1,0.8,0.2,0.8,0.7c0,0.6,0,1.2-0.4,1.7c-0.3,0.3-0.7,0.1-1-0.1c-0.9-0.5-1.9-0.8-2.9-0.8c-3,0-4.8,1.6-5.1,4.6
				C78.5,55.9,78.5,56.3,78.5,56.7z"/>
			<path class="st0" d="M92.7,43.6c-0.7,0-1.5,0-2.2-0.3c-1.4-0.6-2-1.6-1.8-3c0.5-2.5,1.1-5.1,1.6-7.6c0.1-0.5,0.4-0.6,0.9-0.7
				c1.9-0.1,1.9-0.1,1.5,1.8c-0.4,2-0.9,3.9-1.3,5.9c-0.2,1.2,0.1,1.7,1.3,2c1.8,0.5,3.4-0.4,3.9-2.2c0.5-2.2,1-4.4,1.5-6.6
				c0.2-0.8,1.3-1.3,2-0.9c0.3,0.2,0.2,0.4,0.2,0.6c-0.6,2.5-0.9,5-1.7,7.4C97.8,42.6,96,43.6,92.7,43.6z"/>
			<path class="st0" d="M141.3,59.2c-1.2-0.4-2.1,0.3-2.7,1.6c-0.1,0.3-0.3,0.5-0.4,0.7c-0.5,0.8-1.6,1.2-2.5,0.9
				c-0.6-0.2-0.2-0.6,0-0.8c1.3-2,2.6-4,3.8-5.9c0.9-1.4,1.8-2.7,2.7-4.1c0.4-0.6,1.7-0.9,2.3-0.6c0.3,0.1,0.3,0.4,0.4,0.6
				c0.7,3.4,1.3,6.7,2,10.1c0.1,0.5-0.1,0.7-0.6,0.7c-0.1,0-0.2,0-0.3,0c-2.1,0-1.7,0-2-1.6C143.6,58.9,144,59.2,141.3,59.2z
				 M142.9,54c-0.1,0-0.2,0-0.2-0.1c-0.6,1-1.2,2.1-1.8,3.1c-0.1,0.2-0.1,0.4,0.2,0.4c0.7,0,1.3,0,2,0c0.3,0,0.4-0.3,0.3-0.6
				C143.2,55.9,143,55,142.9,54z"/>
			<path class="st0" d="M148.9,21.4c-1.4-0.5-2.2,0.4-2.8,1.8c-0.5,1.1-1.2,1.6-2.5,1.4c-0.7-0.1-0.7-0.3-0.4-0.8
				c0.8-1.2,1.5-2.3,2.3-3.5c1.4-2.2,2.9-4.4,4.3-6.7c0.4-0.6,1.8-0.9,2.3-0.5c0.2,0.1,0.3,0.4,0.3,0.6c0.6,3.3,1.3,6.7,1.9,10
				c0.1,0.6-0.1,0.8-0.7,0.8c-2.2,0-1.8,0.2-2.2-1.8C151.2,21.1,151.6,21.4,148.9,21.4z M150.5,16.1c-0.1,0-0.1,0-0.2-0.1
				c-0.6,1.1-1.3,2.1-1.9,3.2c-0.3,0.5,0,0.6,0.4,0.6c0.5,0,1,0,1.6,0c0.6,0,0.7-0.3,0.6-0.8C150.8,18,150.6,17.1,150.5,16.1z"/>
			<path class="st0" d="M121.1,62.4c-1.3,0-1.3,0-1.6-1.3c-0.4-2.2,0.1-1.8-2.2-2c-1.8-0.2-2.8,0.5-3.4,2.1
				c-0.4,1.1-1.3,1.4-2.4,1.3c-0.5-0.1-0.8-0.2-0.4-0.7c2.2-3.4,4.5-6.9,6.7-10.3c0.5-0.8,1.3-0.5,2-0.5c0.7,0,0.6,0.6,0.7,1
				c0.6,3,1.2,6.1,1.7,9.1C122.6,62.4,122.6,62.4,121.1,62.4z M118.5,54.1c-0.1,0-0.2,0-0.3,0c-0.6,1-1.2,2-1.8,3
				c-0.1,0.1-0.1,0.3,0,0.4c0.2,0.2,2.4,0.1,2.5-0.1c0-0.1,0.1-0.2,0-0.3C118.8,56,118.6,55.1,118.5,54.1z"/>
			<path class="st0" d="M205.4,24.6c-1.4,0-1.4,0-1.6-1.3c-0.4-2,0-1.9-2.2-1.9c-2.8,0-2-0.4-3.4,1.9c-0.6,1-1.3,1.4-2.4,1.2
				c-0.7-0.1-0.7-0.3-0.4-0.8c0.7-1,1.3-2,1.9-3c1.5-2.3,3-4.6,4.5-6.9c0.5-0.8,1.5-1.1,2.3-0.8c0.3,0.1,0.4,0.4,0.5,0.7
				c0.6,3.3,1.3,6.7,1.9,10C206.8,24.9,205.8,24.4,205.4,24.6z M202.7,16.2c-0.1,0-0.2,0-0.2,0c-0.3,0.6-0.7,1.1-1,1.7
				c-0.3,0.6-1.1,1.2-0.8,1.8c0.3,0.5,1.3,0.1,2,0.2c0.1,0,0.1,0,0.2,0c0.3,0,0.4-0.2,0.4-0.5C203,18.3,202.8,17.2,202.7,16.2z"/>
			<path class="st0" d="M96.8,62.4c-1.3,0-1.3,0-1.5-1.3c-0.4-2.2,0-1.8-2.3-2c-1.9-0.2-2.8,0.7-3.4,2.2c-0.4,1-1.2,1.3-2.2,1.2
				c-0.7-0.1-0.8-0.2-0.4-0.8c1.4-2.2,2.9-4.4,4.3-6.6c0.8-1.2,1.6-2.3,2.3-3.5c0.5-0.9,1.4-0.6,2.1-0.6c0.7,0,0.6,0.7,0.7,1.1
				c0.6,3,1.2,6,1.7,9C98.3,62.5,98.3,62.5,96.8,62.4z M93.2,57.6c0.2,0,0.4,0,0.6,0c0.8,0.1,1-0.2,0.8-1c-0.2-0.7-0.2-1.4-0.4-2.1
				c0-0.2,0-0.4-0.2-0.4c-0.1,0-0.2,0.2-0.3,0.3c-0.4,0.6-0.8,1.3-1.2,1.9c-0.2,0.4-0.7,0.7-0.5,1.1C92.3,57.8,92.9,57.5,93.2,57.6z
				"/>
			<path class="st0" d="M114.3,24.6c-1.1,0-2.2,0-3.2,0c-0.8,0-0.9-0.3-0.7-0.9c0.7-3.2,1.4-6.5,2.1-9.7c0.1-0.7,0.4-0.9,1.1-0.9
				c2,0,4,0,5.9,0c0.4,0,0.9-0.1,0.8,0.6c-0.1,0.5,0,1.2-0.9,1.2c-1.2,0-2.3,0-3.5,0c-0.8,0-1.1,0.2-1.3,1c-0.4,2.1-0.6,1.9,1.6,1.9
				c0.6,0,1.2,0,1.7,0c0.4,0,0.9-0.1,0.8,0.5c-0.1,0.5,0,1.1-0.8,1.1c-1.1,0-2.2,0-3.2,0c-0.6,0-0.9,0.2-1,0.8
				c-0.1,0.7-0.3,1.3-0.4,2c-0.1,0.5,0,0.7,0.6,0.7c1.3,0,2.6,0,3.9,0c0.4,0,0.9-0.1,0.8,0.6c-0.1,0.5,0,1.2-0.9,1.2
				C116.6,24.5,115.5,24.5,114.3,24.6C114.3,24.6,114.3,24.6,114.3,24.6z"/>
			<path class="st0" d="M209.8,43.4c-1.3,0-1.3,0-1.5-1.3c-0.4-2.2,0-1.7-2.2-1.9c-1.6-0.1-2.7,0.3-3.3,1.9
				c-0.4,1.1-1.2,1.5-2.4,1.3c-0.6-0.1-0.8-0.2-0.4-0.7c0.9-1.4,1.8-2.7,2.7-4.1c1.3-2,2.6-4,3.9-6c0.6-0.9,1.4-0.6,2.1-0.6
				c0.7,0,0.6,0.7,0.7,1.1c0.6,3,1.2,5.9,1.7,8.9C211.2,43.4,211.2,43.4,209.8,43.4z M207.1,34.7c-0.8,1.3-1.4,2.3-2,3.4
				c-0.2,0.3-0.2,0.6,0.2,0.6c0.6,0,1.2,0,1.7,0c0.5,0,0.6-0.3,0.5-0.7C207.4,37,207.3,36,207.1,34.7z"/>
			<path class="st0" d="M129.5,43.4c-1.4,0-1.3,0-1.6-1.2c-0.4-2.1,0-1.9-2.2-1.9c-2.7,0-2-0.4-3.3,1.9c-0.6,1.1-1.3,1.4-2.5,1.3
				c-0.7-0.1-0.7-0.3-0.4-0.7c1-1.5,1.9-2.9,2.8-4.4c1.2-1.9,2.4-3.8,3.7-5.6c0.4-0.6,1.8-1,2.4-0.6c0.3,0.2,0.3,0.5,0.4,0.8
				c0.6,3.3,1.3,6.5,1.9,9.8C131,43.9,129.9,43.2,129.5,43.4z M126.8,35.1c-0.1,0-0.2,0-0.2-0.1c-0.5,0.9-1.1,1.8-1.6,2.7
				c-0.1,0.2-0.5,0.6-0.2,0.7c0.7,0.3,1.5,0.1,2.2,0.1c0.3,0,0.4-0.2,0.3-0.5C127.1,37.1,127,36.1,126.8,35.1z"/>
			<path class="st0" d="M192.9,43.4c-0.3,0-0.5,0-0.7,0c-0.7,0.1-0.8-0.2-0.7-0.8c0.3-1.5,0.7-3,1-4.5c0.4-1.7,0.8-3.4,1.1-5
				c0.1-0.7,0.4-1.1,1.2-1.1c1.4-0.1,2.7-0.1,4.1,0c1.4,0.1,2.5,0.6,2.9,2.1c0.3,1.3-0.3,3-1.5,3.9c-1.2,0.9-2.6,1.2-4.1,1.1
				c-1-0.1-1.4,0.3-1.5,1.2c-0.1,0.7-0.3,1.3-0.4,2C194.2,43.1,193.8,43.7,192.9,43.4z M197.2,33.5c-0.4,0.1-0.9-0.2-1.1,0.4
				c-0.3,1-0.5,2-0.7,3.1c-0.1,0.3,0,0.5,0.3,0.5c0.9,0,1.8,0,2.5-0.6c0.7-0.6,1.1-1.7,0.7-2.5C198.7,33.5,198,33.5,197.2,33.5z"/>
			<path class="st0" d="M185.3,43.4c-1.1,0-2.3,0-3.4,0c-0.5,0-0.7-0.2-0.6-0.7c0.7-3.4,1.5-6.8,2.2-10.1c0.1-0.5,0.4-0.6,0.9-0.6
				c2.1,0,4.1,0,6.2,0c0.3,0,0.8-0.1,0.7,0.4c-0.1,0.5,0,1.2-0.8,1.2c-1.2,0-2.4,0.1-3.7,0c-0.7,0-1,0.3-1.2,0.9
				c-0.5,2.1-0.5,2.1,1.7,2.1c0.5,0,1,0,1.6,0c0.3,0,0.9-0.2,0.8,0.5c0,0.5-0.1,1.1-0.9,1.1c-1,0-2,0-3,0c-0.8,0-1.2,0.3-1.3,1
				c-0.1,0.6-0.2,1.1-0.4,1.7c-0.1,0.5,0,0.7,0.6,0.7c1.3,0,2.6,0,3.9,0c0.3,0,0.9-0.2,0.9,0.5c0,0.6-0.1,1.2-0.9,1.2
				C187.6,43.4,186.4,43.4,185.3,43.4z"/>
			<path class="st0" d="M147,43.4c-1.1,0-2.3,0-3.4,0c-0.5,0-0.7-0.2-0.6-0.7c0.7-3.3,1.5-6.7,2.2-10c0.1-0.6,0.4-0.7,1-0.7
				c2,0,4.1,0,6.1,0c0.3,0,0.8-0.1,0.7,0.4c-0.1,0.5,0,1.2-0.8,1.2c-1.2,0-2.4,0.1-3.6,0c-0.8,0-1.1,0.3-1.3,1c-0.4,2-0.4,2,1.7,2
				c0.5,0,1.1,0,1.6,0c0.3,0,0.9-0.2,0.9,0.5c0,0.6-0.1,1.1-0.9,1.1c-1,0-2,0-3.1,0c-0.7,0-1,0.2-1.1,0.9c-0.1,0.6-0.2,1.3-0.4,1.9
				c-0.1,0.5,0.1,0.7,0.6,0.7c1.3,0,2.6,0,3.9,0c0.4,0,0.9-0.2,0.9,0.5c0,0.6-0.1,1.2-1,1.2C149.3,43.4,148.1,43.4,147,43.4z"/>
			<path class="st0" d="M137.8,43.6c-0.6,0-1.2,0-1.7-0.1c-3.2-0.6-4.6-3.2-3.9-6.5c0.6-2.8,3.2-4.9,6.1-5.2
				c1.4-0.1,2.7-0.1,4.1,0.3c0.8,0.2,0.9,0.7,0.5,1.7c-0.3,0.8-0.8,0.4-1.2,0.2c-1.1-0.6-2.2-0.7-3.4-0.6c-0.5,0-1,0.2-1.4,0.5
				c-2,1.1-2.9,4.9-1.6,6.8c0.8,1.2,2.4,1.7,4.2,1.2c0.5-0.1,1-0.4,1.5-0.6c0.6-0.2,0.8,0,0.7,0.6c-0.1,0.8-0.5,1.4-1.4,1.5
				C139.4,43.5,138.6,43.6,137.8,43.6z"/>
			<path class="st0" d="M119.1,33.7c-0.2,0-0.3,0-0.5,0c-2.4,0-2.4,0-2.7,2.4c-0.1,0.5,0.1,0.7,0.6,0.7c1,0,2.1,0,3.1,0
				c0.4,0,0.9-0.2,0.9,0.5c0,0.6-0.1,1.2-0.9,1.2c-1,0-2,0-3,0c-1.3,0-1.3,0-1.5,1.3c-0.2,0.9-0.4,1.8-0.6,2.6
				c-0.1,0.8-0.5,1.1-1.3,1.1c-1.6-0.1-1.7,0.2-1.3-1.5c0.6-3,1.3-6,1.9-9.1c0.1-0.6,0.4-0.9,1-0.9c2.1,0,4.3,0,6.4,0
				c0.3,0,0.8-0.1,0.8,0.4c-0.1,0.5,0,1.2-0.8,1.2C120.6,33.7,119.9,33.6,119.1,33.7C119.1,33.6,119.1,33.7,119.1,33.7z"/>
			<path class="st0" d="M106.2,13c1.5,0,3,0,4.5,0c0.3,0,0.9-0.1,0.8,0.5c-0.1,0.5,0,1.3-0.8,1.3c-0.7,0-1.5,0.1-2.2,0
				c-0.9-0.1-1.4,0.2-1.6,1.2c-0.5,2.5-1,5-1.6,7.5c-0.1,0.4,0,0.9-0.5,1c-0.7,0.1-1.4,0.2-2.1-0.1c-0.3-0.1-0.1-0.5-0.1-0.8
				c0.6-2.6,1.1-5.2,1.7-7.8c0.2-1,0.2-1-0.8-1c-0.6,0-1.3,0-1.9,0c-0.4,0-1,0.2-1-0.5c0-0.9,0.3-1.2,1.1-1.2
				C103.2,13,104.7,13,106.2,13z"/>
			<path class="st0" d="M160.7,13c1.5,0,2.9,0,4.4,0c0.4,0,1-0.2,0.9,0.6c-0.1,0.6-0.1,1.2-0.9,1.2c-0.8,0-1.7,0-2.5,0
				c-0.6,0-0.9,0.2-1,0.8c-0.5,2.6-1.1,5.1-1.6,7.7c-0.3,1.3-0.3,1.3-1.6,1.3c-1.3,0-1.3,0-1-1.3c0.5-2.5,1.1-4.9,1.6-7.4
				c0.2-1,0.2-1.1-0.9-1.1c-0.6,0-1.3,0-1.9,0c-0.3,0-0.9,0.2-0.9-0.4c0-0.6,0-1.3,0.9-1.3c0.8,0,1.6,0,2.4,0
				C159.1,13,159.9,13,160.7,13z"/>
			<path class="st0" d="M172.6,50.9c1.5,0,2.9,0,4.4,0c0.3,0,0.9-0.1,0.8,0.5c-0.1,0.5,0,1.3-0.8,1.3c-0.8,0-1.6,0.1-2.4,0
				c-0.9-0.1-1.2,0.3-1.4,1.1c-0.5,2.5-1.1,5-1.6,7.5c-0.1,0.4,0,1-0.6,1.1c-0.7,0.1-1.4,0.2-2-0.1c-0.4-0.2-0.2-0.6-0.1-0.9
				c0.5-2.5,1.1-4.9,1.6-7.4c0.3-1.3,0.3-1.3-1.1-1.3c-0.6,0-1.2,0-1.7,0c-0.4,0-0.9,0.1-0.8-0.5c0.1-0.5,0-1.2,0.9-1.2
				C169.4,50.9,171,50.9,172.6,50.9C172.6,50.9,172.6,50.9,172.6,50.9z"/>
			<path class="st0" d="M240.4,32c1.5,0,3,0,4.5,0c0.3,0,0.8-0.1,0.7,0.5c-0.1,0.5,0,1.1-0.7,1.2c-0.8,0-1.6,0.1-2.4,0
				c-0.8-0.1-1.2,0.2-1.3,1.1c-0.5,2.5-1.1,5-1.6,7.5c-0.2,1-0.5,1.3-1.5,1.3c-1.4-0.1-1.4,0-1.1-1.4c0.5-2.5,1.1-5,1.6-7.5
				c0.2-0.8-0.1-0.9-0.8-0.9c-0.7,0-1.4,0-2.1,0c-0.3,0-0.9,0.2-0.9-0.5c0-0.6,0.1-1.2,0.9-1.2c1,0,2,0,3.1,0
				C239.4,32,239.9,32,240.4,32z"/>
			<path class="st0" d="M161.6,62.4c-1,0-2.1,0-3.1,0c-0.7,0-1.1-0.2-0.9-1c0.7-3.1,1.4-6.2,2-9.4c0.2-1,0.7-1.2,1.6-1.2
				c1.3,0.1,1.3,0,1,1.3c-0.6,2.6-1.1,5.1-1.7,7.7c-0.2,0.7,0.1,0.9,0.7,0.9c1.2,0,2.4,0,3.7,0c0.3,0,0.9-0.1,0.8,0.5
				c0,0.5,0,1.3-0.8,1.3C163.9,62.5,162.8,62.4,161.6,62.4C161.6,62.4,161.6,62.4,161.6,62.4z"/>
			<path class="st0" d="M212.2,24.6c-1.1,0-2.2,0-3.2,0c-0.6,0-0.9-0.2-0.7-0.8c0.7-3.3,1.5-6.7,2.2-10.1c0.1-0.5,0.4-0.6,0.9-0.7
				c1.9-0.1,2-0.1,1.6,1.8c-0.5,2.3-1,4.7-1.5,7c-0.2,1-0.2,1,0.9,1c1.2,0,2.3,0,3.5,0c0.3,0,0.9-0.1,0.8,0.5c0,0.5,0,1.3-0.8,1.3
				C214.5,24.6,213.4,24.5,212.2,24.6C212.2,24.5,212.2,24.5,212.2,24.6z"/>
			<path class="st0" d="M82.6,24.6c-0.1,0-0.3,0-0.4,0c-1,0-1.1-0.1-0.8-1.1c0.8-3.7,1.6-7.4,2.4-11.1c0.2-0.7,0.5-1,1.2-1
				c2.3,0,2-0.1,1.6,1.9c-0.7,3.3-1.4,6.5-2.1,9.8C84,24.6,84.3,24.6,82.6,24.6z"/>
			<path class="st0" d="M166.4,24.6c-1.4,0-1.4,0-1.1-1.3c0.7-3.1,1.3-6.1,2-9.2c0.2-0.9,1.8-1.5,2.6-0.9c0.2,0.2,0.2,0.4,0.1,0.6
				c-0.7,3.4-1.5,6.8-2.2,10.1C167.6,24.8,166.9,24.5,166.4,24.6z"/>
			<path class="st0" d="M246.2,43.4c-1.5,0-1.5,0-1.2-1.4c0.7-3,1.3-6,2-8.9c0.1-0.4,0-1,0.6-1.1c0.6-0.1,1.3-0.2,2,0
				c0.3,0.1,0.2,0.4,0.2,0.7c-0.7,3.4-1.5,6.7-2.2,10.1C247.4,43.7,246.7,43.3,246.2,43.4z"/>
			<path class="st0" d="M149.6,60.1c0.9,0,1.6,0.8,1.5,1.9c-0.1,0.8-0.4,1.4-0.9,1.9c-0.6,0.6-1.4,1-2.2,1.4c-0.4,0.2-0.6,0-0.8-0.3
				c-0.2-0.4,0-0.6,0.3-0.7c0.3-0.2,0.6-0.3,0.9-0.5c0.8-0.6,0.9-0.8,0.2-1.6c-0.3-0.4-0.4-0.8-0.2-1.2
				C148.6,60.4,149.1,60.1,149.6,60.1z"/>
			<path class="st0" d="M192.1,61.1c0,0.8-0.6,1.4-1.4,1.4c-0.8,0-1.4-0.6-1.4-1.3c0-0.7,0.7-1.4,1.4-1.4
				C191.3,59.8,192,60.4,192.1,61.1z"/>
		</g>
	</g>
	<g>
		<path class="st0" d="M61,50.1c-0.2-0.1-0.4-0.1-0.7,0c-5.6,0.8-11.3,1.3-17,1c-2.9-0.1-5.9-0.4-8.8-1c-1.9-0.4-3.8-0.8-5.7-1.6
			c0.3,0,0.4-0.1,0.4,0c5.4,0.8,10.8,0.8,16.2,0.4c5.9-0.5,11.7-1.5,17.4-3c0.4-0.1,0.6-0.3,0.8-0.5c0.2-0.5,1.6-5.2,1.8-6.2
			c0.1-0.7-0.1-0.6-1.1-0.4c-6.4,1.6-13,2.5-19.6,2.7c-4.8,0.2-9.7,0.1-14.5-0.5c-5-0.6-9.9-1.6-14.6-3.6c-0.3-0.1-0.6-0.3-0.9-0.4
			c5.1,1.1,10.3,1.7,15.5,1.9c7.2,0.2,14.4-0.3,21.5-1.6c4.5-0.8,8.9-1.9,13.3-3.4c0.7-0.2,1-0.6,1-1.2c0,0.1,0-0.2,0-0.3
			c-0.1-2.2-0.4-4.5-0.5-4.9c-0.1-0.5-0.3-0.5-1.1-0.3c-8.2,2.7-16.6,3.7-25.1,4c-5.5,0.2-11-0.2-16.5-1.1
			c-5.7-0.9-11.3-2.3-16.6-4.8c-0.3-0.2-0.6-0.3-0.9-0.5c-0.3-0.2-0.6-0.3-0.8-0.5c8,2.7,16.3,3.7,24.6,3.9c5.6,0.1,11.2-0.2,16.7-1
			c5.8-0.8,11.5-2.2,17-4.3c1-0.4,1.3-0.5,1.2-1C59.6,9.2,47.3,0,33,0C14.8,0,0,14.8,0,33s14.8,33,33,33c11.9,0,22.2-6.3,28.1-15.6
			C61.1,50.2,61,50.2,61,50.1z"/>
	</g>
</g>
</svg>
