<?xml version="1.0" encoding="utf-8"?>
<!-- Generator: Adobe Illustrator 21.1.0, SVG Export Plug-In . SVG Version: 6.00 Build 0)  -->
<svg version="1.1"
	 id="svg52238" xmlns:cc="http://creativecommons.org/ns#" xmlns:dc="http://purl.org/dc/elements/1.1/" xmlns:rdf="http://www.w3.org/1999/02/22-rdf-syntax-ns#" xmlns:svg="http://www.w3.org/2000/svg"
	 xmlns="http://www.w3.org/2000/svg" xmlns:xlink="http://www.w3.org/1999/xlink" x="0px" y="0px" viewBox="0 0 110.5 118.9"
	 style="enable-background:new 0 0 110.5 118.9;" xml:space="preserve">
<style type="text/css">
	.st0{fill:#003CAE;}
</style>
<g id="g52202_2_">
	<g id="g52208_2_" transform="translate(418.8803,243.8706)">
		<path id="path52210_2_" class="st0" d="M-388.6-205.1c2.2,0,8.4,0.3,4.4,11.9c-4.1,12.2-13.3,9.7-13.3,9.7l6.8-21.6H-388.6z
			 M-372.1-192.5c5.2-12.8-4.6-16.3-10.9-16.3h-20.9c1.7,1.2,1.4,2.8,1.1,3.8l-12.2,39c-0.5,1.6-2.3,3.1-3.3,3.4h16.9
			c-1-0.2-2.3-1.5-1.8-3.3l4.4-14.1C-398.7-180-378.3-177.2-372.1-192.5"/>
	</g>
	<g id="g52212_2_" transform="translate(431.4747,224.1106)">
		<path id="path52214_2_" class="st0" d="M-377.9-148.8c-0.7,0.4-3.3,1.8-5.8,2c-2.3,0.2-6.1-0.7-6.1-5.3c0-4,4.3-6.8,6.6-7.8
			C-382.2-156.1-380.1-151.8-377.9-148.8 M-371.2-173.6c-0.6,3.7-5.4,7.5-6.5,8c-0.2-2.1-0.1-5.4,1.6-8.1c1.2-1.8,2.7-2.6,3.9-2.1
			C-371.2-175.5-371.1-174.6-371.2-173.6 M-371.2-142.8h11.4c-3.6-1.2-9-4.6-11.2-7.1c1.8-1.9,3.9-4.3,4.3-9.1h-5.9
			c0,0,1.2,0.6,1.2,2c0,1.3-0.5,3.1-1.5,4.3c-1.7-2.6-3.6-5.5-4.3-9.8c2.3-1.2,5.6-2.4,8.2-4.6c2.5-2.2,3-4.2,3.1-5.5v-0.2
			c0-1.4-0.5-2.7-1.5-3.7c-1.7-1.7-4.4-2.4-7.2-1.9c-2.3,0.4-4.2,1.6-5.2,2.5c-3.5,3.2-3.9,8.6-3.9,11c0,0.5,0,1,0.1,1.3
			c-0.2,0.1-0.6,0.2-0.6,0.2c-2.5,0.9-9.2,2.7-11.6,8.2c-0.3,0.7-0.7,2.2-0.7,4c0,1.5,0.3,3.2,1.3,4.7c1.7,2.6,4.6,4.3,9.2,4.2
			c5-0.1,9.9-3.5,10.8-4.1C-374.6-145.4-372.4-143.4-371.2-142.8"/>
	</g>
	<g id="g52216_2_" transform="translate(453.7923,243.8516)">
		<path id="path52218_2_" class="st0" d="M-358.9-205.1c6.8-1.6,12.4,3.7,12.9,4l1.9-6.1c-2.7-0.8-22.1-7.4-35.8,8.3
			c-8.4,9.7-10.6,29.4,0.2,34.7c11.5,5.7,24.2-0.9,25-1.3l5.3-16.6c0.6-2,1.8-3.4,4.1-4.2h-18.2c2.6,1.1,2.5,3.1,2.2,3.9l-5.2,16.7
			c-0.7,0.1-15.3,3.8-7.1-21.8C-371.9-193-366.9-203.1-358.9-205.1"/>
	</g>
</g>
</svg>
