<?xml version="1.0" encoding="utf-8"?>
<!-- Generator: Adobe Illustrator 17.1.0, SVG Export Plug-In . SVG Version: 6.00 Build 0)  -->
<!DOCTYPE svg PUBLIC "-//W3C//DTD SVG 1.1//EN" "http://www.w3.org/Graphics/SVG/1.1/DTD/svg11.dtd">
<svg version="1.1" id="Layer_1" xmlns="http://www.w3.org/2000/svg" xmlns:xlink="http://www.w3.org/1999/xlink" x="0px" y="0px"
	 viewBox="0 0 112.4 49.7" enable-background="new 0 0 112.4 49.7" xml:space="preserve">
<g>
	<path d="M5.8,41.1c-0.1-0.7-0.1-1.4-0.1-2.1c-0.5-0.1-1.7-0.2-2.2-0.2c-1.9,0-3.3,1.2-3.3,3.1c0,3.6,4.4,2.8,4.4,5.4
		c0,1.1-0.8,1.7-1.8,1.7c-1.4,0-2.1-1.1-2.3-2.4L0,46.7c0.1,0.8,0.2,1.5,0.3,2.3c0.7,0.4,1.5,0.7,2.4,0.7c1.9,0,3.6-1.1,3.6-3.1
		c0-3.6-4.5-2.8-4.5-5.3c0-1.2,0.7-1.9,1.8-1.9c1,0,1.7,0.9,1.8,1.9L5.8,41.1"/>
	<path d="M13.8,49.5c0.9,0,2.6-0.1,4-0.1c1.3,0,3.1,0.1,4,0.1c0.1-0.8,0.3-1.6,0.5-2.4L21.9,47c-0.4,1.7-1.2,1.8-3,1.8
		c-1,0-1.8,0-1.8-1v-3.5h1.8c1,0,1.1,0.6,1.2,1.5l0.4-0.1c0-0.6,0-1.1,0-1.7c0-0.6,0-1.2,0-1.8H20c-0.1,0.8-0.3,1.3-1.2,1.3h-1.8
		v-3.9h2.1c1.6,0,1.8,0.8,1.8,1.8l0.4-0.1c0-0.7-0.1-1.6,0-2.3c-1,0-2.6,0.1-3.8,0.1c-1.3,0-2.8-0.1-3.7-0.1v0.4H14
		c0.5,0,1.1,0.1,1.1,0.9v7.9c0,0.8-0.6,0.9-1.1,0.9h-0.2V49.5"/>
	<path d="M32.6,39c-0.4,0-0.9,0.1-1.3,0.1c-0.6,0-1.2-0.1-1.7-0.1v0.4h0.2c0.7,0,1.4,0.5,1.4,1.3v6.3c0,1.2-0.3,1.9-1.3,1.9h-0.2
		v0.4c0.7,0,1.4-0.1,2-0.1c0.6,0,1.3,0.1,1.9,0.1V49h-0.3c-1.2,0-1.4-0.4-1.4-1.8v-6.2l7.7,8.6h0.6c-0.1-0.5-0.1-1-0.1-1.5v-6.8
		c0-1.8,0.7-1.9,1.3-1.9h0.2V39c-0.6,0-1.2,0.1-1.8,0.1c-0.7,0-1.4-0.1-2.1-0.1v0.4H38c0.4,0,1.3,0.2,1.3,1.4v5.6l0,0L32.6,39"/>
	<path d="M53,39.8v8c0,1.2-0.4,1.3-1.2,1.3h-0.3v0.4c0.6,0,1.6-0.1,2.5-0.1c0.8,0,1.9,0.1,2.4,0.1V49h-0.3c-0.7,0-1.2-0.1-1.2-1.3
		v-8h2.5c1,0,1.1,0.9,1.1,1.4l0.4-0.2c0-0.4,0-0.8,0-1.2c0-0.4,0.1-0.8,0.2-1.2l-0.4-0.1c0,0.4-0.4,0.5-0.8,0.5h-7.7
		c-0.4,0-0.8,0-0.9-0.4H49c0,0.4,0,0.9-0.1,1.3c0,0.4-0.1,0.9-0.2,1.3h0.4c0.2-1.1,0.3-1.4,1.4-1.4H53"/>
	<path d="M71.1,44.9h-2.8l1.4-4.2h0L71.1,44.9L71.1,44.9z M68,45.8h3.4l0.6,1.7c0.2,0.5,0.3,0.9,0.3,1.1c0,0.4-0.6,0.4-0.9,0.4h-0.2
		v0.4c0.8,0,1.5-0.1,2.2-0.1c0.7,0,1.4,0,2.1,0.1V49h-0.1c-0.5,0-0.8-0.2-1-0.6c-0.2-0.4-0.4-1-0.6-1.5L71.1,39
		c0-0.1-0.1-0.3-0.1-0.4c0,0-0.1,0-0.1,0c0,0-0.1,0-0.1,0c-0.3,0.2-0.9,0.5-1.4,0.6c-0.1,0.6-0.4,1.3-0.6,1.9L66.4,48
		c-0.2,0.6-0.7,1-1.3,1H65v0.4c0.5,0,1.1-0.1,1.6-0.1c0.6,0,1.2,0,1.8,0.1V49h-0.2c-0.5,0-1.1-0.1-1.1-0.5c0-0.3,0.2-0.7,0.3-1.2
		L68,45.8"/>
	<path d="M83.4,48.2c0,0.6-0.5,0.8-1.1,0.8h-0.3v0.4c0.7,0,1.5-0.1,2.2-0.1c0.9,0,1.7,0.1,2.6,0.1V49h-0.3c-0.7,0-1.2,0-1.2-1.2
		v-3.2h1c1,1.7,2,3.3,3.1,4.9c0.5,0,0.9-0.1,1.4-0.1c0.5,0,1,0.1,1.5,0.1V49c-0.7-0.1-1-0.3-1.5-0.9l-2.6-3.8
		c1.2-0.5,2.1-1.3,2.1-2.6c0-2.1-1.7-2.6-3.6-2.6c-0.8,0-1.5,0.1-2.4,0.1c-0.9,0-1.8-0.1-2.3-0.1v0.4h0.3c0.5,0,1.1,0,1.1,1.1V48.2
		L83.4,48.2z M85.3,39.6c0.2,0,0.4-0.1,0.9-0.1c1.3,0,2.2,0.9,2.2,2.2c0,1.8-0.8,2.3-2.3,2.3h-0.7V39.6"/>
	<path d="M104.4,44.9h-2.8l1.4-4.2h0L104.4,44.9L104.4,44.9z M101.3,45.8h3.4l0.6,1.7c0.2,0.5,0.3,0.9,0.3,1.1
		c0,0.4-0.6,0.4-0.9,0.4h-0.2v0.4c0.8,0,1.5-0.1,2.2-0.1c0.7,0,1.4,0,2.1,0.1V49h-0.1c-0.5,0-0.8-0.2-1-0.6c-0.2-0.4-0.4-1-0.6-1.5
		l-2.8-7.8c0-0.1-0.1-0.3-0.1-0.4c0,0-0.1,0-0.1,0s-0.1,0-0.1,0c-0.3,0.2-0.9,0.5-1.4,0.6c-0.1,0.6-0.4,1.3-0.6,1.9L99.7,48
		c-0.2,0.6-0.7,1-1.3,1h-0.1v0.4c0.5,0,1.1-0.1,1.6-0.1c0.6,0,1.2,0,1.8,0.1V49h-0.2c-0.5,0-1.1-0.1-1.1-0.5c0-0.3,0.2-0.7,0.3-1.2
		L101.3,45.8"/>
	<g>
		<path fill="#FFC758" d="M64,12.2c-1.4-1.1-3.8-2-6.5-2.4c-2-0.4-3.4-1-3.8-1.6c-0.4-0.8,1.2-1.5,3.7-1.7c5-0.5,10.6,0.2,15,1.4
			c3.6,0.9,6.5,2.3,8,4.2c5.3,6.8-4.6,15-22.7,16.8c-12.8,1.3-25.8-1.8-32.2-7.8c15.1,5.4,27.7,3,33,1.2c4.7-1.6,8.9-5,6.9-8.6
			C65.1,13.1,64.6,12.6,64,12.2"/>
		<path fill="#FFC758" d="M45.2,12.4c1,0.8,2.7,1.4,4.7,1.8c1.4,0.3,2.5,0.7,2.8,1.2c0.3,0.6-0.9,1.1-2.7,1.2c-3.6,0.3-7.7-0.2-11-1
			c-2.6-0.6-4.7-1.6-5.8-3c-3.9-5,3.3-10.9,16.6-12.3c9.4-0.9,18.8,1.3,23.5,5.7C62.3,2,53.1,3.7,49.2,5c-3.5,1.2-6.5,3.7-5.1,6.2
			C44.4,11.7,44.7,12,45.2,12.4"/>
	</g>
	<path d="M110.1,40.8h0.3c0.3,0,0.5-0.1,0.5-0.4c0-0.2-0.1-0.4-0.5-0.4c-0.1,0-0.2,0-0.3,0V40.8L110.1,40.8z M110.1,42.1h-0.4v-2.2
		c0.2,0,0.4-0.1,0.6-0.1c0.3,0,0.6,0.1,0.7,0.2c0.1,0.1,0.2,0.2,0.2,0.5c0,0.3-0.2,0.5-0.4,0.5v0c0.2,0,0.3,0.2,0.4,0.5
		c0.1,0.3,0.1,0.5,0.1,0.5h-0.4c-0.1-0.1-0.1-0.3-0.1-0.6c-0.1-0.3-0.2-0.4-0.5-0.4h-0.2V42.1L110.1,42.1z M110.4,39.2
		c-0.9,0-1.6,0.7-1.6,1.7c0,0.9,0.7,1.7,1.6,1.7c0.9,0,1.6-0.7,1.6-1.7C112,40,111.3,39.2,110.4,39.2L110.4,39.2L110.4,39.2z
		 M110.4,38.9c1.1,0,1.9,0.9,1.9,2c0,1.1-0.9,2-2,2c-1.1,0-2-0.9-2-2C108.5,39.8,109.3,38.9,110.4,38.9L110.4,38.9"/>
</g>
</svg>
