<?xml version="1.0" encoding="utf-8"?>
<!-- Generator: Adobe Illustrator 17.0.0, SVG Export Plug-In . SVG Version: 6.00 Build 0)  -->
<!DOCTYPE svg PUBLIC "-//W3C//DTD SVG 1.1//EN" "http://www.w3.org/Graphics/SVG/1.1/DTD/svg11.dtd">
<svg version="1.1" id="Layer_1" xmlns="http://www.w3.org/2000/svg" xmlns:xlink="http://www.w3.org/1999/xlink" x="0px" y="0px"
	 width="218px" height="107px" viewBox="0 0 218 107" enable-background="new 0 0 218 107" xml:space="preserve">
<path fill="#848487" d="M93.5,9.471c-2.057-0.517-3.299-2.606-2.782-4.66c0.517-2.055,2.607-3.305,4.66-2.78l0.008,0.001
	c2.054,0.524,3.297,2.614,2.773,4.667c-0.509,2.017-2.533,3.25-4.547,2.805C93.573,9.495,93.538,9.48,93.5,9.471 M79.912,5.138
	c-0.165-2.111,1.41-3.956,3.53-4.126c2.111-0.164,3.956,1.41,4.125,3.53c0.165,2.111-1.41,3.956-3.522,4.128
	c-0.392,0.024-0.772-0.004-1.133-0.085C81.304,8.229,80.052,6.864,79.912,5.138 M102.217,13.25c-1.781-1.143-2.297-3.52-1.155-5.303
	c1.151-1.781,3.52-2.298,5.309-1.146c1.782,1.143,2.298,3.52,1.147,5.302c-0.89,1.388-2.533,2.011-4.052,1.676
	C103.028,13.682,102.608,13.51,102.217,13.25 M69.798,8.937c-0.84-1.944,0.06-4.198,2.004-5.039c1.945-0.84,4.208,0.054,5.047,2.006
	c0.84,1.944-0.06,4.205-2.005,5.047c-0.773,0.326-1.586,0.391-2.345,0.223C71.333,10.917,70.302,10.122,69.798,8.937
	 M109.249,19.622c-1.321-1.664-1.041-4.079,0.616-5.393c1.664-1.32,4.078-1.04,5.393,0.615c1.321,1.664,1.039,4.079-0.616,5.394
	c-0.947,0.753-2.134,0.98-3.216,0.741C110.591,20.793,109.817,20.339,109.249,19.622 M61.448,15.817
	c-1.418-1.576-1.309-4.003,0.259-5.424c1.57-1.428,3.996-1.31,5.424,0.259c1.428,1.569,1.31,3.996-0.258,5.416
	c-0.958,0.877-2.238,1.171-3.411,0.912C62.712,16.814,62.009,16.422,61.448,15.817 M113.846,27.909L113.846,27.909
	c-0.711-1.994,0.334-4.193,2.329-4.905c1.995-0.711,4.193,0.335,4.904,2.329c0.712,1.995-0.335,4.193-2.329,4.904
	c-0.702,0.247-1.435,0.283-2.111,0.133C115.39,30.096,114.311,29.203,113.846,27.909 M55.844,25.054
	c-1.869-1.004-2.561-3.334-1.549-5.2c1.011-1.867,3.341-2.56,5.2-1.55c1.866,1.012,2.559,3.342,1.549,5.201
	c-0.838,1.542-2.572,2.287-4.204,1.926C56.503,25.357,56.166,25.235,55.844,25.054 M115.506,37.22
	c-0.021-2.119,1.687-3.855,3.804-3.869c2.118-0.021,3.855,1.687,3.869,3.805c0.021,2.118-1.688,3.855-3.806,3.875
	c-0.292-0.001-0.584-0.033-0.863-0.095C116.803,40.558,115.52,39.044,115.506,37.22 M50.405,31.22L50.405,31.22
	c0.344-2.093,2.321-3.51,4.414-3.167c2.086,0.342,3.504,2.312,3.167,4.408c-0.344,2.093-2.321,3.509-4.414,3.166
	c-0.069-0.008-0.137-0.023-0.205-0.038C51.39,35.151,50.077,33.236,50.405,31.22 M116.343,51.531
	c-2.002-0.688-3.072-2.879-2.384-4.881l0.008,0.002c0.007-0.03,0.014-0.06,0.029-0.095c0.678-2.004,2.857-3.085,4.861-2.406
	c2.012,0.674,3.093,2.853,2.412,4.864c-0.007,0.03-0.019,0.051-0.024,0.073c-0.013,0.021-0.017,0.045-0.02,0.059
	c-0.643,1.869-2.578,2.917-4.457,2.501C116.626,51.616,116.483,51.577,116.343,51.531 M50.479,43.239L50.479,43.239
	c-0.366-2.092,1.027-4.079,3.119-4.445c2.085-0.368,4.072,1.025,4.44,3.11c0.376,2.087-1.019,4.082-3.112,4.447
	c-0.51,0.092-1.011,0.076-1.492-0.03C51.96,45.997,50.762,44.817,50.479,43.239 M110.09,60.348
	c-1.666-1.315-1.954-3.728-0.646-5.397c1.312-1.657,3.726-1.943,5.393-0.637c1.666,1.313,1.945,3.726,0.639,5.393
	c-0.943,1.197-2.454,1.683-3.843,1.367C111.085,60.954,110.552,60.719,110.09,60.348 M54.488,54.552
	c-1.025-1.858-0.352-4.195,1.5-5.22c1.851-1.027,4.187-0.353,5.212,1.505c1.027,1.852,0.36,4.189-1.499,5.215
	c-0.853,0.473-1.801,0.588-2.682,0.394C55.981,56.215,55.039,55.558,54.488,54.552 M101.269,66.611
	c-1.141-1.79-0.619-4.159,1.165-5.303c1.782-1.145,4.16-0.628,5.303,1.163c1.144,1.782,0.62,4.159-1.163,5.304l0.002-0.008
	c-0.893,0.577-1.936,0.732-2.899,0.52C102.721,68.075,101.846,67.503,101.269,66.611 M61.923,63.956
	c-1.57-1.428-1.682-3.85-0.255-5.42c1.42-1.571,3.852-1.689,5.422-0.262c1.562,1.427,1.68,3.858,0.253,5.427
	c-0.958,1.051-2.371,1.449-3.672,1.162C63.039,64.722,62.435,64.423,61.923,63.956 M90.913,69.686
	c-0.507-2.06,0.749-4.141,2.808-4.64c2.059-0.507,4.133,0.748,4.639,2.808c0.508,2.061-0.749,4.141-2.807,4.64l-0.002,0.008
	c-0.593,0.145-1.182,0.141-1.74,0.018C92.429,72.213,91.268,71.153,90.913,69.686 M71.994,70.461l-0.002,0.008
	c-1.942-0.847-2.831-3.11-1.985-5.051c0.841-1.952,3.105-2.841,5.047-1.994c1.95,0.85,2.83,3.109,1.992,5.054
	c-0.749,1.712-2.587,2.607-4.347,2.218C72.466,70.644,72.222,70.568,71.994,70.461 M80.106,69.264
	c0.183-2.114,2.05-3.674,4.162-3.49c2.106,0.181,3.675,2.041,3.485,4.153c-0.183,2.113-2.041,3.674-4.155,3.49
	c-0.171-0.013-0.337-0.043-0.503-0.079C81.244,72.931,79.937,71.206,80.106,69.264"/>
<path fill="#848487" d="M87.058,15.118c-1.481-0.049-2.647-1.288-2.598-2.77c0.049-1.482,1.288-2.647,2.777-2.599
	c1.482,0.05,2.639,1.289,2.59,2.771c-0.045,1.373-1.104,2.467-2.43,2.59C87.283,15.121,87.174,15.122,87.058,15.118 M76.874,14.128
	c-0.409-1.424,0.421-2.907,1.845-3.325c1.425-0.409,2.915,0.421,3.325,1.845s-0.421,2.916-1.845,3.324
	c-0.166,0.047-0.334,0.078-0.495,0.092C78.447,16.179,77.238,15.393,76.874,14.128 M93.859,16.411L93.859,16.411
	c-1.398-0.498-2.128-2.032-1.63-3.431c0.491-1.398,2.033-2.128,3.432-1.63c1.398,0.497,2.128,2.032,1.63,3.431
	c-0.363,1.016-1.277,1.68-2.289,1.773C94.624,16.588,94.235,16.547,93.859,16.411 M70.207,18.158
	c-0.826-1.231-0.5-2.908,0.731-3.734c1.232-0.825,2.901-0.498,3.726,0.734c0.833,1.23,0.506,2.9-0.725,3.724
	c-0.394,0.26-0.82,0.408-1.25,0.448C71.737,19.418,70.779,19.003,70.207,18.158 M99.945,19.696c-1.18-0.897-1.405-2.585-0.508-3.766
	c0.897-1.182,2.586-1.405,3.766-0.509c1.182,0.897,1.405,2.587,0.509,3.767c-0.475,0.624-1.172,0.981-1.892,1.047
	C101.176,20.294,100.502,20.125,99.945,19.696 M65.126,24.063c-1.175-0.913-1.384-2.603-0.479-3.777
	c0.914-1.166,2.604-1.375,3.778-0.47c1.167,0.914,1.384,2.595,0.47,3.769c-0.476,0.616-1.163,0.965-1.878,1.031
	C66.365,24.676,65.685,24.498,65.126,24.063 M104.734,24.686L104.734,24.686c-0.854-1.22-0.551-2.888,0.67-3.743
	c1.213-0.846,2.89-0.544,3.735,0.67c0.855,1.222,0.553,2.897-0.661,3.743c-0.401,0.275-0.843,0.425-1.296,0.466
	C106.254,25.907,105.305,25.507,104.734,24.686 M62.152,31.265c-1.398-0.497-2.129-2.04-1.631-3.438
	c0.498-1.393,2.041-2.121,3.432-1.623c1.4,0.497,2.128,2.033,1.63,3.432c-0.364,1.015-1.277,1.68-2.281,1.771
	C62.919,31.442,62.528,31.4,62.152,31.265 M107.757,30.897L107.757,30.897c-0.432-1.414,0.366-2.919,1.781-3.35
	c1.422-0.432,2.925,0.365,3.358,1.787c0.432,1.414-0.367,2.919-1.787,3.35c-0.182,0.056-0.356,0.088-0.54,0.105
	C109.326,32.903,108.134,32.139,107.757,30.897 M61.582,39.029c-1.487-0.026-2.66-1.264-2.626-2.744
	c0.035-1.48,1.264-2.661,2.753-2.62c1.478,0.027,2.652,1.257,2.618,2.745c-0.028,1.38-1.094,2.49-2.436,2.614
	C61.791,39.033,61.683,39.034,61.582,39.029 M111.329,40.476c-1.481-0.035-2.661-1.264-2.627-2.751
	c0.035-1.481,1.265-2.653,2.744-2.627c1.488,0.032,2.66,1.264,2.626,2.744l0.008-0.001c-0.035,1.38-1.101,2.498-2.443,2.622
	C111.537,40.473,111.436,40.474,111.329,40.476 M60.124,44.801c-0.433-1.421,0.374-2.92,1.788-3.352
	c1.422-0.432,2.918,0.368,3.35,1.788c0.433,1.422-0.366,2.92-1.788,3.351c-0.172,0.055-0.355,0.087-0.54,0.105
	C61.693,46.806,60.501,46.042,60.124,44.801 M109.065,48c-1.399-0.497-2.129-2.032-1.63-3.431c0.015-0.023,0.019-0.041,0.026-0.063
	c0.489-1.4,2.025-2.128,3.423-1.637c1.407,0.497,2.135,2.032,1.637,3.43l0.001,0.008c-0.006,0.025-0.012,0.048-0.025,0.072
	c-0.363,1.015-1.277,1.68-2.29,1.774C109.832,48.186,109.442,48.136,109.065,48 M63.865,52.524
	c-0.846-1.223-0.544-2.897,0.677-3.744c1.215-0.847,2.89-0.544,3.736,0.678c0.846,1.213,0.551,2.889-0.67,3.735
	c-0.392,0.275-0.834,0.433-1.287,0.473C65.394,53.752,64.444,53.343,63.865,52.524 M104.585,54.381
	c-1.166-0.914-1.375-2.602-0.462-3.77c0.904-1.173,2.595-1.384,3.77-0.47c1.167,0.915,1.374,2.595,0.462,3.771
	c-0.47,0.608-1.158,0.957-1.87,1.023C105.826,54.996,105.152,54.818,104.585,54.381 M69.802,58.722L69.802,58.722
	c-1.181-0.897-1.412-2.584-0.508-3.767c0.897-1.18,2.586-1.405,3.767-0.508c1.18,0.906,1.405,2.585,0.508,3.766
	c-0.476,0.625-1.171,0.981-1.892,1.048C71.026,59.321,70.359,59.15,69.802,58.722 M98.339,59.032
	c-0.833-1.237-0.499-2.909,0.732-3.733c1.23-0.825,2.901-0.492,3.725,0.739c0.824,1.232,0.498,2.903-0.732,3.726
	c-0.385,0.26-0.815,0.4-1.251,0.44C99.87,60.291,98.904,59.877,98.339,59.032 M77.34,62.809c-1.4-0.505-2.128-2.039-1.63-3.43
	c0.499-1.399,2.039-2.137,3.431-1.63c1.399,0.497,2.128,2.033,1.63,3.431c-0.362,1.016-1.277,1.68-2.289,1.774
	C78.106,62.987,77.723,62.943,77.34,62.809 M90.958,61.528c-0.409-1.432,0.413-2.914,1.844-3.325
	c1.426-0.401,2.916,0.421,3.319,1.852c0.408,1.425-0.421,2.909-1.845,3.318c-0.166,0.047-0.327,0.077-0.494,0.092
	C92.523,63.581,91.313,62.786,90.958,61.528 M85.762,64.417c-1.489-0.049-2.649-1.296-2.598-2.777
	c0.048-1.482,1.296-2.641,2.777-2.591c1.482,0.049,2.648,1.288,2.59,2.771c-0.045,1.373-1.104,2.468-2.43,2.59
	C85.987,64.42,85.871,64.423,85.762,64.417"/>
<path fill="#848487" d="M88.565,19.219c0.313-1.188,1.524-1.897,2.714-1.591c1.187,0.312,1.896,1.524,1.59,2.714
	c-0.311,1.188-1.524,1.896-2.711,1.585c-0.045-0.006-0.087-0.02-0.122-0.031C88.919,21.535,88.266,20.363,88.565,19.219
	 M96.014,24.852c-0.963-0.764-1.123-2.157-0.366-3.123c0.762-0.964,2.164-1.121,3.12-0.36c0.964,0.763,1.124,2.158,0.368,3.123
	c-0.593,0.746-1.566,1.01-2.429,0.732C96.466,25.145,96.223,25.021,96.014,24.852 M81.076,19.787
	c-0.195-1.21,0.625-2.35,1.838-2.553c1.21-0.195,2.35,0.625,2.546,1.836c0.203,1.212-0.618,2.354-1.838,2.553l0.007,0.002
	c-0.361,0.056-0.712,0.029-1.037-0.077C81.824,21.291,81.216,20.635,81.076,19.787 M100.218,29.876c-0.583-1.078-0.17-2.428,0.912-3
	c1.085-0.579,2.429-0.17,3.008,0.915c0.572,1.082,0.163,2.425-0.915,3.006c-0.554,0.29-1.175,0.331-1.727,0.153
	C100.965,30.78,100.498,30.411,100.218,29.876 M74.479,23.373c-0.678-1.022-0.404-2.402,0.618-3.079
	c1.022-0.677,2.402-0.403,3.079,0.618c0.685,1.025,0.404,2.402-0.618,3.08c-0.588,0.396-1.289,0.466-1.912,0.265
	C75.186,24.11,74.768,23.81,74.479,23.373 M102.032,36.158c-0.089-1.223,0.83-2.285,2.054-2.374
	c1.225-0.097,2.287,0.823,2.376,2.046c0.097,1.225-0.823,2.287-2.048,2.383c-0.296,0.022-0.581-0.015-0.843-0.099
	C102.737,37.845,102.108,37.088,102.032,36.158 M69.94,29.365c-1.038-0.654-1.352-2.028-0.698-3.066
	c0.655-1.038,2.022-1.355,3.066-0.698c1.038,0.654,1.347,2.019,0.698,3.066l-0.008-0.002c-0.548,0.878-1.616,1.236-2.557,0.933
	C70.274,29.543,70.103,29.464,69.94,29.365 M102.496,45.472c-1.155-0.411-1.751-1.688-1.342-2.837l0.009-0.005
	c0.412-1.155,1.683-1.752,2.835-1.333c1.155,0.411,1.758,1.69,1.339,2.844l0.002-0.008c-0.404,1.134-1.637,1.737-2.769,1.371
	C102.542,45.496,102.521,45.487,102.496,45.472 M66.387,34.19L66.387,34.19c0.166-1.219,1.284-2.068,2.501-1.902
	c1.212,0.164,2.06,1.287,1.895,2.5c-0.166,1.219-1.284,2.069-2.502,1.901c-0.127-0.017-0.26-0.044-0.386-0.085
	C66.891,36.282,66.233,35.273,66.387,34.19 M97.702,51.334c-0.873-0.851-0.89-2.246-0.054-3.124
	c0.021-0.016,0.033-0.036,0.055-0.052c0.853-0.88,2.258-0.903,3.139-0.049c0.879,0.853,0.897,2.256,0.058,3.132
	c-0.021,0.017-0.036,0.043-0.058,0.06c-0.606,0.624-1.492,0.806-2.27,0.556C98.254,51.753,97.958,51.58,97.702,51.334
	 M66.988,42.541c-0.338-1.178,0.348-2.409,1.526-2.746c1.178-0.339,2.412,0.339,2.75,1.519c0.337,1.178-0.348,2.409-1.526,2.747
	c-0.44,0.13-0.887,0.112-1.29-0.017C67.77,43.823,67.203,43.282,66.988,42.541 M90.971,54.659c-0.45-1.144,0.119-2.427,1.262-2.871
	c1.141-0.444,2.434,0.121,2.878,1.263c0.443,1.142-0.129,2.434-1.27,2.877c-0.491,0.193-1.015,0.195-1.482,0.045
	C91.743,55.775,91.221,55.31,90.971,54.659 M70.919,49.936L70.919,49.936c-0.789-0.941-0.659-2.335,0.281-3.125
	c0.941-0.789,2.345-0.665,3.125,0.281c0.789,0.94,0.664,2.345-0.281,3.125c-0.602,0.51-1.399,0.635-2.106,0.407
	C71.557,50.501,71.2,50.276,70.919,49.936 M83.458,54.938c0.06-1.229,1.099-2.175,2.329-2.114c1.229,0.06,2.172,1.105,2.106,2.327
	c-0.059,1.229-1.098,2.174-2.327,2.114c-0.2-0.012-0.391-0.049-0.568-0.106C84.065,56.859,83.409,55.961,83.458,54.938
	 M77.469,55.139L77.469,55.139c-1.096-0.549-1.539-1.886-0.99-2.981c0.55-1.104,1.885-1.539,2.98-0.991
	c1.096,0.548,1.539,1.884,0.991,2.981c-0.5,0.994-1.637,1.447-2.662,1.116C77.683,55.231,77.578,55.189,77.469,55.139"/>
<path fill="#848487" d="M209.908,104.568c3.625,0,6.236-2.053,6.236-5.121v-0.051c0-2.788-1.85-4.284-6.032-5.171
	c-4.208-0.887-5.171-1.952-5.171-3.777v-0.051c0-1.774,1.647-3.219,4.182-3.219c1.952,0,3.675,0.608,5.399,2.053l1.065-1.368
	c-1.876-1.521-3.726-2.256-6.413-2.256c-3.473,0-6.008,2.104-6.008,4.943v0.051c0,2.94,1.876,4.36,6.21,5.272
	c4.03,0.836,4.993,1.876,4.993,3.675V99.6c0,1.977-1.774,3.397-4.36,3.397c-2.636,0-4.486-0.887-6.464-2.687l-1.115,1.318
	C204.636,103.605,206.993,104.568,209.908,104.568 M185.955,104.314h13.384v-1.622h-11.609v-6.869h10.291v-1.622h-10.291v-6.718
	h11.483v-1.622h-13.257V104.314z M178.655,104.314h1.774V85.861h-1.774V104.314z M166.336,104.619c3.067,0,5.653-1.293,7.351-2.789
	v-7.249h-7.553v1.597h5.856v4.918c-1.293,1.064-3.372,1.952-5.577,1.952c-4.69,0-7.554-3.396-7.554-7.959v-0.051
	c0-4.259,3.016-7.883,7.25-7.883c2.712,0,4.334,0.913,5.779,2.18l1.141-1.343c-1.851-1.546-3.777-2.434-6.819-2.434
	c-5.525,0-9.201,4.512-9.201,9.531v0.051C157.008,100.385,160.531,104.619,166.336,104.619 M143.979,103.022
	c-4.36,0-7.528-3.574-7.528-7.934v-0.051c0-4.36,3.117-7.883,7.478-7.883c4.36,0,7.528,3.574,7.528,7.934v0.051
	C151.457,99.499,148.339,103.022,143.979,103.022 M143.929,104.619c5.602,0,9.379-4.461,9.379-9.531v-0.051
	c0-5.07-3.727-9.48-9.328-9.48c-5.602,0-9.379,4.461-9.379,9.531v0.051C134.6,100.208,138.327,104.619,143.929,104.619
	 M120.482,104.314h12.369v-1.622h-10.595V85.861h-1.774V104.314z M106.642,103.022c-4.36,0-7.528-3.574-7.528-7.934v-0.051
	c0-4.36,3.117-7.883,7.478-7.883c4.36,0,7.528,3.574,7.528,7.934v0.051C114.12,99.499,111.002,103.022,106.642,103.022
	 M106.592,104.619c5.602,0,9.379-4.461,9.379-9.531v-0.051c0-5.07-3.727-9.48-9.328-9.48s-9.379,4.461-9.379,9.531v0.051
	C97.263,100.208,100.99,104.619,106.592,104.619 M77.239,104.314h1.724v-15.69l12.395,15.69h1.394V85.861h-1.724v15.361
	L78.912,85.861h-1.673V104.314z M57.214,104.314h1.774v-8.466h11.153v8.466h1.774V85.861h-1.774v8.365H58.989v-8.365h-1.774V104.314
	z M46.036,104.619c3.321,0,5.424-1.267,7.377-3.219l-1.166-1.141c-1.825,1.749-3.549,2.763-6.134,2.763
	c-4.208,0-7.427-3.498-7.427-7.934v-0.051c0-4.411,3.169-7.883,7.402-7.883c2.636,0,4.41,1.115,6.007,2.636l1.217-1.318
	c-1.876-1.724-3.878-2.915-7.199-2.915c-5.374,0-9.277,4.309-9.277,9.531v0.051C36.835,100.436,40.764,104.619,46.036,104.619
	 M19.979,104.314h13.384v-1.622H21.754v-6.869h10.291v-1.622H21.754v-6.718h11.483v-1.622H19.979V104.314z M8.015,104.314h1.774
	V87.509h6.287v-1.648H1.703v1.648h6.312V104.314z"/>
<path fill="#40B4E5" d="M216.618,67.35v-6.147h-25.75V11.947h-6.894V67.35H216.618z M162.877,48.91H139.37l11.712-29.903
	L162.877,48.91z M177.662,67.35l-22.261-55.404h-8.555L124.502,67.35h7.891l4.901-12.376h27.577l4.901,12.376H177.662z
	 M22.585,68.347c14.951,0,20.434-8.306,20.434-16.28c0-20.683-32.81-13.539-32.81-25.999c0-5.233,4.818-8.804,11.38-8.804
	c6.063,0,11.878,1.993,16.031,6.645l4.153-5.067c-4.652-4.901-11.214-7.808-19.603-7.808c-10.965,0-19.105,6.312-19.105,15.45
	c0,19.769,32.81,11.795,32.81,26.081c0,4.32-3.157,9.635-13.041,9.635c-7.808,0-13.788-3.821-17.36-7.974l-4.153,5.316
	C5.889,64.692,13.033,68.347,22.585,68.347"/>
<rect x="1.321" y="1" fill="none" width="215.298" height="127.692"/>
</svg>
