<?xml version="1.0" encoding="iso-8859-1"?>
<!-- Generator: Adobe Illustrator 20.1.0, SVG Export Plug-In . SVG Version: 6.00 Build 0)  -->
<!DOCTYPE svg PUBLIC "-//W3C//DTD SVG 1.1//EN" "http://www.w3.org/Graphics/SVG/1.1/DTD/svg11.dtd">
<svg version="1.1" xmlns="http://www.w3.org/2000/svg" xmlns:xlink="http://www.w3.org/1999/xlink" x="0px" y="0px"
	 viewBox="0 0 220 75" style="enable-background:new 0 0 220 75;" xml:space="preserve">
<g id="stone_river">
	<g>
		<path style="fill:#4C95CA;" d="M38.324,36.606c-7.489,0.019-14.457-1.319-21.367-3.078c-1.08-0.275-0.397-0.771-0.177-1.089
			c1.354-1.955,3.102-3.519,5.04-4.877c4.179-2.928,8.764-4.89,13.819-5.668c2.276-0.35,4.568-0.414,6.831,0.15
			c4.428,1.104,7.131,3.936,8.228,8.325c0.299,1.194,0.489,2.415,0.726,3.624c0.122,0.626-0.1,0.922-0.765,1.087
			C46.501,36.113,42.29,36.658,38.324,36.606z"/>
		<path style="fill:#4C95CA;" d="M96.814,45.639c-2.768-0.061-5.183-0.851-6.55-3.488c-1.8-3.475-0.751-8.918,4.778-9.862
			c2.518-0.43,4.931-0.18,6.998,1.524c3.378,2.785,2.739,8.89-1.136,10.917C99.6,45.413,98.598,45.633,96.814,45.639z
			 M100.751,38.901c0.009-2.285-1.738-4.201-3.854-4.229c-2.131-0.028-3.975,1.93-3.976,4.222c-0.001,2.256,1.866,4.259,3.964,4.254
			C98.953,43.144,100.742,41.177,100.751,38.901z"/>
		<path style="fill:#4C95CA;" d="M110.899,37.499c0,2.291-0.032,4.582,0.017,6.871c0.017,0.786-0.163,1.084-1.011,1.059
			c-1.96-0.057-1.96-0.013-1.959-1.968c0.002-3.41,0.014-6.82-0.01-10.23c-0.005-0.67,0.171-0.783,0.876-0.88
			c2.026-0.28,3.133,0.563,4.039,2.319c1.013,1.965,2.364,3.756,3.614,5.693c0.252-0.357,0.174-0.681,0.175-0.978
			c0.009-2.116,0.021-4.233-0.002-6.349c-0.005-0.522,0.102-0.754,0.68-0.647c0.763,0.141,1.8-0.373,2.247,0.24
			c0.369,0.506,0.124,1.469,0.126,2.229c0.008,3.234-0.016,6.467,0.024,9.701c0.009,0.704-0.217,0.809-0.881,0.903
			c-1.766,0.251-2.819-0.387-3.702-1.958c-1.185-2.109-2.683-4.041-4.047-6.049C111.022,37.47,110.961,37.484,110.899,37.499z"/>
		<path style="fill:#204C7D;" d="M19.969,43.318c0.156,0.018,0.325,0.005,0.425,0.166c0.076,0.127,0.17,0.109,0.271,0.033
			c1.317-0.19,2.628,0.035,3.939,0.08c5.298,0.18,10.497-0.453,15.623-1.768c2.529-0.649,5.017-1.459,7.583-1.959
			c0.921-0.18,1.86-0.273,2.79-0.405c0.463-0.065,0.743,0.017,0.603,0.599c-0.302,1.259-0.656,2.496-1.171,3.688
			c-0.163,0.378-0.355,0.542-0.789,0.5c-8.216-0.797-16.145,0.647-23.999,2.937c-3.467,1.011-2.276,1.179-5.11-1.134
			c-0.746-0.609-1.366-1.37-2.044-2.061c-0.118-0.51,0.027-0.752,0.604-0.684C19.115,43.357,19.544,43.318,19.969,43.318z"/>
		<path style="fill:#4C95CA;" d="M69.425,29.585c1.585-0.095,3.03,0.363,4.442,0.995c0.406,0.182,0.551,0.358,0.327,0.793
			c-0.336,0.651-0.454,1.563-0.973,1.934c-0.591,0.423-1.319-0.362-2.022-0.503c-1.062-0.212-2.111-0.56-3.207-0.156
			c-0.493,0.182-0.924,0.417-1.024,0.979c-0.111,0.625,0.172,1.083,0.694,1.406c1.398,0.865,2.889,1.567,4.247,2.508
			c1.868,1.295,2.553,2.849,2.046,4.891c-0.46,1.852-1.84,2.915-4.07,3.187c-2.308,0.282-4.429-0.311-6.474-1.311
			c-0.312-0.152-0.463-0.353-0.287-0.698c0.027-0.052,0.043-0.109,0.069-0.162c0.329-0.688,0.492-1.66,1.038-1.981
			c0.517-0.304,1.248,0.52,1.924,0.75c1.059,0.362,2.123,0.706,3.271,0.467c0.676-0.141,1.247-0.453,1.42-1.153
			c0.195-0.789-0.327-1.293-0.916-1.656c-1.2-0.741-2.442-1.413-3.652-2.138c-0.451-0.27-0.868-0.6-1.291-0.917
			c-1.382-1.034-1.639-2.471-1.295-4.028c0.337-1.524,1.487-2.336,2.877-2.841C67.494,29.614,68.458,29.512,69.425,29.585z"/>
		<path style="fill:#204C7D;" d="M48.552,46.461c-2.968,3.907-6.689,6.137-11.45,6.382c-4.024,0.207-7.693-1.153-11.244-2.883
			c-0.179-0.087-0.325-0.241-0.495-0.371C32.84,47.116,40.462,45.768,48.552,46.461z"/>
		<path style="fill:#4C95CA;" d="M43.617,38.497c-6.701,2.256-13.588,3.213-20.644,2.826c-2.17-0.119-4.332-0.354-6.486-0.666
			c-0.447-0.065-0.643-0.289-0.792-0.69c-0.454-1.218-0.467-2.475-0.409-3.743c0.029-0.629,0.243-0.857,0.951-0.666
			c3.778,1.018,7.602,1.838,11.477,2.387c5.104,0.724,10.224,1.114,15.377,0.555C43.263,38.48,43.441,38.497,43.617,38.497z"/>
		<path style="fill:#4C95CA;" d="M124.775,38.85c0.001-1.913,0.014-3.825-0.006-5.738c-0.006-0.591,0.12-0.779,0.801-0.757
			c2.37,0.078,4.745,0.066,7.117,0.033c0.658-0.009,0.863,0.154,0.84,0.834c-0.055,1.617-0.018,1.618-1.641,1.617
			c-1.059-0.001-2.119,0.014-3.178-0.008c-0.476-0.01-0.664,0.136-0.686,0.647c-0.09,2.048-0.108,2.046,1.925,2.046
			c0.677,0,1.354,0.016,2.03,0.007c0.372-0.005,0.551,0.144,0.518,0.523c-0.005,0.058-0.002,0.118,0,0.176
			c0.057,1.734,0.057,1.734-1.685,1.738c-0.647,0.002-1.295-0.001-1.942,0.002c-0.176,0.001-0.426-0.057-0.516,0.035
			c-0.69,0.711-0.206,1.596-0.3,2.399c-0.063,0.541,0.396,0.476,0.741,0.477c1.412,0.004,2.825,0.022,4.237-0.01
			c0.611-0.014,0.805,0.185,0.793,0.813c-0.03,1.723,0,1.723-1.737,1.722c-2.089-0.001-4.18-0.043-6.267,0.023
			c-0.887,0.028-1.089-0.285-1.064-1.107C124.812,42.5,124.774,40.674,124.775,38.85z"/>
		<path style="fill:#204C7D;" d="M148.868,45.351c-0.592,0-1.2-0.001-1.807,0c-0.365,0.001-0.478-0.295-0.634-0.537
			c-1.193-1.854-2.381-3.71-3.579-5.56c-0.304-0.47-1.765-0.783-2.22-0.494c-0.288,0.183-0.165,0.478-0.166,0.722
			c-0.011,1.736-0.044,3.473,0.013,5.207c0.022,0.685-0.31,0.757-0.788,0.648c-0.433-0.098-1.188,0.439-1.183-0.621
			c0.021-4.766,0.014-9.533-0.001-14.299c-0.001-0.463,0.142-0.617,0.602-0.611c1.647,0.023,3.298-0.045,4.942,0.031
			c2.656,0.122,3.648,1.489,4.079,3.676c0.388,1.969-0.933,4.039-2.919,4.69c-0.697,0.229-0.613,0.445-0.28,0.936
			c1.253,1.848,2.473,3.72,3.701,5.585C148.736,44.887,148.92,45.019,148.868,45.351z M140.452,34.219c0,0.323,0,0.646,0,0.969
			c0,1.867,0,1.867,1.891,1.863c0.752-0.001,1.549,0.101,2.23-0.211c1.152-0.529,1.742-2.095,1.444-3.487
			c-0.279-1.303-0.925-1.777-2.555-1.871c-0.264-0.015-0.528-0.028-0.792-0.029c-2.218-0.01-2.218-0.009-2.218,2.237
			C140.451,33.866,140.451,34.043,140.452,34.219z"/>
		<path style="fill:#204C7D;" d="M196.421,45.348c-0.741,0-1.297-0.035-1.846,0.011c-0.455,0.038-0.689-0.166-0.913-0.52
			c-0.882-1.391-1.785-2.768-2.686-4.147c-0.342-0.524-1.49-0.841-2.012-0.58c-0.286,0.143-0.198,0.401-0.2,0.616
			c-0.011,1.295-0.036,2.591,0.009,3.884c0.02,0.571-0.112,0.831-0.717,0.739c-0.23-0.035-0.472-0.017-0.705,0.006
			c-0.468,0.046-0.67-0.078-0.667-0.621c0.026-3.914,0.015-7.828,0.017-11.743c0-0.287-0.08-0.631,0.401-0.599
			c1.98,0.13,3.973-0.234,5.95,0.299c1.733,0.467,2.651,1.353,2.816,3.024c0.173,1.757-0.681,3.366-2.188,3.948
			c-0.634,0.245-0.741,0.426-0.328,1.018C194.384,42.16,195.339,43.691,196.421,45.348z M188.76,34.544
			c-0.174,1.157-0.068,2.318-0.051,3.478c-0.053,0.188,0.085,0.313,0.21,0.317c1.11,0.029,2.238,0.188,3.321-0.128
			c0.962-0.281,1.54-1.363,1.374-2.371c-0.176-1.064-0.881-1.661-2.014-1.682c-0.733-0.014-1.466-0.003-2.198-0.003
			C189.11,34.154,188.788,34.108,188.76,34.544z"/>
		<path style="fill:#4C95CA;" d="M80.619,40.105c0.001-1.498-0.027-2.997,0.014-4.494c0.018-0.634-0.208-0.817-0.811-0.784
			c-0.791,0.043-1.587-0.014-2.379,0.019c-0.511,0.021-0.72-0.109-0.733-0.675c-0.039-1.772-0.065-1.771,1.651-1.771
			c2.879,0,5.758-0.004,8.637-0.001c0.986,0.001,1.024,0.053,0.591,0.922c-0.16,0.321,0.125,0.468,0.185,0.701
			c0.133,0.513,0.086,0.856-0.592,0.825c-0.821-0.037-1.647,0.029-2.467-0.02c-0.598-0.036-0.804,0.25-0.804,0.763
			c0.001,2.408-0.09,4.822,0.05,7.223c0.152,2.601,0.247,2.569-2.321,2.612c-0.771,0.013-1.091-0.148-1.045-1.003
			C80.674,42.987,80.618,41.545,80.619,40.105z"/>
		<path style="fill:#204C7D;" d="M174.024,38.908c0-1.913,0.023-3.826-0.013-5.739c-0.012-0.62,0.173-0.8,0.796-0.789
			c2.148,0.038,4.298,0.063,6.444-0.01c0.852-0.029,0.758,0.406,0.8,0.963c0.051,0.674-0.177,0.859-0.84,0.835
			c-1.411-0.051-2.827,0.026-4.237-0.035c-0.73-0.031-0.914,0.229-0.866,0.903c0.052,0.732,0.032,1.471,0.005,2.206
			c-0.017,0.468,0.168,0.617,0.621,0.609c1.206-0.021,2.416,0.044,3.619-0.025c0.784-0.045,0.676,0.416,0.677,0.886
			c0.001,0.475,0.099,0.941-0.677,0.903c-1.204-0.058-2.413-0.002-3.619-0.021c-0.442-0.007-0.633,0.121-0.618,0.597
			c0.03,0.941,0.035,1.884-0.001,2.825c-0.021,0.535,0.223,0.638,0.684,0.633c1.589-0.016,3.181,0.043,4.767-0.025
			c0.838-0.036,0.608,0.488,0.63,0.908c0.023,0.434,0.128,0.85-0.619,0.834c-2.294-0.051-4.591-0.034-6.886-0.002
			c-0.569,0.008-0.682-0.19-0.674-0.716c0.031-1.913,0.012-3.826,0.012-5.739C174.028,38.908,174.026,38.908,174.024,38.908z"/>
		<path style="fill:#204C7D;" d="M164.749,41.828c1.133-2.901,2.253-5.772,3.378-8.64c0.114-0.289,0.124-0.728,0.493-0.768
			c0.608-0.064,1.249-0.102,1.837,0.028c0.331,0.074,0.002,0.451-0.085,0.661c-1.334,3.227-2.681,6.448-4.026,9.67
			c-0.339,0.813-0.705,1.616-1.009,2.441c-0.153,0.414-0.412,0.495-0.8,0.498c-0.372,0.003-0.576-0.121-0.727-0.48
			c-1.384-3.302-2.788-6.597-4.186-9.893c-0.346-0.817-0.675-1.641-1.046-2.447c-0.189-0.409-0.076-0.534,0.337-0.511
			c0.176,0.01,0.358,0.03,0.528-0.001c0.906-0.17,1.325,0.217,1.659,1.081c1.013,2.625,2.143,5.204,3.235,7.798
			C164.412,41.445,164.426,41.674,164.749,41.828z"/>
		<path style="fill:#204C7D;" d="M152.778,38.878c0-1.939,0.021-3.879-0.013-5.818c-0.01-0.56,0.17-0.743,0.704-0.673
			c0.26,0.034,0.531,0.034,0.792,0.003c0.487-0.057,0.595,0.17,0.593,0.613c-0.016,3.879-0.028,7.758-0.007,11.636
			c0.003,0.6-0.196,0.797-0.76,0.71c-0.143-0.022-0.296-0.016-0.44,0.005c-0.652,0.094-0.916-0.089-0.891-0.835
			C152.821,42.641,152.778,40.759,152.778,38.878z"/>
		<path style="fill:#204C7D;" d="M201.601,33.763c-0.425,0.192,0.1,0.958-0.48,0.86c-0.467-0.079-0.19-0.655-0.184-0.981
			c0.007-0.411-0.363-1.034,0.256-1.221c0.808-0.245,0.669,0.586,0.91,0.982c0.072,0.118,0.153,0.298,0.255,0.318
			c0.217,0.042,0.26-0.186,0.323-0.339c0.09-0.215,0.169-0.437,0.232-0.661c0.096-0.341,0.362-0.347,0.63-0.327
			c0.366,0.027,0.268,0.311,0.269,0.532c0.002,0.468,0,0.936,0,1.404c0,0.146,0.013,0.313-0.159,0.368
			c-0.228,0.073-0.303-0.077-0.34-0.272c-0.049-0.256-0.123-0.493-0.427-0.196c-0.717,0.701-0.713,0.701-1.1-0.22
			C201.746,33.914,201.66,33.839,201.601,33.763z"/>
		<path style="fill:#204C7D;" d="M199.473,32.404c0.32,0,0.553-0.012,0.783,0.008c0.058,0.005,0.142,0.109,0.149,0.175
			c0.007,0.06-0.077,0.186-0.118,0.185c-0.951-0.03-0.619,0.677-0.669,1.159c-0.015,0.144,0.004,0.292-0.004,0.437
			c-0.008,0.131,0.053,0.319-0.164,0.332c-0.195,0.012-0.226-0.148-0.229-0.297c-0.006-0.32,0.008-0.641-0.004-0.961
			c-0.007-0.17-0.028-0.346-0.083-0.505c-0.091-0.264-0.759,0.07-0.547-0.411C198.734,32.193,199.229,32.46,199.473,32.404z"/>
		<path style="fill:#204C7D;" d="M19.969,43.318c-0.425,0-0.855,0.04-1.274-0.01c-0.577-0.068-0.722,0.174-0.604,0.684
			c-0.396-0.195-0.557-0.556-0.81-1.094C18.272,43.131,19.149,42.96,19.969,43.318z"/>
		<path style="fill:#204C7D;" d="M20.665,43.517c-0.101,0.076-0.195,0.094-0.271-0.033c0.05-0.052,0.1-0.104,0.149-0.156
			C20.584,43.391,20.625,43.454,20.665,43.517z"/>
		<path style="fill:#204C7D;" d="M188.76,34.544c0.082,1.161,0.176,2.322-0.052,3.478C188.692,36.862,188.586,35.701,188.76,34.544z
			"/>
	</g>
</g>
<g id="Layer_1">
</g>
</svg>
