<?xml version="1.0" encoding="utf-8"?>
<!-- Generator: Adobe Illustrator 21.1.0, SVG Export Plug-In . SVG Version: 6.00 Build 0)  -->
<svg version="1.1" id="Layer_1" xmlns="http://www.w3.org/2000/svg" xmlns:xlink="http://www.w3.org/1999/xlink" x="0px" y="0px"
	 viewBox="0 0 277.7 118.1" style="enable-background:new 0 0 277.7 118.1;" xml:space="preserve">
<style type="text/css">
	.st0{fill:#4C95CA;}
	.st1{fill:#204C7D;}
</style>
<g id="stone_river">
	<g>
		<path class="st0" d="M34.2,58.9c-11,0-21.2-1.9-31.4-4.5c-1.6-0.4-0.6-1.1-0.3-1.6c2-2.9,4.6-5.2,7.4-7.2
			c6.1-4.3,12.9-7.2,20.3-8.3c3.3-0.5,6.7-0.6,10,0.2c6.5,1.6,10.5,5.8,12.1,12.2c0.4,1.8,0.7,3.5,1.1,5.3c0.2,0.9-0.1,1.4-1.1,1.6
			C46.2,58.1,40,58.9,34.2,58.9z"/>
		<path class="st0" d="M120.1,72.1c-4.1-0.1-7.6-1.2-9.6-5.1c-2.6-5.1-1.1-13.1,7-14.5c3.7-0.6,7.2-0.3,10.3,2.2c5,4.1,4,13-1.7,16
			C124.1,71.8,122.7,72.1,120.1,72.1z M125.8,62.2c0-3.4-2.6-6.2-5.7-6.2c-3.1,0-5.8,2.8-5.8,6.2c0,3.3,2.7,6.3,5.8,6.2
			C123.2,68.5,125.8,65.6,125.8,62.2z"/>
		<path class="st0" d="M140.7,60.2c0,3.4,0,6.7,0,10.1c0,1.2-0.2,1.6-1.5,1.6c-2.9-0.1-2.9,0-2.9-2.9c0-5,0-10,0-15
			c0-1,0.3-1.1,1.3-1.3c3-0.4,4.6,0.8,5.9,3.4c1.5,2.9,3.5,5.5,5.3,8.4c0.4-0.5,0.3-1,0.3-1.4c0-3.1,0-6.2,0-9.3
			c0-0.8,0.1-1.1,1-0.9c1.1,0.2,2.6-0.5,3.3,0.4c0.5,0.7,0.2,2.2,0.2,3.3c0,4.7,0,9.5,0,14.2c0,1-0.3,1.2-1.3,1.3
			c-2.6,0.4-4.1-0.6-5.4-2.9c-1.7-3.1-3.9-5.9-5.9-8.9C140.9,60.1,140.8,60.2,140.7,60.2z"/>
		<path class="st1" d="M7.3,68.7c0.2,0,0.5,0,0.6,0.2c0.1,0.2,0.2,0.2,0.4,0c1.9-0.3,3.9,0.1,5.8,0.1c7.8,0.3,15.4-0.7,22.9-2.6
			c3.7-1,7.4-2.1,11.1-2.9c1.4-0.3,2.7-0.4,4.1-0.6c0.7-0.1,1.1,0,0.9,0.9c-0.4,1.8-1,3.7-1.7,5.4c-0.2,0.6-0.5,0.8-1.2,0.7
			C38.2,68.9,26.5,71,15,74.4c-5.1,1.5-3.3,1.7-7.5-1.7c-1.1-0.9-2-2-3-3c-0.2-0.7,0-1.1,0.9-1C6,68.8,6.6,68.7,7.3,68.7z"/>
		<path class="st0" d="M79.9,48.6c2.3-0.1,4.4,0.5,6.5,1.5c0.6,0.3,0.8,0.5,0.5,1.2c-0.5,1-0.7,2.3-1.4,2.8c-0.9,0.6-1.9-0.5-3-0.7
			c-1.6-0.3-3.1-0.8-4.7-0.2c-0.7,0.3-1.4,0.6-1.5,1.4c-0.2,0.9,0.3,1.6,1,2.1c2.1,1.3,4.2,2.3,6.2,3.7c2.7,1.9,3.7,4.2,3,7.2
			c-0.7,2.7-2.7,4.3-6,4.7c-3.4,0.4-6.5-0.5-9.5-1.9c-0.5-0.2-0.7-0.5-0.4-1c0-0.1,0.1-0.2,0.1-0.2c0.5-1,0.7-2.4,1.5-2.9
			c0.8-0.4,1.8,0.8,2.8,1.1c1.6,0.5,3.1,1,4.8,0.7c1-0.2,1.8-0.7,2.1-1.7c0.3-1.2-0.5-1.9-1.3-2.4c-1.8-1.1-3.6-2.1-5.4-3.1
			c-0.7-0.4-1.3-0.9-1.9-1.3c-2-1.5-2.4-3.6-1.9-5.9c0.5-2.2,2.2-3.4,4.2-4.2C77,48.6,78.4,48.5,79.9,48.6z"/>
		<path class="st1" d="M49.2,73.3c-4.4,5.7-9.8,9-16.8,9.4C26.5,83,21.1,81,15.9,78.5c-0.3-0.1-0.5-0.4-0.7-0.5
			C26.2,74.3,37.3,72.3,49.2,73.3z"/>
		<path class="st0" d="M42,61.6C32.1,65,22,66.4,11.7,65.8c-3.2-0.2-6.4-0.5-9.5-1c-0.7-0.1-0.9-0.4-1.2-1c-0.7-1.8-0.7-3.6-0.6-5.5
			c0-0.9,0.4-1.3,1.4-1C7.3,58.8,13,60,18.6,60.8c7.5,1.1,15,1.6,22.6,0.8C41.5,61.6,41.7,61.6,42,61.6z"/>
		<path class="st0" d="M161.1,62.2c0-2.8,0-5.6,0-8.4c0-0.9,0.2-1.1,1.2-1.1c3.5,0.1,7,0.1,10.4,0c1,0,1.3,0.2,1.2,1.2
			c-0.1,2.4,0,2.4-2.4,2.4c-1.6,0-3.1,0-4.7,0c-0.7,0-1,0.2-1,0.9c-0.1,3-0.2,3,2.8,3c1,0,2,0,3,0c0.5,0,0.8,0.2,0.8,0.8
			c0,0.1,0,0.2,0,0.3c0.1,2.5,0.1,2.5-2.5,2.6c-0.9,0-1.9,0-2.9,0c-0.3,0-0.6-0.1-0.8,0.1c-1,1-0.3,2.3-0.4,3.5
			c-0.1,0.8,0.6,0.7,1.1,0.7c2.1,0,4.1,0,6.2,0c0.9,0,1.2,0.3,1.2,1.2c0,2.5,0,2.5-2.5,2.5c-3.1,0-6.1-0.1-9.2,0
			c-1.3,0-1.6-0.4-1.6-1.6C161.1,67.5,161.1,64.8,161.1,62.2z"/>
		<path class="st1" d="M196.4,71.7c-0.9,0-1.8,0-2.7,0c-0.5,0-0.7-0.4-0.9-0.8c-1.8-2.7-3.5-5.4-5.3-8.2c-0.4-0.7-2.6-1.1-3.3-0.7
			c-0.4,0.3-0.2,0.7-0.2,1.1c0,2.5-0.1,5.1,0,7.6c0,1-0.5,1.1-1.2,1c-0.6-0.1-1.7,0.6-1.7-0.9c0-7,0-14,0-21c0-0.7,0.2-0.9,0.9-0.9
			c2.4,0,4.8-0.1,7.3,0c3.9,0.2,5.4,2.2,6,5.4c0.6,2.9-1.4,5.9-4.3,6.9c-1,0.3-0.9,0.7-0.4,1.4c1.8,2.7,3.6,5.5,5.4,8.2
			C196.3,71,196.5,71.2,196.4,71.7z M184.1,55.4c0,0.5,0,0.9,0,1.4c0,2.7,0,2.7,2.8,2.7c1.1,0,2.3,0.1,3.3-0.3
			c1.7-0.8,2.6-3.1,2.1-5.1c-0.4-1.9-1.4-2.6-3.7-2.7c-0.4,0-0.8,0-1.2,0c-3.3,0-3.3,0-3.3,3.3C184.1,54.8,184.1,55.1,184.1,55.4z"
			/>
		<path class="st1" d="M266.2,71.7c-1.1,0-1.9-0.1-2.7,0c-0.7,0.1-1-0.2-1.3-0.8c-1.3-2-2.6-4.1-3.9-6.1c-0.5-0.8-2.2-1.2-3-0.9
			c-0.4,0.2-0.3,0.6-0.3,0.9c0,1.9-0.1,3.8,0,5.7c0,0.8-0.2,1.2-1.1,1.1c-0.3-0.1-0.7,0-1,0c-0.7,0.1-1-0.1-1-0.9
			c0-5.7,0-11.5,0-17.2c0-0.4-0.1-0.9,0.6-0.9c2.9,0.2,5.8-0.3,8.7,0.4c2.5,0.7,3.9,2,4.1,4.4c0.3,2.6-1,4.9-3.2,5.8
			c-0.9,0.4-1.1,0.6-0.5,1.5C263.2,67,264.7,69.3,266.2,71.7z M255,55.8c-0.3,1.7-0.1,3.4-0.1,5.1c-0.1,0.3,0.1,0.5,0.3,0.5
			c1.6,0,3.3,0.3,4.9-0.2c1.4-0.4,2.3-2,2-3.5c-0.3-1.6-1.3-2.4-3-2.5c-1.1,0-2.2,0-3.2,0C255.5,55.3,255,55.2,255,55.8z"/>
		<path class="st0" d="M96.3,64c0-2.2,0-4.4,0-6.6c0-0.9-0.3-1.2-1.2-1.2c-1.2,0.1-2.3,0-3.5,0c-0.7,0-1.1-0.2-1.1-1
			c-0.1-2.6-0.1-2.6,2.4-2.6c4.2,0,8.5,0,12.7,0c1.4,0,1.5,0.1,0.9,1.4c-0.2,0.5,0.2,0.7,0.3,1c0.2,0.8,0.1,1.3-0.9,1.2
			c-1.2-0.1-2.4,0-3.6,0c-0.9-0.1-1.2,0.4-1.2,1.1c0,3.5-0.1,7.1,0.1,10.6c0.2,3.8,0.4,3.8-3.4,3.8c-1.1,0-1.6-0.2-1.5-1.5
			C96.4,68.2,96.3,66.1,96.3,64z"/>
		<path class="st1" d="M233.4,62.2c0-2.8,0-5.6,0-8.4c0-0.9,0.3-1.2,1.2-1.2c3.2,0.1,6.3,0.1,9.5,0c1.3,0,1.1,0.6,1.2,1.4
			c0.1,1-0.3,1.3-1.2,1.2c-2.1-0.1-4.1,0-6.2-0.1c-1.1,0-1.3,0.3-1.3,1.3c0.1,1.1,0,2.2,0,3.2c0,0.7,0.2,0.9,0.9,0.9
			c1.8,0,3.5,0.1,5.3,0c1.2-0.1,1,0.6,1,1.3c0,0.7,0.1,1.4-1,1.3c-1.8-0.1-3.5,0-5.3,0c-0.6,0-0.9,0.2-0.9,0.9c0,1.4,0.1,2.8,0,4.1
			c0,0.8,0.3,0.9,1,0.9c2.3,0,4.7,0.1,7,0c1.2-0.1,0.9,0.7,0.9,1.3c0,0.6,0.2,1.2-0.9,1.2c-3.4-0.1-6.7,0-10.1,0c-0.8,0-1-0.3-1-1.1
			C233.4,67.9,233.4,65.1,233.4,62.2C233.4,62.2,233.4,62.2,233.4,62.2z"/>
		<path class="st1" d="M219.8,66.5c1.7-4.3,3.3-8.5,5-12.7c0.2-0.4,0.2-1.1,0.7-1.1c0.9-0.1,1.8-0.1,2.7,0c0.5,0.1,0,0.7-0.1,1
			c-2,4.7-3.9,9.5-5.9,14.2c-0.5,1.2-1,2.4-1.5,3.6c-0.2,0.6-0.6,0.7-1.2,0.7c-0.5,0-0.8-0.2-1.1-0.7c-2-4.8-4.1-9.7-6.1-14.5
			c-0.5-1.2-1-2.4-1.5-3.6c-0.3-0.6-0.1-0.8,0.5-0.7c0.3,0,0.5,0,0.8,0c1.3-0.2,1.9,0.3,2.4,1.6c1.5,3.9,3.1,7.6,4.7,11.4
			C219.3,66,219.3,66.3,219.8,66.5z"/>
		<path class="st1" d="M202.2,62.2c0-2.8,0-5.7,0-8.5c0-0.8,0.2-1.1,1-1c0.4,0,0.8,0,1.2,0c0.7-0.1,0.9,0.2,0.9,0.9
			c0,5.7,0,11.4,0,17.1c0,0.9-0.3,1.2-1.1,1c-0.2,0-0.4,0-0.6,0c-1,0.1-1.3-0.1-1.3-1.2C202.3,67.7,202.2,65,202.2,62.2z"/>
		<path class="st1" d="M273.8,54.7c-0.6,0.3,0.1,1.4-0.7,1.3c-0.7-0.1-0.3-1-0.3-1.4c0-0.6-0.5-1.5,0.4-1.8c1.2-0.4,1,0.9,1.3,1.4
			c0.1,0.2,0.2,0.4,0.4,0.5c0.3,0.1,0.4-0.3,0.5-0.5c0.1-0.3,0.2-0.6,0.3-1c0.1-0.5,0.5-0.5,0.9-0.5c0.5,0,0.4,0.5,0.4,0.8
			c0,0.7,0,1.4,0,2.1c0,0.2,0,0.5-0.2,0.5c-0.3,0.1-0.4-0.1-0.5-0.4c-0.1-0.4-0.2-0.7-0.6-0.3c-1.1,1-1,1-1.6-0.3
			C274.1,54.9,273.9,54.8,273.8,54.7z"/>
		<path class="st1" d="M270.7,52.7c0.5,0,0.8,0,1.1,0c0.1,0,0.2,0.2,0.2,0.3c0,0.1-0.1,0.3-0.2,0.3c-1.4,0-0.9,1-1,1.7
			c0,0.2,0,0.4,0,0.6c0,0.2,0.1,0.5-0.2,0.5c-0.3,0-0.3-0.2-0.3-0.4c0-0.5,0-0.9,0-1.4c0-0.2,0-0.5-0.1-0.7
			c-0.1-0.4-1.1,0.1-0.8-0.6C269.6,52.4,270.4,52.8,270.7,52.7z"/>
		<path class="st1" d="M7.3,68.7c-0.6,0-1.3,0.1-1.9,0c-0.8-0.1-1.1,0.3-0.9,1c-0.6-0.3-0.8-0.8-1.2-1.6C4.8,68.4,6.1,68.2,7.3,68.7
			z"/>
		<path class="st1" d="M8.3,69c-0.1,0.1-0.3,0.1-0.4,0C8,68.9,8,68.8,8.1,68.7C8.2,68.8,8.2,68.9,8.3,69z"/>
		<path class="st1" d="M255,55.8c0.1,1.7,0.3,3.4-0.1,5.1C254.9,59.2,254.7,57.5,255,55.8z"/>
	</g>
</g>
</svg>
