<?xml version="1.0" encoding="utf-8"?>
<!-- Generator: Adobe Illustrator 21.1.0, SVG Export Plug-In . SVG Version: 6.00 Build 0)  -->
<svg version="1.1" id="Layer_1" xmlns="http://www.w3.org/2000/svg" xmlns:xlink="http://www.w3.org/1999/xlink" x="0px" y="0px"
	 viewBox="0 0 236.3 118" style="enable-background:new 0 0 236.3 118;" xml:space="preserve">
<style type="text/css">
	.st0{fill:#FAFAFA;}
	.st1{fill:#0D8268;}
	.st2{fill:#17856A;}
</style>
<rect class="st0" width="236.3" height="118"/>
<g id="Logo">
	<path class="st1" d="M45.5,58.4h13.1c-0.2-1.9-0.7-3.8-1.3-5.6c-3.9,0-13,0-15,0c-2.6,0-3.6,2.2-5.3,2.2s-2.7-2.2-4.5-2.2
		s-27.5,0-30.3,0c-0.6,1.8-1,3.7-1.3,5.6c3.7,0,23.6,0,25.8,0c2.5,0,3.4,2.7,3.4,4s-1.4,3.7-1.4,3.7L15.8,87.6
		c1.7,0.9,3.5,1.7,5.4,2.3C23.9,85,33.2,69,36,64.2C39.2,58.5,45.5,58.4,45.5,58.4z"/>
	<path class="st1" d="M23.2,62.4H0.7C0.8,71.6,5.2,79.8,12,85.1c3-4.7,11.4-17.8,12.4-20C25.8,62.4,23.2,62.4,23.2,62.4z"/>
	<path class="st1" d="M38.1,50.8c1.5,0,2.6-1.7,4.3-1.7c1.2,0,8.9,0,13.4,0C51,39.6,41.2,33,29.8,33s-21.3,6.6-26,16.1
		c6.7,0,30.1,0,31.4,0C36.7,49.1,36.6,50.8,38.1,50.8z"/>
	<path class="st1" d="M50.2,62.4c-6.8,0-9.9,3.5-11.7,6.3c-1.4,2.3-9.7,16.8-12.8,22.1c1.3,0.2,2.7,0.3,4,0.3
		c15.9,0,28.9-12.8,29-28.7L50.2,62.4L50.2,62.4z"/>
</g>
<g id="Text">
	<g>
		<path class="st2" d="M73.1,60.1h-2.4l-0.9-4.8l0,0L69,60.1h-2.4l-2.2-7.9h2.4l1,4.9l0,0l1-4.9H71l0.9,5l0,0l1-5h2.4L73.1,60.1z"/>
		<path class="st2" d="M81.1,58.8c0,0.4,0,0.9,0.3,1.3h-2.2C79,59.9,79,59.7,79,59.6l0,0c-0.5,0.5-1.1,0.7-1.9,0.7
			c-1.1,0-2-0.5-2-1.7c0-1.8,2.1-1.7,3.3-2c0.3-0.1,0.6-0.1,0.6-0.5s-0.4-0.5-0.7-0.5c-0.7,0-0.8,0.3-0.8,0.6h-2
			c0.1-1.6,1.6-1.9,3-1.9c2.8,0,2.7,1.1,2.7,2.3L81.1,58.8L81.1,58.8z M79,57.5c-0.3,0.1-0.6,0.2-0.9,0.3c-0.5,0.1-0.7,0.2-0.7,0.6
			c0,0.3,0.3,0.5,0.7,0.5c0.5,0,0.9-0.3,0.9-0.9V57.5L79,57.5z"/>
		<path class="st2" d="M85.6,56c0-0.2-0.1-0.3-0.3-0.4c-0.1-0.1-0.3-0.2-0.5-0.2c-0.3,0-0.7,0.1-0.7,0.4c0,0.2,0.1,0.2,0.3,0.3
			c0.4,0.1,1.2,0.2,1.9,0.4c0.7,0.2,1.4,0.7,1.4,1.6c0,1.6-1.5,2-2.9,2s-2.8-0.5-2.9-2H84c0,0.2,0.1,0.4,0.3,0.5
			c0.1,0.1,0.3,0.2,0.6,0.2c0.3,0,0.7-0.1,0.7-0.4s-0.2-0.4-1.2-0.6C82.7,57.6,82,57,82,56c0-1.5,1.6-1.8,2.7-1.8
			c1.2,0,2.7,0.3,2.8,1.8C87.6,56,85.6,56,85.6,56z"/>
		<path class="st2" d="M88.6,52.2h2.2V55l0,0c0.4-0.4,0.9-0.8,1.8-0.8c1,0,2,0.6,2,2v4h-2.2v-3c0-0.7-0.1-1.1-0.7-1.1
			c-0.4,0-0.9,0.2-0.9,1.1v3h-2.2C88.6,60.2,88.6,52.2,88.6,52.2z"/>
		<path class="st2" d="M98,53.7h-2.2v-1.5H98V53.7z M95.8,54.4H98v5.8h-2.2V54.4z"/>
		<path class="st2" d="M99.3,54.4h2.1v0.7l0,0c0.4-0.6,1-0.9,1.9-0.9c1,0,2,0.6,2,2v4h-2.2v-3c0-0.7-0.1-1.1-0.7-1.1
			c-0.4,0-0.9,0.2-0.9,1.1v3h-2.2C99.3,60.2,99.3,54.4,99.3,54.4z"/>
		<path class="st2" d="M112.4,59.4c0,1.2-0.3,2.8-3,2.8c-1.4,0-2.8-0.4-3-1.9h2.2c0,0.1,0.1,0.1,0.1,0.2c0.1,0.2,0.4,0.4,0.6,0.4
			c0.7,0,0.9-0.8,0.9-1.3V59l0,0c-0.4,0.5-0.9,0.8-1.5,0.8c-1.7,0-2.5-1.3-2.5-2.8s0.9-2.8,2.5-2.8c0.7,0,1.3,0.3,1.5,0.8l0,0v-0.7
			h2.2L112.4,59.4L112.4,59.4z M109.3,58.4c0.8,0,0.9-0.8,0.9-1.4c0-0.6-0.3-1.1-1-1.1c-0.6,0-0.9,0.5-0.9,1.1
			S108.5,58.4,109.3,58.4z"/>
		<path class="st2" d="M116.1,54.4h1.2v1.4h-1.2v2c0,0.5,0.1,0.8,0.7,0.8c0.2,0,0.3,0,0.5,0v1.7c-0.4,0-0.9,0.1-1.4,0.1
			c-0.9,0-2-0.1-2-1.7v-2.8h-1v-1.4h1v-1.8h2.2L116.1,54.4L116.1,54.4z"/>
		<path class="st2" d="M120.9,60.3c-2.2,0-3.1-1.4-3.1-3s1-3,3.1-3c2.2,0,3.1,1.4,3.1,3C124,58.8,123.1,60.3,120.9,60.3z
			 M120.9,55.8c-0.8,0-0.9,0.8-0.9,1.4c0,0.6,0.1,1.4,0.9,1.4s0.9-0.8,0.9-1.4S121.7,55.8,120.9,55.8z"/>
		<path class="st2" d="M125,54.4h2.1v0.7l0,0c0.4-0.6,1-0.9,1.9-0.9c1,0,2,0.6,2,2v4h-2.2v-3c0-0.7-0.1-1.1-0.7-1.1
			c-0.4,0-0.9,0.2-0.9,1.1v3H125V54.4L125,54.4z"/>
		<path class="st2" d="M137.9,57.4c0,0.2,0,0.4,0.1,0.5c0.2,0.5,0.7,0.6,1.2,0.6c0.4,0,1-0.1,1-0.7c0-0.4-0.3-0.5-1.7-0.9
			c-1.3-0.4-2.7-0.7-2.7-2.3c0-1.8,1.6-2.6,3.2-2.6c1.7,0,3.3,0.7,3.3,2.6H140c0-0.3-0.1-0.5-0.3-0.6s-0.5-0.2-0.7-0.2
			c-0.3,0-0.9,0.1-0.9,0.5c0,0.6,1.2,0.7,2.3,1s2.2,0.8,2.2,2.3c0,2.1-1.9,2.7-3.7,2.7c-0.9,0-3.5-0.3-3.5-2.9
			C135.4,57.4,137.9,57.4,137.9,57.4z"/>
		<path class="st2" d="M145.9,54.4h1.2v1.4h-1.2v2c0,0.5,0.1,0.8,0.7,0.8c0.2,0,0.3,0,0.5,0v1.7c-0.4,0-0.9,0.1-1.4,0.1
			c-0.9,0-2-0.1-2-1.7v-2.8h-1v-1.4h1v-1.8h2.2V54.4L145.9,54.4z"/>
		<path class="st2" d="M153.4,58.8c0,0.4,0,0.9,0.3,1.3h-2.2c-0.1-0.2-0.1-0.4-0.1-0.5l0,0c-0.5,0.5-1.1,0.7-1.9,0.7
			c-1.1,0-2-0.5-2-1.7c0-1.8,2.1-1.7,3.3-2c0.3-0.1,0.6-0.1,0.6-0.5s-0.4-0.5-0.7-0.5c-0.7,0-0.8,0.3-0.8,0.6h-2
			c0.1-1.6,1.6-1.9,3-1.9c2.8,0,2.7,1.1,2.7,2.3L153.4,58.8L153.4,58.8z M151.3,57.5c-0.3,0.1-0.6,0.2-0.9,0.3
			c-0.5,0.1-0.7,0.2-0.7,0.6c0,0.3,0.3,0.5,0.7,0.5c0.5,0,0.9-0.3,0.9-0.9V57.5L151.3,57.5z"/>
		<path class="st2" d="M157.2,54.4h1.2v1.4h-1.2v2c0,0.5,0.1,0.8,0.7,0.8c0.2,0,0.3,0,0.5,0v1.7c-0.4,0-0.9,0.1-1.4,0.1
			c-0.9,0-2-0.1-2-1.7v-2.8h-1v-1.4h1v-1.8h2.2V54.4L157.2,54.4z"/>
		<path class="st2" d="M161,57.7c0.1,0.7,0.4,1.1,1.1,1.1c0.4,0,0.7-0.1,0.9-0.4h2.1c-0.4,1.2-1.7,1.8-3,1.8c-1.8,0-3.2-1.1-3.2-3
			c0-1.7,1.2-3,3-3c2.3,0,3.3,1.3,3.3,3.5C165.2,57.7,161,57.7,161,57.7z M163.1,56.6c0-0.5-0.4-1-1-1c-0.7,0-1,0.3-1.1,1H163.1z"/>
		<path class="st2" d="M65.2,65.5h4c2.6,0,3.6,2,3.6,4c0,2.4-1.3,4-4.1,4h-3.5V65.5L65.2,65.5z M67.6,71.4h1c1.5,0,1.7-1.2,1.7-2
			c0-0.5-0.1-1.9-1.9-1.9h-0.8C67.6,67.5,67.6,71.4,67.6,71.4z"/>
		<path class="st2" d="M75.7,71c0.1,0.7,0.4,1.1,1.1,1.1c0.4,0,0.7-0.1,0.9-0.4h2.1c-0.4,1.2-1.7,1.8-3,1.8c-1.8,0-3.2-1.1-3.2-3
			c0-1.7,1.2-3,3-3c2.3,0,3.3,1.3,3.3,3.5H75.7z M77.8,69.9c0-0.5-0.4-1-1-1c-0.7,0-1,0.3-1.1,1H77.8z"/>
		<path class="st2" d="M80.8,67.7h2.1v0.6l0,0c0.3-0.4,0.6-0.8,1.7-0.8c1.6,0,2.4,1.6,2.4,3.1c0,1.4-0.5,3-2.5,3
			c-0.7,0-1.2-0.3-1.6-0.8l0,0v2.5h-2.2L80.8,67.7L80.8,67.7z M83.9,72c0.8,0,1-0.7,1-1.4c0-0.7-0.2-1.4-1-1.4s-1,0.8-1,1.4
			S83.1,72,83.9,72z"/>
		<path class="st2" d="M93.6,72.1c0,0.4,0,0.9,0.3,1.3h-2.2c-0.1-0.2-0.1-0.4-0.1-0.5l0,0c-0.5,0.5-1.1,0.7-1.9,0.7
			c-1.1,0-2-0.5-2-1.7c0-1.8,2.1-1.7,3.3-2c0.3-0.1,0.6-0.1,0.6-0.5s-0.4-0.5-0.7-0.5c-0.7,0-0.8,0.3-0.8,0.6h-2
			c0.1-1.6,1.6-1.9,3-1.9c2.8,0,2.7,1.1,2.7,2.3L93.6,72.1L93.6,72.1z M91.5,70.8c-0.3,0.1-0.6,0.2-0.9,0.3
			c-0.5,0.1-0.7,0.2-0.7,0.6c0,0.3,0.3,0.5,0.7,0.5c0.5,0,0.9-0.3,0.9-0.9V70.8L91.5,70.8z"/>
		<path class="st2" d="M94.8,67.7h2.1v0.9l0,0c0.4-0.7,0.8-1.1,1.6-1.1c0.2,0,0.4,0,0.6,0.1v1.9c-0.2-0.1-0.4-0.1-0.9-0.1
			c-0.9,0-1.3,0.5-1.3,1.7v2.3h-2.2v-5.7H94.8z"/>
		<path class="st2" d="M102.3,67.7h1.2V69h-1.2v2c0,0.5,0.1,0.8,0.7,0.8c0.2,0,0.3,0,0.5,0v1.7c-0.4,0-0.9,0.1-1.4,0.1
			c-0.9,0-2-0.1-2-1.7V69h-1v-1.4h1v-1.8h2.2L102.3,67.7L102.3,67.7z"/>
		<path class="st2" d="M104.2,67.7h2.1v0.8l0,0c0.4-0.7,1.1-0.9,1.9-0.9c0.6,0,1.3,0.3,1.6,0.9c0.1-0.1,0.5-0.9,2-0.9s2,1,2,2v4
			h-2.2v-3.1c0-0.5-0.1-1-0.7-1s-0.7,0.4-0.7,1v3.1H108v-3.1c0-0.5-0.1-1-0.7-1s-0.7,0.4-0.7,1v3.1h-2.2L104.2,67.7L104.2,67.7z"/>
		<path class="st2" d="M116.8,71c0.1,0.7,0.4,1.1,1.1,1.1c0.4,0,0.7-0.1,0.9-0.4h2.1c-0.4,1.2-1.7,1.8-3,1.8c-1.8,0-3.2-1.1-3.2-3
			c0-1.7,1.2-3,3-3c2.3,0,3.3,1.3,3.3,3.5H116.8z M118.9,69.9c0-0.5-0.4-1-1-1c-0.7,0-1,0.3-1.1,1H118.9z"/>
		<path class="st2" d="M121.9,67.7h2.1v0.7l0,0c0.4-0.6,1-0.9,1.9-0.9c1,0,2,0.6,2,2v4h-2.2v-3c0-0.7-0.1-1.1-0.7-1.1
			c-0.4,0-0.9,0.2-0.9,1.1v3h-2.2L121.9,67.7L121.9,67.7z"/>
		<path class="st2" d="M131.7,67.7h1.2V69h-1.2v2c0,0.5,0.1,0.8,0.7,0.8c0.2,0,0.3,0,0.5,0v1.7c-0.4,0-0.9,0.1-1.4,0.1
			c-0.9,0-2-0.1-2-1.7V69h-1v-1.4h1v-1.8h2.2V67.7L131.7,67.7z"/>
		<path class="st2" d="M140.2,73.6c-2.2,0-3.1-1.4-3.1-3s1-3,3.1-3c2.2,0,3.1,1.4,3.1,3C143.4,72.1,142.4,73.6,140.2,73.6z
			 M140.2,69.1c-0.8,0-0.9,0.8-0.9,1.4s0.1,1.4,0.9,1.4c0.8,0,0.9-0.8,0.9-1.4C141.2,69.9,141.1,69.1,140.2,69.1z"/>
		<path class="st2" d="M144.7,69h-0.9v-1.4h0.9c0-0.6,0-1.2,0.5-1.6c0.5-0.5,1-0.5,1.9-0.5c0.3,0,0.6,0,1,0V67
			c-0.2,0-0.4-0.1-0.5-0.1c-0.5,0-0.7,0.2-0.7,0.7h1.2V69H147v4.4h-2.2L144.7,69L144.7,69z"/>
		<path class="st2" d="M154.2,67.5H152v-2h6.9v2h-2.2v5.9h-2.4L154.2,67.5L154.2,67.5z"/>
		<path class="st2" d="M158.7,67.7h2.1v0.9l0,0c0.4-0.7,0.8-1.1,1.6-1.1c0.2,0,0.4,0,0.6,0.1v1.9c-0.2-0.1-0.4-0.1-0.9-0.1
			c-0.9,0-1.3,0.5-1.3,1.7v2.3h-2.2L158.7,67.7L158.7,67.7z"/>
		<path class="st2" d="M169.3,72.1c0,0.4,0,0.9,0.3,1.3h-2.2c-0.1-0.2-0.1-0.4-0.1-0.5l0,0c-0.5,0.5-1.1,0.7-1.9,0.7
			c-1.1,0-2-0.5-2-1.7c0-1.8,2.1-1.7,3.3-2c0.3-0.1,0.6-0.1,0.6-0.5s-0.4-0.5-0.7-0.5c-0.7,0-0.8,0.3-0.8,0.6h-2
			c0.1-1.6,1.6-1.9,3-1.9c2.8,0,2.7,1.1,2.7,2.3L169.3,72.1L169.3,72.1z M167.2,70.8c-0.3,0.1-0.6,0.2-0.9,0.3
			c-0.5,0.1-0.7,0.2-0.7,0.6c0,0.3,0.3,0.5,0.7,0.5c0.5,0,0.9-0.3,0.9-0.9V70.8L167.2,70.8z"/>
		<path class="st2" d="M170.5,67.7h2.1v0.7l0,0c0.4-0.6,1-0.9,1.9-0.9c1,0,2,0.6,2,2v4h-2.2v-3c0-0.7-0.1-1.1-0.7-1.1
			c-0.4,0-0.9,0.2-0.9,1.1v3h-2.2L170.5,67.7L170.5,67.7z"/>
		<path class="st2" d="M181,69.4c0-0.2-0.1-0.3-0.3-0.4c-0.1-0.1-0.3-0.2-0.5-0.2c-0.3,0-0.7,0.1-0.7,0.4c0,0.2,0.1,0.2,0.3,0.3
			c0.4,0.1,1.2,0.2,1.9,0.4c0.7,0.2,1.4,0.7,1.4,1.6c0,1.6-1.5,2-2.9,2s-2.8-0.5-2.9-2h2.1c0,0.2,0.1,0.4,0.3,0.5
			c0.1,0.1,0.3,0.2,0.6,0.2s0.7-0.1,0.7-0.4s-0.2-0.4-1.2-0.6c-1.7-0.3-2.4-0.8-2.4-1.8c0-1.5,1.6-1.8,2.7-1.8
			c1.2,0,2.7,0.3,2.8,1.8H181L181,69.4z"/>
		<path class="st2" d="M184,67.7h2.1v0.6l0,0c0.3-0.4,0.6-0.8,1.7-0.8c1.6,0,2.4,1.6,2.4,3.1c0,1.4-0.5,3-2.5,3
			c-0.7,0-1.2-0.3-1.6-0.8l0,0v2.5H184V67.7L184,67.7z M187.1,72c0.8,0,1-0.7,1-1.4c0-0.7-0.2-1.4-1-1.4s-1,0.8-1,1.4
			S186.3,72,187.1,72z"/>
		<path class="st2" d="M194.1,73.6c-2.2,0-3.1-1.4-3.1-3s1-3,3.1-3c2.2,0,3.1,1.4,3.1,3C197.3,72.1,196.3,73.6,194.1,73.6z
			 M194.1,69.1c-0.8,0-0.9,0.8-0.9,1.4s0.1,1.4,0.9,1.4c0.8,0,0.9-0.8,0.9-1.4C195.1,69.9,195,69.1,194.1,69.1z"/>
		<path class="st2" d="M198.2,67.7h2.1v0.9l0,0c0.4-0.7,0.8-1.1,1.6-1.1c0.2,0,0.4,0,0.6,0.1v1.9c-0.2-0.1-0.4-0.1-0.9-0.1
			c-0.9,0-1.3,0.5-1.3,1.7v2.3h-2.2L198.2,67.7L198.2,67.7z"/>
		<path class="st2" d="M205.8,67.7h1.2V69h-1.2v2c0,0.5,0.1,0.8,0.7,0.8c0.2,0,0.3,0,0.5,0v1.7c-0.4,0-0.9,0.1-1.4,0.1
			c-0.9,0-2-0.1-2-1.7V69h-1v-1.4h1v-1.8h2.2V67.7L205.8,67.7z"/>
		<path class="st2" d="M213.3,72.1c0,0.4,0,0.9,0.3,1.3h-2.2c-0.1-0.2-0.1-0.4-0.1-0.5l0,0c-0.5,0.5-1.1,0.7-1.9,0.7
			c-1.1,0-2-0.5-2-1.7c0-1.8,2.1-1.7,3.3-2c0.3-0.1,0.6-0.1,0.6-0.5s-0.4-0.5-0.7-0.5c-0.7,0-0.8,0.3-0.8,0.6h-2
			c0.1-1.6,1.6-1.9,3-1.9c2.8,0,2.7,1.1,2.7,2.3L213.3,72.1L213.3,72.1z M211.2,70.8c-0.3,0.1-0.6,0.2-0.9,0.3
			c-0.5,0.1-0.7,0.2-0.7,0.6c0,0.3,0.3,0.5,0.7,0.5c0.5,0,0.9-0.3,0.9-0.9V70.8L211.2,70.8z"/>
		<path class="st2" d="M217.1,67.7h1.2V69h-1.2v2c0,0.5,0.1,0.8,0.7,0.8c0.2,0,0.3,0,0.5,0v1.7c-0.4,0-0.9,0.1-1.4,0.1
			c-0.9,0-2-0.1-2-1.7V69h-1v-1.4h1v-1.8h2.2V67.7L217.1,67.7z"/>
		<path class="st2" d="M221.2,67.1H219v-1.5h2.2V67.1L221.2,67.1z M219,67.7h2.2v5.8H219V67.7z"/>
		<path class="st2" d="M225.4,73.6c-2.2,0-3.1-1.4-3.1-3s1-3,3.1-3c2.2,0,3.1,1.4,3.1,3C228.5,72.1,227.5,73.6,225.4,73.6z
			 M225.4,69.1c-0.8,0-0.9,0.8-0.9,1.4s0.1,1.4,0.9,1.4c0.8,0,0.9-0.8,0.9-1.4C226.3,69.9,226.2,69.1,225.4,69.1z"/>
		<path class="st2" d="M229.5,67.7h2.1v0.7l0,0c0.4-0.6,1-0.9,1.9-0.9c1,0,2,0.6,2,2v4h-2.2v-3c0-0.7-0.1-1.1-0.7-1.1
			c-0.4,0-0.9,0.2-0.9,1.1v3h-2.2L229.5,67.7L229.5,67.7z"/>
	</g>
</g>
</svg>
