<?xml version="1.0" encoding="utf-8"?>
<!-- Generator: Adobe Illustrator 16.0.0, SVG Export Plug-In . SVG Version: 6.00 Build 0)  -->
<!DOCTYPE svg PUBLIC "-//W3C//DTD SVG 1.1//EN" "http://www.w3.org/Graphics/SVG/1.1/DTD/svg11.dtd">
<svg version="1.1" xmlns="http://www.w3.org/2000/svg" xmlns:xlink="http://www.w3.org/1999/xlink" x="0px" y="0px" width="1000px"
	 height="183.394px" viewBox="0 0 1000 183.394" enable-background="new 0 0 1000 183.394" xml:space="preserve">
<g id="Logo">
	<path fill="#0D8268" d="M141.432,80.234h41.196c-0.758-6.076-2.107-11.965-3.996-17.612c-12.248,0-40.931,0-47.265,0
		c-8.108,0-11.461,6.989-16.773,6.989s-8.387-6.989-14.258-6.989c-5.545,0-86.653,0-95.629,0
		c-1.889,5.647-3.237,11.537-3.997,17.612c11.64,0,74.356,0,81.454,0c7.828,0,10.624,8.388,10.624,12.581
		c0,4.194-4.473,11.742-4.473,11.742l-40.659,67.595c5.333,2.923,10.984,5.335,16.895,7.163
		c8.76-15.189,37.934-65.765,46.688-80.908C121.582,80.514,141.432,80.234,141.432,80.234z"/>
	<path fill="#0D8268" d="M70.981,92.815H0c0.349,29.067,14.216,54.868,35.615,71.426c9.588-14.989,35.86-56.201,39.28-63.04
		C79.088,92.815,70.981,92.815,70.981,92.815z"/>
	<path fill="#0D8268" d="M117.948,56.192c4.752,0,8.107-5.312,13.419-5.312c3.719,0,28.105,0,42.413,0
		C158.761,20.727,127.643,0,91.669,0C55.695,0,24.577,20.727,9.558,50.88c21.233,0,95.098,0,99.165,0
		C113.475,50.88,113.195,56.192,117.948,56.192z"/>
	<path fill="#0D8268" d="M156.249,92.815c-21.527,0-31.312,10.903-36.903,19.85c-4.548,7.276-30.729,53.012-40.347,69.837
		c4.143,0.574,8.368,0.893,12.67,0.893c50.268,0,91.066-40.454,91.669-90.579H156.249z"/>
</g>
<g id="Text">
	<g>
		<path fill="#17856A" d="M247.58,100.643H236.57l-3.961-22.379h-0.102l-3.859,22.379h-11.061l-9.979-36.733h11.111l4.475,22.688
			h0.104l4.424-22.688h9.98l4.321,22.997h0.104l4.578-22.997h11.164L247.58,100.643z"/>
		<path fill="#17856A" d="M284.41,94.674c0,2.007,0.051,4.271,1.234,5.968h-10.392c-0.257-0.772-0.412-1.75-0.361-2.521h-0.103
			c-2.212,2.469-5.299,3.19-8.591,3.19c-5.144,0-9.415-2.47-9.415-8.077c0-8.489,9.93-8.077,15.074-9.105
			c1.389-0.257,2.778-0.669,2.778-2.367c0-1.8-1.698-2.469-3.344-2.469c-3.087,0-3.808,1.595-3.808,2.726h-9.465
			c0.257-7.562,7.459-8.745,13.736-8.745c12.758,0,12.655,5.298,12.655,10.443V94.674z M274.635,88.655
			c-1.234,0.618-2.624,0.927-4.013,1.287c-2.263,0.566-3.447,1.08-3.447,2.88c0,1.235,1.338,2.47,3.189,2.47
			c2.315,0,4.116-1.338,4.27-4.168V88.655z"/>
		<path fill="#17856A" d="M305.242,81.71c-0.052-0.875-0.515-1.543-1.184-2.006c-0.617-0.515-1.389-0.771-2.264-0.771
			c-1.44,0-3.087,0.36-3.087,2.057c0,0.772,0.618,1.132,1.184,1.39c1.646,0.669,5.556,0.977,8.951,2.058
			c3.447,1.081,6.379,3.087,6.379,7.459c0,7.408-7.099,9.415-13.582,9.415c-6.276,0-13.17-2.521-13.324-9.415h9.723
			c0.051,0.875,0.464,1.698,1.235,2.367c0.566,0.515,1.492,0.771,2.727,0.771c1.338,0,3.447-0.514,3.447-2.058
			s-0.875-2.007-5.607-2.83c-7.769-1.286-10.907-3.807-10.907-8.386c0-6.739,7.253-8.488,12.604-8.488
			c5.762,0,12.707,1.595,12.964,8.437H305.242z"/>
		<path fill="#17856A" d="M319.334,63.91h10.186v12.913h0.103c1.697-2.057,4.012-3.549,8.334-3.549c4.784,0,9.158,2.932,9.158,9.054
			v18.315h-10.186V86.649c0-3.087-0.36-5.247-3.345-5.247c-1.801,0-4.064,0.875-4.064,5.145v14.096h-10.186V63.91z"/>
		<path fill="#17856A" d="M363.059,71.061h-10.186V63.91h10.186V71.061z M352.873,73.942h10.186v26.7h-10.186V73.942z"/>
		<path fill="#17856A" d="M368.869,73.942h9.827v3.395h0.102c1.904-2.675,4.579-4.064,8.694-4.064c4.784,0,9.158,2.932,9.158,9.054
			v18.315h-10.188V86.649c0-3.087-0.359-5.247-3.343-5.247c-1.801,0-4.064,0.875-4.064,5.145v14.096h-10.186V73.942z"/>
		<path fill="#17856A" d="M429.418,97.196c0,5.35-1.39,12.758-13.891,12.758c-6.328,0-12.964-1.698-13.942-8.9h10.083
			c0.155,0.258,0.361,0.566,0.566,0.926c0.618,0.978,1.698,1.955,2.984,1.955c3.292,0,4.014-3.91,4.014-6.122v-2.469h-0.104
			c-1.646,2.417-4.064,3.704-7.15,3.704c-7.872,0-11.421-5.865-11.421-13.016c0-6.945,3.962-12.758,11.575-12.758
			c3.036,0,5.813,1.183,6.997,3.91h0.104v-3.241h10.186V97.196z M415.321,92.514c3.756,0,4.167-3.601,4.167-6.585
			c0-2.932-1.389-5.247-4.425-5.247c-2.932,0-4.32,2.469-4.32,5.298C410.743,89.017,411.668,92.514,415.321,92.514z"/>
		<path fill="#17856A" d="M446.852,73.942h5.455v6.276h-5.455v9.312c0,2.47,0.515,3.55,3.14,3.55c0.771,0,1.541-0.051,2.315-0.154
			v7.717c-2.059,0-4.322,0.308-6.534,0.308c-4.322,0-9.106-0.668-9.106-7.974V80.218h-4.527v-6.276h4.527v-8.128h10.185V73.942z"/>
		<path fill="#17856A" d="M468.971,101.312c-10.031,0-14.559-6.637-14.559-14.045c0-7.357,4.528-13.993,14.559-13.993
			c10.032,0,14.56,6.636,14.56,13.993C483.531,94.674,479.003,101.312,468.971,101.312z M468.971,80.682
			c-3.91,0-4.373,3.755-4.373,6.585c0,2.829,0.463,6.637,4.373,6.637c3.911,0,4.373-3.808,4.373-6.637
			C473.344,84.437,472.882,80.682,468.971,80.682z"/>
		<path fill="#17856A" d="M487.952,73.942h9.825v3.395h0.103c1.904-2.675,4.579-4.064,8.695-4.064c4.783,0,9.157,2.932,9.157,9.054
			v18.315h-10.187V86.649c0-3.087-0.359-5.247-3.344-5.247c-1.801,0-4.064,0.875-4.064,5.145v14.096h-10.186V73.942z"/>
		<path fill="#17856A" d="M547.622,88.295c0,0.875,0.155,1.698,0.411,2.418c0.824,2.212,3.293,2.675,5.402,2.675
			c1.852,0,4.683-0.617,4.683-3.344c0-1.852-1.596-2.418-7.923-4.218c-5.813-1.646-12.451-3.241-12.451-10.649
			c0-8.488,7.254-12.142,14.816-12.142c7.976,0,15.074,3.087,15.332,11.987h-10.701c0.205-1.389-0.36-2.314-1.338-2.933
			c-0.978-0.669-2.16-0.926-3.344-0.926c-1.543,0-4.063,0.412-4.063,2.47c0.153,2.572,5.505,3.292,10.649,4.63
			c5.194,1.492,10.341,3.807,10.341,10.598c0,9.569-8.746,12.656-16.979,12.656c-4.115,0-16.154-1.492-16.154-13.222H547.622z"/>
		<path fill="#17856A" d="M585.019,73.942h5.453v6.276h-5.453v9.312c0,2.47,0.515,3.55,3.14,3.55c0.771,0,1.542-0.051,2.313-0.154
			v7.717c-2.058,0-4.32,0.308-6.533,0.308c-4.323,0-9.105-0.668-9.105-7.974V80.218h-4.527v-6.276h4.527v-8.128h10.186V73.942z"/>
		<path fill="#17856A" d="M619.742,94.674c0,2.007,0.051,4.271,1.234,5.968h-10.392c-0.258-0.772-0.411-1.75-0.36-2.521h-0.104
			c-2.212,2.469-5.298,3.19-8.592,3.19c-5.145,0-9.414-2.47-9.414-8.077c0-8.489,9.93-8.077,15.074-9.105
			c1.389-0.257,2.778-0.669,2.778-2.367c0-1.8-1.698-2.469-3.345-2.469c-3.087,0-3.807,1.595-3.807,2.726h-9.466
			c0.258-7.562,7.459-8.745,13.736-8.745c12.757,0,12.655,5.298,12.655,10.443V94.674z M609.968,88.655
			c-1.235,0.618-2.626,0.927-4.014,1.287c-2.263,0.566-3.446,1.08-3.446,2.88c0,1.235,1.336,2.47,3.188,2.47
			c2.315,0,4.117-1.338,4.271-4.168V88.655z"/>
		<path fill="#17856A" d="M637.385,73.942h5.452v6.276h-5.452v9.312c0,2.47,0.514,3.55,3.139,3.55c0.771,0,1.542-0.051,2.313-0.154
			v7.717c-2.058,0-4.32,0.308-6.532,0.308c-4.322,0-9.106-0.668-9.106-7.974V80.218h-4.527v-6.276h4.527v-8.128h10.187V73.942z"/>
		<path fill="#17856A" d="M654.667,89.582c0.258,3.086,1.956,5.196,5.197,5.196c1.646,0,3.446-0.618,4.269-1.904h9.518
			c-2.058,5.762-7.716,8.437-13.735,8.437c-8.541,0-14.971-5.042-14.971-13.942c0-7.769,5.607-14.096,14.097-14.096
			c10.597,0,15.176,5.865,15.176,16.309H654.667z M664.441,84.283c0-2.47-1.852-4.476-4.476-4.476c-3.087,0-4.782,1.595-5.247,4.476
			H664.441z"/>
		<path fill="#17856A" d="M210.899,125.638h18.572c12.193,0,16.565,9.054,16.565,18.315c0,11.318-5.968,18.417-18.778,18.417
			h-16.359V125.638z M222.217,152.956h4.425c6.996,0,8.076-5.71,8.076-9.158c0-2.314-0.668-8.746-8.899-8.746h-3.602V152.956z"/>
		<path fill="#17856A" d="M259.356,151.31c0.257,3.086,1.955,5.196,5.196,5.196c1.646,0,3.447-0.618,4.27-1.903h9.518
			c-2.058,5.762-7.717,8.437-13.736,8.437c-8.54,0-14.971-5.042-14.971-13.942c0-7.769,5.608-14.096,14.096-14.096
			c10.598,0,15.177,5.864,15.177,16.308H259.356z M269.131,146.01c0-2.469-1.853-4.476-4.476-4.476
			c-3.087,0-4.785,1.595-5.248,4.476H269.131z"/>
		<path fill="#17856A" d="M283.171,135.67h9.826v2.932h0.103c1.235-1.646,2.881-3.601,7.82-3.601
			c7.563,0,11.215,7.408,11.215,14.147c0,6.328-2.418,13.891-11.37,13.891c-3.087,0-5.71-1.338-7.305-3.602h-0.103v11.575h-10.187
			V135.67z M297.474,155.631c3.652,0,4.476-3.447,4.476-6.585c0-3.139-0.823-6.637-4.476-6.637c-3.653,0-4.476,3.498-4.476,6.637
			C292.998,152.184,293.82,155.631,297.474,155.631z"/>
		<path fill="#17856A" d="M342.536,156.402c0,2.006,0.052,4.27,1.235,5.968h-10.393c-0.257-0.772-0.412-1.749-0.358-2.521h-0.104
			c-2.213,2.47-5.3,3.19-8.592,3.19c-5.144,0-9.415-2.469-9.415-8.077c0-8.488,9.929-8.077,15.073-9.106
			c1.39-0.257,2.778-0.669,2.778-2.367c0-1.8-1.695-2.469-3.343-2.469c-3.087,0-3.808,1.595-3.808,2.727h-9.466
			c0.257-7.563,7.46-8.745,13.735-8.745c12.759,0,12.656,5.298,12.656,10.442V156.402z M332.761,150.383
			c-1.235,0.618-2.624,0.927-4.012,1.287c-2.264,0.566-3.447,1.08-3.447,2.88c0,1.235,1.338,2.47,3.19,2.47
			c2.315,0,4.115-1.338,4.27-4.168V150.383z"/>
		<path fill="#17856A" d="M347.934,135.67h9.775v4.27h0.103c1.646-3.241,3.807-4.938,7.51-4.938c0.977,0,1.955,0.154,2.984,0.411
			v9.003c-1.029-0.36-1.955-0.669-4.012-0.669c-4.064,0-6.174,2.315-6.174,8.077v10.546h-10.186V135.67z"/>
		<path fill="#17856A" d="M383.016,135.67h5.454v6.276h-5.454v9.312c0,2.47,0.514,3.55,3.139,3.55c0.772,0,1.543-0.051,2.315-0.154
			v7.717c-2.059,0-4.322,0.309-6.535,0.309c-4.322,0-9.106-0.668-9.106-7.974v-12.759h-4.527v-6.276h4.527v-8.128h10.187V135.67z"/>
		<path fill="#17856A" d="M391.657,135.67h9.827v3.55h0.103c2.057-3.087,5.042-4.218,8.745-4.218c2.881,0,5.968,1.492,7.202,4.167
			c0.411-0.257,2.47-4.167,9.106-4.167c6.843,0,9.158,4.732,9.158,9.054v18.314h-10.186v-14.457c0-2.521-0.258-4.784-3.345-4.784
			c-2.624,0-3.446,1.955-3.446,4.784v14.457h-10.188v-14.457c0-2.521-0.256-4.784-3.343-4.784c-2.624,0-3.447,1.955-3.447,4.784
			v14.457h-10.186V135.67z"/>
		<path fill="#17856A" d="M449.835,151.31c0.258,3.086,1.956,5.196,5.196,5.196c1.646,0,3.448-0.618,4.27-1.903h9.517
			c-2.058,5.762-7.716,8.437-13.735,8.437c-8.541,0-14.971-5.042-14.971-13.942c0-7.769,5.607-14.096,14.097-14.096
			c10.597,0,15.175,5.864,15.175,16.308H449.835z M459.61,146.01c0-2.469-1.852-4.476-4.476-4.476c-3.087,0-4.784,1.595-5.247,4.476
			H459.61z"/>
		<path fill="#17856A" d="M473.651,135.67h9.826v3.396h0.103c1.904-2.676,4.58-4.064,8.695-4.064c4.784,0,9.158,2.932,9.158,9.054
			v18.314h-10.187v-13.993c0-3.087-0.359-5.248-3.343-5.248c-1.801,0-4.064,0.875-4.064,5.146v14.095h-10.186V135.67z"/>
		<path fill="#17856A" d="M519.229,135.67h5.453v6.276h-5.453v9.312c0,2.47,0.514,3.55,3.139,3.55c0.771,0,1.542-0.051,2.314-0.154
			v7.717c-2.058,0-4.321,0.309-6.533,0.309c-4.322,0-9.106-0.668-9.106-7.974v-12.759h-4.527v-6.276h4.527v-8.128h10.187V135.67z"/>
		<path fill="#17856A" d="M558.527,163.039c-10.031,0-14.559-6.637-14.559-14.045c0-7.356,4.527-13.993,14.559-13.993
			c10.033,0,14.561,6.636,14.561,13.993C573.088,156.402,568.561,163.039,558.527,163.039z M558.527,142.409
			c-3.909,0-4.372,3.755-4.372,6.585s0.463,6.637,4.372,6.637c3.91,0,4.374-3.807,4.374-6.637S562.438,142.409,558.527,142.409z"/>
		<path fill="#17856A" d="M579.204,141.946h-4.167v-6.276h4.167c-0.152-2.624,0.103-5.505,2.109-7.512
			c2.211-2.211,4.784-2.521,8.9-2.521c1.595,0,2.984,0.155,4.578,0.206v6.997c-0.822-0.154-1.646-0.36-2.469-0.36
			c-2.47,0-3.292,0.721-3.138,3.19h5.351v6.276h-5.147v20.424h-10.185V141.946z"/>
		<path fill="#17856A" d="M623.443,135.052h-10.288v-9.415h31.897v9.415h-10.291v27.318h-11.318V135.052z"/>
		<path fill="#17856A" d="M644.327,135.67h9.774v4.27h0.102c1.648-3.241,3.809-4.938,7.512-4.938c0.978,0,1.955,0.154,2.984,0.411
			v9.003c-1.029-0.36-1.955-0.669-4.012-0.669c-4.064,0-6.174,2.315-6.174,8.077v10.546h-10.187V135.67z"/>
		<path fill="#17856A" d="M693.198,156.402c0,2.006,0.051,4.27,1.234,5.968h-10.392c-0.258-0.772-0.412-1.749-0.361-2.521h-0.103
			c-2.211,2.47-5.299,3.19-8.592,3.19c-5.145,0-9.414-2.469-9.414-8.077c0-8.488,9.931-8.077,15.074-9.106
			c1.389-0.257,2.778-0.669,2.778-2.367c0-1.8-1.698-2.469-3.345-2.469c-3.087,0-3.806,1.595-3.806,2.727h-9.467
			c0.257-7.563,7.459-8.745,13.736-8.745c12.758,0,12.655,5.298,12.655,10.442V156.402z M683.424,150.383
			c-1.235,0.618-2.625,0.927-4.013,1.287c-2.264,0.566-3.447,1.08-3.447,2.88c0,1.235,1.337,2.47,3.188,2.47
			c2.315,0,4.116-1.338,4.271-4.168V150.383z"/>
		<path fill="#17856A" d="M698.596,135.67h9.825v3.396h0.103c1.904-2.676,4.58-4.064,8.695-4.064c4.783,0,9.157,2.932,9.157,9.054
			v18.314h-10.188v-13.993c0-3.087-0.358-5.248-3.343-5.248c-1.801,0-4.064,0.875-4.064,5.146v14.095h-10.186V135.67z"/>
		<path fill="#17856A" d="M747.361,143.438c-0.051-0.875-0.515-1.543-1.184-2.006c-0.618-0.515-1.389-0.772-2.264-0.772
			c-1.439,0-3.086,0.36-3.086,2.058c0,0.771,0.617,1.132,1.183,1.389c1.646,0.669,5.556,0.978,8.951,2.058
			c3.447,1.081,6.38,3.087,6.38,7.459c0,7.408-7.1,9.415-13.582,9.415c-6.276,0-13.17-2.521-13.324-9.415h9.724
			c0.051,0.875,0.462,1.698,1.233,2.367c0.566,0.514,1.493,0.771,2.729,0.771c1.336,0,3.445-0.514,3.445-2.058
			c0-1.543-0.874-2.006-5.607-2.83c-7.768-1.286-10.905-3.807-10.905-8.386c0-6.738,7.254-8.488,12.604-8.488
			c5.762,0,12.707,1.595,12.965,8.437H747.361z"/>
		<path fill="#17856A" d="M761.454,135.67h9.825v2.932h0.103c1.235-1.646,2.882-3.601,7.82-3.601
			c7.563,0,11.216,7.408,11.216,14.147c0,6.328-2.418,13.891-11.371,13.891c-3.086,0-5.71-1.338-7.305-3.602h-0.103v11.575h-10.186
			V135.67z M775.755,155.631c3.653,0,4.477-3.447,4.477-6.585c0-3.139-0.823-6.637-4.477-6.637c-3.651,0-4.476,3.498-4.476,6.637
			C771.279,152.184,772.104,155.631,775.755,155.631z"/>
		<path fill="#17856A" d="M808.214,163.039c-10.03,0-14.559-6.637-14.559-14.045c0-7.356,4.528-13.993,14.559-13.993
			c10.033,0,14.561,6.636,14.561,13.993C822.774,156.402,818.247,163.039,808.214,163.039z M808.214,142.409
			c-3.909,0-4.372,3.755-4.372,6.585s0.463,6.637,4.372,6.637c3.911,0,4.373-3.807,4.373-6.637S812.125,142.409,808.214,142.409z"/>
		<path fill="#17856A" d="M827.193,135.67h9.773v4.27h0.104c1.646-3.241,3.806-4.938,7.512-4.938c0.975,0,1.955,0.154,2.982,0.411
			v9.003c-1.027-0.36-1.954-0.669-4.012-0.669c-4.064,0-6.174,2.315-6.174,8.077v10.546h-10.187V135.67z"/>
		<path fill="#17856A" d="M862.275,135.67h5.453v6.276h-5.453v9.312c0,2.47,0.514,3.55,3.139,3.55c0.771,0,1.542-0.051,2.314-0.154
			v7.717c-2.058,0-4.321,0.309-6.533,0.309c-4.322,0-9.105-0.668-9.105-7.974v-12.759h-4.528v-6.276h4.528v-8.128h10.186V135.67z"/>
		<path fill="#17856A" d="M896.999,156.402c0,2.006,0.052,4.27,1.235,5.968h-10.392c-0.258-0.772-0.411-1.749-0.36-2.521h-0.104
			c-2.212,2.47-5.299,3.19-8.592,3.19c-5.145,0-9.414-2.469-9.414-8.077c0-8.488,9.93-8.077,15.074-9.106
			c1.389-0.257,2.778-0.669,2.778-2.367c0-1.8-1.698-2.469-3.345-2.469c-3.087,0-3.807,1.595-3.807,2.727h-9.466
			c0.258-7.563,7.459-8.745,13.736-8.745c12.759,0,12.654,5.298,12.654,10.442V156.402z M887.226,150.383
			c-1.233,0.618-2.625,0.927-4.014,1.287c-2.263,0.566-3.446,1.08-3.446,2.88c0,1.235,1.337,2.47,3.188,2.47
			c2.315,0,4.116-1.338,4.271-4.168V150.383z"/>
		<path fill="#17856A" d="M914.641,135.67h5.453v6.276h-5.453v9.312c0,2.47,0.514,3.55,3.139,3.55c0.772,0,1.543-0.051,2.314-0.154
			v7.717c-2.058,0-4.32,0.309-6.533,0.309c-4.322,0-9.105-0.668-9.105-7.974v-12.759h-4.528v-6.276h4.528v-8.128h10.186V135.67z"/>
		<path fill="#17856A" d="M933.726,132.789H923.54v-7.151h10.186V132.789z M923.54,135.67h10.186v26.7H923.54V135.67z"/>
		<path fill="#17856A" d="M952.962,163.039c-10.03,0-14.558-6.637-14.558-14.045c0-7.356,4.527-13.993,14.558-13.993
			c10.033,0,14.562,6.636,14.562,13.993C967.523,156.402,962.995,163.039,952.962,163.039z M952.962,142.409
			c-3.91,0-4.372,3.755-4.372,6.585s0.462,6.637,4.372,6.637c3.912,0,4.374-3.807,4.374-6.637S956.874,142.409,952.962,142.409z"/>
		<path fill="#17856A" d="M971.943,135.67h9.826v3.396h0.103c1.904-2.676,4.578-4.064,8.694-4.064c4.784,0,9.158,2.932,9.158,9.054
			v18.314h-10.188v-13.993c0-3.087-0.359-5.248-3.343-5.248c-1.8,0-4.064,0.875-4.064,5.146v14.095h-10.187V135.67z"/>
	</g>
</g>
</svg>
