<?xml version="1.0" encoding="utf-8"?>
<!-- Generator: Adobe Illustrator 21.1.0, SVG Export Plug-In . SVG Version: 6.00 Build 0)  -->
<svg version="1.1" id="Layer_1" xmlns="http://www.w3.org/2000/svg" xmlns:xlink="http://www.w3.org/1999/xlink" x="0px" y="0px"
	 viewBox="0 0 71.4 118" style="enable-background:new 0 0 71.4 118;" xml:space="preserve">
<style type="text/css">
	.st0{fill:#FAFAFA;}
	.st1{fill:#06435E;}
</style>
<title>ws-esd</title>
<rect class="st0" width="71.4" height="118"/>
<path class="st1" d="M65.4,71.3c-5.7,7.2-17.1,12.1-30.2,12.1c-6.7,0.1-13.3-1.3-19.4-4c2.8-0.5,3.1-2.2,4.9-5.1s12-3,12-3H65.4z"/>
<path class="st1" d="M69.4,60.6c0,1.3-0.2,2.6-0.5,3.8H31.3c0,0-6.2-0.1-7.7,3s-1.7,5.2-9.4,5H5.9c-1.6-1.7-2.8-3.7-3.7-5.8h19.1
	c2.1-0.1,3.9-1.4,4.8-3.3c1.1-3.1,4.1-5.1,7.4-4.9h35.7C69.3,59.1,69.4,59.9,69.4,60.6z"/>
<path class="st1" d="M66.2,51c-36.1,0-34.1-0.1-37,4.7c-1.5,2.2-4,3.6-6.7,3.7H1c0.2-2.2,0.8-4.3,1.8-6.3h25.6
	c2.7,0,3.8-2.5,5.2-5.2s8.6-3,8.6-3h17.9C62.5,46.6,64.5,48.6,66.2,51z"/>
<path class="st1" d="M41.9,38.2c-3.8,1-5.3,1-6.3,4.4S30.2,46,30.2,46H8.8c6.3-5.1,15.8-8.3,26.4-8.3C37.4,37.7,39.7,37.9,41.9,38.2
	z"/>
</svg>
