<?xml version="1.0" encoding="UTF-8" standalone="no"?>
<!DOCTYPE svg PUBLIC "-//W3C//DTD SVG 1.1//EN" "http://www.w3.org/Graphics/SVG/1.1/DTD/svg11.dtd">
<svg version="1.1" xmlns="http://www.w3.org/2000/svg" xmlns:xlink="http://www.w3.org/1999/xlink" preserveAspectRatio="xMidYMid meet" viewBox="0 0 640 640" width="640" height="640"><defs><path d="M317.82 618.27C213.22 666.13 88.77 624.8 30.47 518.2C-29.06 409.86 1.53 272.37 97.04 202.32C113.99 87.89 208.26 0 321.54 0C436.9 0 532.41 90.5 546.88 207.97C639.49 278.9 668.02 413.34 609.72 520.37C550.6 628.28 423.25 669.17 317.82 618.27Z" id="e4JEGXEJF"></path><path d="M321.54 30.02C211.71 30.02 122.67 123.72 122.67 239.3C122.67 354.88 211.71 448.58 321.54 448.58C431.38 448.58 520.41 354.88 520.41 239.3C520.41 123.72 431.38 30.02 321.54 30.02Z" id="b2MclZms1S"></path><path d="M232.34 189.13C342.14 192.12 428.85 288.21 426.02 403.76C423.18 519.3 331.86 610.55 222.06 607.57C112.26 604.58 25.55 508.49 28.39 392.94C31.23 277.39 122.54 186.14 232.34 189.13Z" id="l1EZgn0itD"></path><path d="M553.18 252.8C630.84 334.53 630.84 467.04 553.18 548.77C475.52 630.49 349.6 630.49 271.94 548.77C194.27 467.04 194.27 334.53 271.94 252.8C349.6 171.07 475.52 171.07 553.18 252.8Z" id="d4w4Y2S5aL"></path></defs><g><g><g><use xlink:href="#e4JEGXEJF" opacity="1" fill="#f9f9f9" fill-opacity="1"></use><g><use xlink:href="#e4JEGXEJF" opacity="1" fill-opacity="0" stroke="#d6d6d6" stroke-width="1.13" stroke-opacity="1"></use></g></g><g><use xlink:href="#b2MclZms1S" opacity="1" fill="#000000" fill-opacity="0"></use><g><use xlink:href="#b2MclZms1S" opacity="1" fill-opacity="0" stroke="#79d37d" stroke-width="1.03" stroke-opacity="1"></use></g></g><g><use xlink:href="#l1EZgn0itD" opacity="1" fill="#000000" fill-opacity="0"></use><g><use xlink:href="#l1EZgn0itD" opacity="1" fill-opacity="0" stroke="#4db3c4" stroke-width="1.03" stroke-opacity="1"></use></g></g><g><use xlink:href="#d4w4Y2S5aL" opacity="1" fill="#000000" fill-opacity="0"></use><g><use xlink:href="#d4w4Y2S5aL" opacity="1" fill-opacity="0" stroke="#ef7f92" stroke-width="1.03" stroke-opacity="1"></use></g></g></g></g></svg>