<svg id="Layer_1" data-name="Layer 1" xmlns="http://www.w3.org/2000/svg" viewBox="0 0 758.8 740"><defs><style>.cls-1{fill:#282828;fill-rule:evenodd;}</style></defs><title>github</title><path class="cls-1" d="M384.4,1.3C175,1.3,5.1,171.2,5.1,380.7c0,167.6,108.7,309.8,259.5,360,19,3.5,25.9-8.2,25.9-18.3s-.3-32.9-.5-64.5C184.4,680.8,162.1,607,162.1,607c-17.3-43.8-42.1-55.5-42.1-55.5-34.4-23.5,2.6-23.1,2.6-23.1,38.1,2.7,58.1,39.1,58.1,39.1,33.8,58,88.8,41.2,110.4,31.5,3.4-24.5,13.2-41.2,24.1-50.7-84.2-9.6-172.8-42.1-172.8-187.5,0-41.4,14.8-75.3,39.1-101.8-3.9-9.6-16.9-48.2,3.7-100.4,0,0,31.9-10.2,104.3,38.9a359.6,359.6,0,0,1,190,0c72.4-49.1,104.2-38.9,104.2-38.9,20.7,52.2,7.7,90.8,3.8,100.4,24.3,26.5,39,60.4,39,101.8,0,145.7-88.7,177.8-173.2,187.2,13.6,11.7,25.8,34.9,25.8,70.3,0,50.7-.5,91.6-.5,104.1,0,10.1,6.8,21.9,26.1,18.2,150.6-50.3,259.2-192.4,259.2-359.9C763.9,171.2,594,1.3,384.4,1.3Z" transform="translate(-5.1 -1.3)"/></svg>