<svg id="Layer_1" data-name="Layer 1" xmlns="http://www.w3.org/2000/svg" viewBox="0 0 24 24"><defs><style>.cls-1{fill:#282828;}</style></defs><title>linkedin</title><g id="g12"><path id="path14" class="cls-1" d="M20.4,20.4H16.9V14.9c0-1.3,0-3-1.8-3s-2.1,1.4-2.1,2.9v5.7H9.3V9h3.4v1.6h0a3.7,3.7,0,0,1,3.4-1.8c3.6,0,4.3,2.4,4.3,5.4ZM5.3,7.4A2.1,2.1,0,1,1,7.4,5.4,2.1,2.1,0,0,1,5.3,7.4Zm1.8,13H3.6V9H7.1ZM22.2,0H1.8A1.7,1.7,0,0,0,0,1.7V22.3A1.8,1.8,0,0,0,1.8,24H22.2A1.8,1.8,0,0,0,24,22.3V1.7A1.8,1.8,0,0,0,22.2,0" transform="translate(0 0)"/></g></svg>