<svg id="Layer_1" data-name="Layer 1" xmlns="http://www.w3.org/2000/svg" viewBox="0 0 559.5 765.8"><defs><style>.cls-1{fill:#282828;}.cls-2{fill:none;stroke:#000;stroke-miterlimit:10;stroke-width:0.28px;}</style></defs><title>resume</title><path class="cls-1" d="M619.3,1.3H143.9c-36.8,0-42,38.2-42,38.2V727.3c0,31.5,36,39.7,36,39.7H467.1V638.9H186.4a12.4,12.4,0,0,1,0-24.8H467.1v-.9c7.5-38.3,45-42,45-42H661.3V41.8C661.3,2.1,619.3,1.3,619.3,1.3ZM300.1,76.2c31,0,56.3,15.1,72.2,32.2l-24.8,27.9c-13.2-12.8-27.5-21-46.9-21-41.5,0-71.4,34.9-71.4,92s27.6,92.7,69.8,92.7c22.5,0,39.2-9.3,53.5-25.2l24.8,27.6c-20.6,23.7-46.9,36.9-79.2,36.9-64.4,0-115.2-46.6-115.2-130.8S235,76.2,300.1,76.2ZM576.7,534.4H186.4a12.4,12.4,0,0,1,0-24.8H576.7a12.4,12.4,0,1,1,0,24.8Zm0-111.7H186.4a12.4,12.4,0,1,1,0-24.8H576.7a12.4,12.4,0,1,1,0,24.8Zm-60.4-88.1H462.7L383.9,80.9h47.7l35.7,127.7c8.2,28.7,13.6,53.5,22.1,82.6H491c8.5-29.1,14.4-53.9,22.5-82.6L548.9,80.9h45.8Z" transform="translate(-101.9 -1.3)"/><path class="cls-1" d="M492,767.2V620.1s1.9-22.7,22.7-22.7H661.4Z" transform="translate(-101.9 -1.3)"/><path class="cls-2" d="M174,522" transform="translate(-101.9 -1.3)"/></svg>